{"glyphs":{"0":{"ha":672,"x_min":74,"x_max":599,"o":"m 336 -11 q 157 26 210 -11 q 89 158 104 63 q 74 478 74 253 q 89 798 74 703 q 157 930 104 893 q 336 967 210 967 q 518 930 465 967 q 585 801 571 893 q 599 478 599 708 q 583 158 599 253 q 515 26 568 63 q 336 -11 463 -11 m 336 81 q 445 101 415 81 q 485 199 475 122 q 494 478 494 276 q 485 756 494 679 q 445 854 475 833 q 336 875 415 875 q 226 854 256 875 q 187 757 196 833 q 178 478 178 681 q 187 199 178 275 q 226 101 196 122 q 336 81 256 81 z "},"1":{"ha":381,"x_min":39,"x_max":276,"o":"m 172 0 l 172 829 l 39 763 l 39 860 l 201 956 l 276 956 l 276 0 l 172 0 z "},"2":{"ha":606,"x_min":64,"x_max":542,"o":"m 165 92 l 542 92 l 542 0 l 64 0 l 64 110 q 69 283 64 231 q 99 369 75 335 q 179 435 122 403 q 360 543 228 465 q 423 606 408 571 q 438 713 438 640 q 424 816 438 782 q 378 863 411 850 q 281 875 346 875 q 78 860 203 875 l 78 944 q 184 960 119 954 q 307 967 249 967 q 434 951 385 967 q 513 882 483 935 q 542 725 542 829 q 530 598 542 646 q 492 520 518 550 q 421 464 467 490 l 222 349 q 178 304 189 329 q 167 255 169 286 q 165 161 165 224 l 165 92 z "},"3":{"ha":588,"x_min":42,"x_max":518,"o":"m 251 -11 q 147 -5 206 -11 q 42 11 89 1 l 42 96 q 242 81 167 81 q 340 93 304 81 q 395 143 376 106 q 414 256 414 181 q 385 398 414 357 q 285 439 356 439 l 160 439 l 160 529 l 285 529 q 374 566 342 529 q 406 701 406 603 q 389 813 406 776 q 336 863 372 850 q 232 875 300 875 q 140 870 192 875 q 46 858 88 865 l 46 944 q 149 960 90 954 q 253 967 207 967 q 406 941 350 967 q 487 860 463 915 q 511 715 511 806 q 480 561 511 614 q 388 492 449 508 l 388 486 q 485 419 453 471 q 518 256 518 367 q 497 107 518 164 q 417 19 475 50 q 251 -11 358 -11 z "},"4":{"ha":650,"x_min":44,"x_max":603,"o":"m 399 0 l 399 226 l 44 226 l 44 308 l 297 956 l 407 956 l 154 318 l 400 318 l 419 672 l 503 672 l 503 318 l 603 318 l 603 226 l 503 226 l 503 0 l 399 0 z "},"5":{"ha":610,"x_min":75,"x_max":551,"o":"m 75 96 q 272 81 200 81 q 382 99 344 81 q 433 158 419 117 q 447 281 447 200 q 432 407 447 367 q 378 461 417 447 q 260 475 340 475 q 82 456 183 475 l 82 956 l 501 956 l 501 864 l 181 864 l 181 553 q 319 565 240 565 q 467 535 417 565 q 534 448 517 506 q 551 293 551 390 q 530 113 551 178 q 451 19 508 49 q 285 -11 393 -11 q 180 -5 239 -11 q 75 11 121 1 l 75 96 z "},"6":{"ha":661,"x_min":74,"x_max":600,"o":"m 347 -11 q 221 1 269 -11 q 142 48 172 14 q 93 147 111 82 q 78 260 82 185 q 74 468 74 335 q 78 668 74 590 q 97 793 83 746 q 184 928 124 889 q 365 967 244 967 q 463 960 407 967 q 563 943 518 953 l 563 858 q 383 875 465 875 q 247 847 289 875 q 191 743 204 818 q 178 499 178 668 l 185 499 q 243 549 203 529 q 367 568 283 568 q 506 549 457 568 q 577 474 554 531 q 600 301 600 417 q 581 111 600 176 q 508 17 561 46 q 347 -11 454 -11 m 339 81 q 440 94 408 81 q 485 147 472 107 q 499 275 499 186 q 487 413 499 372 q 444 466 475 454 q 339 478 413 478 q 234 463 267 478 q 191 415 201 447 q 181 314 181 382 q 194 162 181 211 q 241 97 208 113 q 339 81 274 81 z "},"7":{"ha":560,"x_min":35,"x_max":518,"o":"m 122 0 l 408 864 l 35 864 l 35 956 l 518 956 l 518 874 l 233 0 l 122 0 z "},"8":{"ha":681,"x_min":69,"x_max":611,"o":"m 340 -11 q 172 17 231 -11 q 91 103 113 46 q 69 256 69 160 q 83 381 69 335 q 124 449 97 426 q 197 485 151 471 l 197 490 q 104 559 133 506 q 75 715 75 613 q 99 861 75 807 q 180 941 122 915 q 340 967 238 967 q 500 941 443 967 q 581 861 557 915 q 604 715 604 807 q 575 559 604 613 q 483 490 546 506 l 483 485 q 556 449 529 471 q 597 381 583 426 q 611 256 611 335 q 590 103 611 160 q 509 17 568 46 q 340 -11 450 -11 m 340 528 q 440 542 407 528 q 487 593 474 557 q 500 701 500 629 q 488 811 500 775 q 442 862 475 847 q 340 876 408 876 q 239 862 272 876 q 193 811 206 847 q 181 701 181 775 q 194 593 181 629 q 240 542 207 557 q 340 528 274 528 m 340 79 q 442 92 408 79 q 492 143 476 106 q 507 257 507 181 q 493 375 507 338 q 445 426 479 413 q 340 439 411 439 q 235 426 269 439 q 188 375 201 413 q 174 257 174 338 q 189 143 174 181 q 238 92 204 106 q 340 79 272 79 z "},"9":{"ha":661,"x_min":61,"x_max":588,"o":"m 296 -11 q 198 -4 254 -11 q 99 13 142 3 l 99 97 q 278 81 196 81 q 415 109 372 81 q 470 213 457 138 q 483 457 483 288 l 476 457 q 418 407 458 426 q 294 388 378 388 q 156 406 204 388 q 84 482 107 425 q 61 654 61 539 q 81 844 61 779 q 154 938 100 910 q 314 967 208 967 q 442 954 393 967 q 522 910 492 942 q 568 817 551 878 q 583 694 579 771 q 588 488 588 618 q 582 267 588 350 q 558 138 576 185 q 467 22 528 56 q 296 -11 407 -11 m 322 478 q 427 493 394 478 q 470 541 460 508 q 481 642 481 574 q 467 794 481 744 q 420 859 453 843 q 322 875 388 875 q 221 862 253 875 q 176 809 189 849 q 164 681 164 769 q 176 542 164 583 q 218 490 188 501 q 322 478 249 478 z "},"\u0000":{"ha":0,"x_min":0,"x_max":0,"o":""},"\r":{"ha":267,"x_min":0,"x_max":0,"o":""}," ":{"ha":267,"x_min":0,"x_max":0,"o":""},"A":{"ha":686,"x_min":25,"x_max":661,"o":"m 554 0 l 488 265 l 194 265 l 129 0 l 25 0 l 275 956 l 411 956 l 661 0 l 554 0 m 344 829 l 338 829 l 219 357 l 463 357 l 344 829 z "},"Á":{"ha":686,"x_min":25,"x_max":661,"o":"m 554 0 l 488 265 l 194 265 l 129 0 l 25 0 l 275 956 l 411 956 l 661 0 l 554 0 m 344 829 l 338 829 l 219 357 l 463 357 l 344 829 m 290 1042 l 290 1049 l 365 1238 l 469 1238 l 469 1231 l 363 1042 l 290 1042 z "},"Ă":{"ha":686,"x_min":25,"x_max":661,"o":"m 554 0 l 488 265 l 194 265 l 129 0 l 25 0 l 275 956 l 411 956 l 661 0 l 554 0 m 344 829 l 338 829 l 219 357 l 463 357 l 344 829 m 497 1233 q 488 1124 497 1164 q 445 1060 479 1083 q 340 1036 411 1036 q 238 1060 271 1036 q 195 1124 204 1083 q 186 1233 186 1164 l 256 1233 q 260 1155 256 1181 q 282 1115 264 1129 q 340 1100 300 1100 q 401 1115 382 1100 q 424 1155 419 1129 q 428 1233 428 1181 l 497 1233 z "},"Ắ":{"ha":686,"x_min":25,"x_max":661,"o":"m 554 0 l 488 265 l 194 265 l 129 0 l 25 0 l 275 956 l 411 956 l 661 0 l 554 0 m 344 829 l 338 829 l 219 357 l 463 357 l 344 829 m 497 1233 q 488 1124 497 1164 q 445 1060 479 1083 q 340 1036 411 1036 q 238 1060 271 1036 q 195 1124 204 1083 q 186 1233 186 1164 l 256 1233 q 260 1155 256 1181 q 282 1115 264 1129 q 340 1100 300 1100 q 401 1115 382 1100 q 424 1155 419 1129 q 428 1233 428 1181 l 497 1233 m 303 1278 l 303 1285 l 378 1474 l 482 1474 l 482 1467 l 375 1278 l 303 1278 z "},"Ặ":{"ha":686,"x_min":25,"x_max":661,"o":"m 554 0 l 488 265 l 194 265 l 129 0 l 25 0 l 275 956 l 411 956 l 661 0 l 554 0 m 344 829 l 338 829 l 219 357 l 463 357 l 344 829 m 286 -211 l 286 -86 l 400 -86 l 400 -211 l 286 -211 m 497 1233 q 488 1124 497 1164 q 445 1060 479 1083 q 340 1036 411 1036 q 238 1060 271 1036 q 195 1124 204 1083 q 186 1233 186 1164 l 256 1233 q 260 1155 256 1181 q 282 1115 264 1129 q 340 1100 300 1100 q 401 1115 382 1100 q 424 1155 419 1129 q 428 1233 428 1181 l 497 1233 z "},"Ằ":{"ha":686,"x_min":25,"x_max":661,"o":"m 554 0 l 488 265 l 194 265 l 129 0 l 25 0 l 275 956 l 411 956 l 661 0 l 554 0 m 344 829 l 338 829 l 219 357 l 463 357 l 344 829 m 500 1233 q 491 1124 500 1164 q 448 1060 482 1083 q 343 1036 414 1036 q 240 1060 274 1036 q 198 1124 207 1083 q 189 1233 189 1164 l 258 1233 q 263 1155 258 1181 q 285 1115 267 1129 q 343 1100 303 1100 q 403 1115 385 1100 q 426 1155 422 1129 q 431 1233 431 1181 l 500 1233 m 315 1278 l 208 1467 l 208 1474 l 313 1474 l 388 1285 l 388 1278 l 315 1278 z "},"Ẳ":{"ha":686,"x_min":25,"x_max":661,"o":"m 554 0 l 488 265 l 194 265 l 129 0 l 25 0 l 275 956 l 411 956 l 661 0 l 554 0 m 344 829 l 338 829 l 219 357 l 463 357 l 344 829 m 497 1233 q 488 1124 497 1164 q 445 1060 479 1083 q 340 1036 411 1036 q 238 1060 271 1036 q 195 1124 204 1083 q 186 1233 186 1164 l 256 1233 q 260 1155 256 1181 q 282 1115 264 1129 q 340 1100 300 1100 q 401 1115 382 1100 q 424 1155 419 1129 q 428 1233 428 1181 l 497 1233 m 289 1249 q 301 1295 289 1282 q 344 1318 313 1308 l 364 1325 q 406 1345 394 1335 q 417 1379 417 1356 q 410 1408 417 1399 q 388 1420 404 1417 q 333 1424 371 1424 q 215 1417 288 1424 l 215 1478 q 343 1489 296 1489 q 458 1467 425 1489 q 490 1388 490 1444 q 478 1324 490 1346 q 425 1289 465 1303 l 406 1281 q 362 1261 369 1268 q 354 1235 354 1254 l 289 1235 l 289 1249 z "},"Ẵ":{"ha":686,"x_min":25,"x_max":661,"o":"m 554 0 l 488 265 l 194 265 l 129 0 l 25 0 l 275 956 l 411 956 l 661 0 l 554 0 m 344 829 l 338 829 l 219 357 l 463 357 l 344 829 m 494 1233 q 485 1124 494 1164 q 442 1060 476 1083 q 338 1036 408 1036 q 235 1060 268 1036 q 192 1124 201 1083 q 183 1233 183 1164 l 253 1233 q 257 1155 253 1181 q 279 1115 261 1129 q 338 1100 297 1100 q 398 1115 379 1100 q 421 1155 417 1129 q 425 1233 425 1181 l 494 1233 m 538 1481 q 522 1362 538 1394 q 451 1329 506 1329 q 397 1338 424 1329 q 333 1361 369 1346 q 306 1373 326 1364 q 269 1386 286 1382 q 240 1390 253 1390 q 214 1374 219 1390 q 208 1314 208 1358 l 147 1314 q 163 1433 147 1400 q 233 1465 179 1465 q 288 1456 260 1465 q 354 1432 317 1447 q 403 1413 379 1421 q 444 1404 428 1404 q 471 1420 465 1404 q 476 1481 476 1436 l 538 1481 z "},"Ǎ":{"ha":686,"x_min":25,"x_max":661,"o":"m 554 0 l 488 265 l 194 265 l 129 0 l 25 0 l 275 956 l 411 956 l 661 0 l 554 0 m 344 829 l 338 829 l 219 357 l 463 357 l 344 829 m 289 1040 l 182 1225 l 182 1233 l 251 1233 l 343 1099 l 433 1233 l 503 1233 l 503 1225 l 396 1040 l 289 1040 z "},"Â":{"ha":686,"x_min":25,"x_max":661,"o":"m 554 0 l 488 265 l 194 265 l 129 0 l 25 0 l 275 956 l 411 956 l 661 0 l 554 0 m 344 829 l 338 829 l 219 357 l 463 357 l 344 829 m 182 1042 l 182 1050 l 289 1233 l 397 1233 l 503 1050 l 503 1042 l 433 1042 l 343 1176 l 251 1042 l 182 1042 z "},"Ấ":{"ha":686,"x_min":25,"x_max":661,"o":"m 554 0 l 488 265 l 194 265 l 129 0 l 25 0 l 275 956 l 411 956 l 661 0 l 554 0 m 344 829 l 338 829 l 219 357 l 463 357 l 344 829 m 181 1032 l 181 1040 l 288 1224 l 396 1224 l 501 1040 l 501 1032 l 432 1032 l 342 1167 l 250 1032 l 181 1032 m 403 1240 l 403 1247 l 478 1436 l 582 1436 l 582 1429 l 475 1240 l 403 1240 z "},"Ậ":{"ha":686,"x_min":25,"x_max":661,"o":"m 554 0 l 488 265 l 194 265 l 129 0 l 25 0 l 275 956 l 411 956 l 661 0 l 554 0 m 344 829 l 338 829 l 219 357 l 463 357 l 344 829 m 286 -211 l 286 -86 l 400 -86 l 400 -211 l 286 -211 m 182 1042 l 182 1050 l 289 1233 l 397 1233 l 503 1050 l 503 1042 l 433 1042 l 343 1176 l 251 1042 l 182 1042 z "},"Ầ":{"ha":686,"x_min":25,"x_max":661,"o":"m 554 0 l 488 265 l 194 265 l 129 0 l 25 0 l 275 956 l 411 956 l 661 0 l 554 0 m 344 829 l 338 829 l 219 357 l 463 357 l 344 829 m 179 1025 l 179 1033 l 286 1217 l 394 1217 l 500 1033 l 500 1025 l 431 1025 l 340 1160 l 249 1025 l 179 1025 m 426 1233 l 319 1422 l 319 1429 l 424 1429 l 499 1240 l 499 1233 l 426 1233 z "},"Ẩ":{"ha":686,"x_min":25,"x_max":661,"o":"m 554 0 l 488 265 l 194 265 l 129 0 l 25 0 l 275 956 l 411 956 l 661 0 l 554 0 m 344 829 l 338 829 l 219 357 l 463 357 l 344 829 m 182 1026 l 182 1035 l 289 1218 l 397 1218 l 503 1035 l 503 1026 l 433 1026 l 343 1161 l 251 1026 l 182 1026 m 392 1243 q 403 1290 392 1276 q 447 1313 415 1303 l 467 1319 q 508 1340 497 1329 q 519 1374 519 1350 q 513 1402 519 1393 q 490 1415 507 1411 q 436 1418 474 1418 q 318 1411 390 1418 l 318 1472 q 446 1483 399 1483 q 560 1461 528 1483 q 593 1382 593 1439 q 581 1319 593 1340 q 528 1283 568 1297 l 508 1275 q 465 1256 472 1263 q 457 1229 457 1249 l 392 1229 l 392 1243 z "},"Ẫ":{"ha":686,"x_min":25,"x_max":661,"o":"m 554 0 l 488 265 l 194 265 l 129 0 l 25 0 l 275 956 l 411 956 l 661 0 l 554 0 m 344 829 l 338 829 l 219 357 l 463 357 l 344 829 m 179 1026 l 179 1035 l 286 1218 l 394 1218 l 500 1035 l 500 1026 l 431 1026 l 340 1161 l 249 1026 l 179 1026 m 538 1458 q 522 1340 538 1372 q 451 1307 506 1307 q 397 1315 424 1307 q 333 1339 369 1324 q 306 1351 326 1342 q 269 1364 286 1360 q 240 1368 253 1368 q 214 1352 219 1368 q 208 1292 208 1336 l 147 1292 q 163 1410 147 1378 q 233 1443 179 1443 q 288 1434 260 1443 q 354 1410 317 1425 q 403 1390 379 1399 q 444 1382 428 1382 q 471 1398 465 1382 q 476 1458 476 1414 l 538 1458 z "},"Ȁ":{"ha":686,"x_min":25,"x_max":661,"o":"m 554 0 l 488 265 l 194 265 l 129 0 l 25 0 l 275 956 l 411 956 l 661 0 l 554 0 m 344 829 l 338 829 l 219 357 l 463 357 l 344 829 m 289 1049 l 225 1049 l 129 1213 l 129 1218 l 221 1218 l 289 1054 l 289 1049 m 474 1049 l 410 1049 l 313 1213 l 313 1218 l 406 1218 l 474 1054 l 474 1049 z "},"Ä":{"ha":686,"x_min":25,"x_max":661,"o":"m 554 0 l 488 265 l 194 265 l 129 0 l 25 0 l 275 956 l 411 956 l 661 0 l 554 0 m 344 829 l 338 829 l 219 357 l 463 357 l 344 829 m 172 1076 l 172 1182 l 267 1182 l 267 1076 l 172 1076 m 419 1076 l 419 1182 l 514 1182 l 514 1076 l 419 1076 z "},"Ạ":{"ha":686,"x_min":25,"x_max":661,"o":"m 554 0 l 488 265 l 194 265 l 129 0 l 25 0 l 275 956 l 411 956 l 661 0 l 554 0 m 344 829 l 338 829 l 219 357 l 463 357 l 344 829 m 286 -211 l 286 -86 l 400 -86 l 400 -211 l 286 -211 z "},"À":{"ha":686,"x_min":25,"x_max":661,"o":"m 554 0 l 488 265 l 194 265 l 129 0 l 25 0 l 275 956 l 411 956 l 661 0 l 554 0 m 344 829 l 338 829 l 219 357 l 463 357 l 344 829 m 322 1042 l 215 1231 l 215 1238 l 319 1238 l 394 1049 l 394 1042 l 322 1042 z "},"Ả":{"ha":686,"x_min":25,"x_max":661,"o":"m 554 0 l 488 265 l 194 265 l 129 0 l 25 0 l 275 956 l 411 956 l 661 0 l 554 0 m 344 829 l 338 829 l 219 357 l 463 357 l 344 829 m 279 1035 q 291 1081 279 1068 q 335 1104 303 1094 l 354 1111 q 396 1131 385 1121 q 407 1165 407 1142 q 401 1194 407 1185 q 378 1206 394 1203 q 324 1210 361 1210 q 206 1203 278 1210 l 206 1264 q 333 1275 286 1275 q 448 1253 415 1275 q 481 1174 481 1231 q 468 1110 481 1132 q 415 1074 456 1089 l 396 1067 q 352 1047 360 1054 q 344 1021 344 1040 l 279 1021 l 279 1035 z "},"Ȃ":{"ha":686,"x_min":25,"x_max":661,"o":"m 554 0 l 488 265 l 194 265 l 129 0 l 25 0 l 275 956 l 411 956 l 661 0 l 554 0 m 344 829 l 338 829 l 219 357 l 463 357 l 344 829 m 188 1044 q 197 1154 188 1114 q 240 1218 206 1194 q 344 1242 274 1242 q 447 1218 414 1242 q 490 1154 481 1194 q 499 1044 499 1114 l 429 1044 q 425 1123 429 1097 q 403 1163 421 1149 q 344 1178 385 1178 q 284 1163 303 1178 q 261 1123 265 1149 q 257 1044 257 1097 l 188 1044 z "},"Ā":{"ha":686,"x_min":25,"x_max":661,"o":"m 554 0 l 488 265 l 194 265 l 129 0 l 25 0 l 275 956 l 411 956 l 661 0 l 554 0 m 344 829 l 338 829 l 219 357 l 463 357 l 344 829 m 207 1142 l 207 1233 l 479 1233 l 479 1142 l 207 1142 z "},"Ą":{"ha":686,"x_min":25,"x_max":661,"o":"m 557 -147 q 619 -206 557 -206 q 643 -204 633 -206 l 643 -269 q 594 -272 624 -272 q 500 -244 529 -272 q 471 -167 471 -215 q 494 -81 471 -126 q 553 3 517 -35 l 488 265 l 194 265 l 129 0 l 25 0 l 275 956 l 411 956 l 661 0 l 635 0 q 581 -70 606 -28 q 557 -147 557 -112 m 218 356 l 463 356 l 344 829 l 338 829 l 218 356 z "},"Å":{"ha":686,"x_min":25,"x_max":661,"o":"m 661 0 l 554 0 l 488 265 l 194 265 l 129 0 l 25 0 l 272 951 q 213 988 225 960 q 200 1079 200 1015 q 208 1160 200 1133 q 247 1201 217 1188 q 342 1214 276 1214 q 438 1201 407 1214 q 477 1160 468 1188 q 486 1079 486 1133 q 472 990 486 1018 q 413 951 458 961 l 661 0 m 342 1157 q 292 1150 307 1157 q 274 1128 278 1143 q 269 1079 269 1113 q 274 1029 269 1044 q 292 1008 278 1014 q 342 1001 307 1001 q 393 1008 378 1001 q 413 1029 408 1014 q 417 1079 417 1044 q 413 1128 417 1113 q 392 1150 408 1143 q 342 1157 376 1157 m 219 357 l 463 357 l 344 829 l 338 829 l 219 357 z "},"Ǻ":{"ha":686,"x_min":25,"x_max":661,"o":"m 661 0 l 554 0 l 488 265 l 194 265 l 129 0 l 25 0 l 272 951 q 213 988 225 960 q 200 1079 200 1015 q 208 1160 200 1133 q 247 1201 217 1188 q 342 1214 276 1214 q 438 1201 407 1214 q 477 1160 468 1188 q 486 1079 486 1133 q 472 990 486 1018 q 413 951 458 961 l 661 0 m 342 1157 q 292 1150 307 1157 q 274 1128 278 1143 q 269 1079 269 1113 q 274 1029 269 1044 q 292 1008 278 1014 q 342 1001 307 1001 q 393 1008 378 1001 q 413 1029 408 1014 q 417 1079 417 1044 q 413 1128 417 1113 q 392 1150 408 1143 q 342 1157 376 1157 m 219 357 l 463 357 l 344 829 l 338 829 l 219 357 m 297 1296 l 297 1303 l 372 1492 l 476 1492 l 476 1485 l 369 1296 l 297 1296 z "},"Ã":{"ha":686,"x_min":25,"x_max":661,"o":"m 554 0 l 488 265 l 194 265 l 129 0 l 25 0 l 275 956 l 411 956 l 661 0 l 554 0 m 344 829 l 338 829 l 219 357 l 463 357 l 344 829 m 538 1208 q 522 1090 538 1122 q 451 1057 506 1057 q 397 1065 424 1057 q 333 1089 369 1074 q 306 1101 326 1092 q 269 1114 286 1110 q 240 1118 253 1118 q 214 1102 219 1118 q 208 1042 208 1086 l 147 1042 q 163 1160 147 1128 q 233 1193 179 1193 q 288 1184 260 1193 q 354 1160 317 1175 q 403 1140 379 1149 q 444 1132 428 1132 q 471 1148 465 1132 q 476 1208 476 1164 l 538 1208 z "},"Æ":{"ha":946,"x_min":-7,"x_max":893,"o":"m 522 0 l 478 265 l 188 265 l 97 0 l -7 0 l 332 956 l 893 956 l 893 864 l 485 864 l 540 528 l 846 528 l 846 438 l 556 438 l 613 92 l 893 92 l 893 0 l 522 0 m 389 828 l 382 828 l 221 357 l 464 357 l 389 828 z "},"Ǽ":{"ha":946,"x_min":-7,"x_max":893,"o":"m 522 0 l 478 265 l 188 265 l 97 0 l -7 0 l 332 956 l 893 956 l 893 864 l 485 864 l 540 528 l 846 528 l 846 438 l 556 438 l 613 92 l 893 92 l 893 0 l 522 0 m 389 828 l 382 828 l 221 357 l 464 357 l 389 828 m 429 1038 l 429 1044 l 504 1233 l 608 1233 l 608 1226 l 501 1038 l 429 1038 z "},"B":{"ha":683,"x_min":97,"x_max":617,"o":"m 97 956 l 388 956 q 557 894 506 956 q 608 717 608 833 q 574 563 608 618 q 467 492 540 508 l 467 486 q 585 409 553 468 q 617 251 617 350 q 567 67 617 135 q 382 0 517 0 l 97 0 l 97 956 m 358 531 q 468 571 432 531 q 504 697 504 611 q 492 795 504 760 q 448 847 479 831 q 358 864 417 864 l 200 864 l 200 531 l 358 531 m 363 92 q 480 131 449 92 q 511 264 511 169 q 478 399 511 360 q 363 439 444 439 l 200 439 l 200 92 l 363 92 z "},"C":{"ha":556,"x_min":74,"x_max":511,"o":"m 511 6 q 437 -6 481 -1 q 354 -11 393 -11 q 172 26 229 -11 q 94 163 114 64 q 74 478 74 263 q 94 791 74 692 q 172 928 114 890 q 354 967 229 967 q 436 961 393 967 q 507 947 479 956 l 507 863 q 376 875 429 875 q 242 850 281 875 q 191 747 203 825 q 179 478 179 669 q 191 208 179 286 q 242 106 203 131 q 376 81 281 81 q 511 93 446 81 l 511 6 z "},"Ć":{"ha":556,"x_min":74,"x_max":511,"o":"m 511 6 q 437 -6 481 -1 q 354 -11 393 -11 q 172 26 229 -11 q 94 163 114 64 q 74 478 74 263 q 94 791 74 692 q 172 928 114 890 q 354 967 229 967 q 436 961 393 967 q 507 947 479 956 l 507 863 q 376 875 429 875 q 242 850 281 875 q 191 747 203 825 q 179 478 179 669 q 191 208 179 286 q 242 106 203 131 q 376 81 281 81 q 511 93 446 81 l 511 6 m 233 1038 l 233 1044 l 308 1233 l 413 1233 l 413 1226 l 306 1038 l 233 1038 z "},"Č":{"ha":556,"x_min":74,"x_max":511,"o":"m 511 6 q 437 -6 481 -1 q 354 -11 393 -11 q 172 26 229 -11 q 94 163 114 64 q 74 478 74 263 q 94 791 74 692 q 172 928 114 890 q 354 967 229 967 q 436 961 393 967 q 507 947 479 956 l 507 863 q 376 875 429 875 q 242 850 281 875 q 191 747 203 825 q 179 478 179 669 q 191 208 179 286 q 242 106 203 131 q 376 81 281 81 q 511 93 446 81 l 511 6 m 224 1040 l 117 1225 l 117 1233 l 186 1233 l 278 1099 l 368 1233 l 438 1233 l 438 1225 l 331 1040 l 224 1040 z "},"Ç":{"ha":556,"x_min":74,"x_max":511,"o":"m 376 81 q 511 93 446 81 l 511 6 q 437 -6 481 -1 q 354 -11 393 -11 q 310 -10 324 -11 l 256 -264 l 158 -264 l 158 -257 l 240 -1 q 134 63 169 14 q 86 206 99 111 q 74 478 74 300 q 94 791 74 692 q 172 928 114 890 q 354 967 229 967 q 436 961 393 967 q 507 947 479 956 l 507 863 q 376 875 429 875 q 242 850 281 875 q 191 747 203 825 q 179 478 179 669 q 191 208 179 286 q 242 106 203 131 q 376 81 281 81 z "},"Ĉ":{"ha":556,"x_min":74,"x_max":511,"o":"m 511 6 q 437 -6 481 -1 q 354 -11 393 -11 q 172 26 229 -11 q 94 163 114 64 q 74 478 74 263 q 94 791 74 692 q 172 928 114 890 q 354 967 229 967 q 436 961 393 967 q 507 947 479 956 l 507 863 q 376 875 429 875 q 242 850 281 875 q 191 747 203 825 q 179 478 179 669 q 191 208 179 286 q 242 106 203 131 q 376 81 281 81 q 511 93 446 81 l 511 6 m 117 1042 l 117 1050 l 224 1233 l 332 1233 l 438 1050 l 438 1042 l 368 1042 l 278 1176 l 186 1042 l 117 1042 z "},"Ċ":{"ha":556,"x_min":74,"x_max":511,"o":"m 511 6 q 437 -6 481 -1 q 354 -11 393 -11 q 172 26 229 -11 q 94 163 114 64 q 74 478 74 263 q 94 791 74 692 q 172 928 114 890 q 354 967 229 967 q 436 961 393 967 q 507 947 479 956 l 507 863 q 376 875 429 875 q 242 850 281 875 q 191 747 203 825 q 179 478 179 669 q 191 208 179 286 q 242 106 203 131 q 376 81 281 81 q 511 93 446 81 l 511 6 m 229 1110 l 229 1215 l 324 1215 l 324 1110 l 229 1110 z "},"D":{"ha":690,"x_min":97,"x_max":617,"o":"m 97 956 l 325 956 q 523 919 464 956 q 599 790 582 883 q 617 478 617 696 q 599 166 617 260 q 523 36 582 72 q 325 0 464 0 l 97 0 l 97 956 m 321 92 q 452 112 417 92 q 500 207 488 132 q 513 478 513 282 q 500 748 513 672 q 451 844 488 824 q 321 864 415 864 l 200 864 l 200 92 l 321 92 z "},"Ǳ":{"ha":1279,"x_min":97,"x_max":1240,"o":"m 97 956 l 325 956 q 523 919 464 956 q 599 790 582 883 q 617 478 617 696 q 599 166 617 260 q 523 36 582 72 q 325 0 464 0 l 97 0 l 97 956 m 321 92 q 452 112 417 92 q 500 207 488 132 q 513 478 513 282 q 500 748 513 672 q 451 844 488 824 q 321 864 415 864 l 200 864 l 200 92 l 321 92 m 731 0 l 731 86 l 1111 864 l 742 864 l 742 956 l 1235 956 l 1235 869 l 853 92 l 1240 92 l 1240 0 l 731 0 z "},"Ǆ":{"ha":1279,"x_min":97,"x_max":1240,"o":"m 97 956 l 325 956 q 523 919 464 956 q 599 790 582 883 q 617 478 617 696 q 599 166 617 260 q 523 36 582 72 q 325 0 464 0 l 97 0 l 97 956 m 321 92 q 452 112 417 92 q 500 207 488 132 q 513 478 513 282 q 500 748 513 672 q 451 844 488 824 q 321 864 415 864 l 200 864 l 200 92 l 321 92 m 731 0 l 731 86 l 1111 864 l 742 864 l 742 956 l 1235 956 l 1235 869 l 853 92 l 1240 92 l 1240 0 l 731 0 m 929 1040 l 822 1225 l 822 1233 l 892 1233 l 983 1099 l 1074 1233 l 1143 1233 l 1143 1225 l 1036 1040 l 929 1040 z "},"Ð":{"ha":690,"x_min":17,"x_max":617,"o":"m 97 440 l 17 440 l 17 528 l 97 528 l 97 956 l 325 956 q 523 919 464 956 q 599 790 582 883 q 617 478 617 696 q 599 166 617 260 q 523 36 582 72 q 325 0 464 0 l 97 0 l 97 440 m 321 92 q 452 112 417 92 q 500 207 488 132 q 513 478 513 282 q 500 748 513 672 q 451 844 488 824 q 321 864 415 864 l 200 864 l 200 528 l 344 528 l 344 440 l 200 440 l 200 92 l 321 92 z "},"Ď":{"ha":690,"x_min":97,"x_max":617,"o":"m 97 956 l 325 956 q 523 919 464 956 q 599 790 582 883 q 617 478 617 696 q 599 166 617 260 q 523 36 582 72 q 325 0 464 0 l 97 0 l 97 956 m 321 92 q 452 112 417 92 q 500 207 488 132 q 513 478 513 282 q 500 748 513 672 q 451 844 488 824 q 321 864 415 864 l 200 864 l 200 92 l 321 92 m 292 1040 l 185 1225 l 185 1233 l 254 1233 l 346 1099 l 436 1233 l 506 1233 l 506 1225 l 399 1040 l 292 1040 z "},"Đ":{"ha":690,"x_min":17,"x_max":617,"o":"m 97 440 l 17 440 l 17 528 l 97 528 l 97 956 l 325 956 q 523 919 464 956 q 599 790 582 883 q 617 478 617 696 q 599 166 617 260 q 523 36 582 72 q 325 0 464 0 l 97 0 l 97 440 m 321 92 q 452 112 417 92 q 500 207 488 132 q 513 478 513 282 q 500 748 513 672 q 451 844 488 824 q 321 864 415 864 l 200 864 l 200 528 l 344 528 l 344 440 l 200 440 l 200 92 l 321 92 z "},"Ḍ":{"ha":690,"x_min":97,"x_max":617,"o":"m 97 956 l 325 956 q 523 919 464 956 q 599 790 582 883 q 617 478 617 696 q 599 166 617 260 q 523 36 582 72 q 325 0 464 0 l 97 0 l 97 956 m 321 92 q 452 112 417 92 q 500 207 488 132 q 513 478 513 282 q 500 748 513 672 q 451 844 488 824 q 321 864 415 864 l 200 864 l 200 92 l 321 92 m 289 -211 l 289 -86 l 403 -86 l 403 -211 l 289 -211 z "},"ǲ":{"ha":1208,"x_min":97,"x_max":1161,"o":"m 97 956 l 325 956 q 523 919 464 956 q 599 790 582 883 q 617 478 617 696 q 599 166 617 260 q 523 36 582 72 q 325 0 464 0 l 97 0 l 97 956 m 321 92 q 452 112 417 92 q 500 207 488 132 q 513 478 513 282 q 500 748 513 672 q 451 844 488 824 q 321 864 415 864 l 200 864 l 200 92 l 321 92 m 738 0 l 738 78 l 1040 624 l 749 624 l 749 708 l 1160 708 l 1160 632 l 856 85 l 1161 85 l 1161 0 l 738 0 z "},"ǅ":{"ha":1208,"x_min":97,"x_max":1161,"o":"m 97 956 l 325 956 q 523 919 464 956 q 599 790 582 883 q 617 478 617 696 q 599 166 617 260 q 523 36 582 72 q 325 0 464 0 l 97 0 l 97 956 m 321 92 q 452 112 417 92 q 500 207 488 132 q 513 478 513 282 q 500 748 513 672 q 451 844 488 824 q 321 864 415 864 l 200 864 l 200 92 l 321 92 m 738 0 l 738 78 l 1040 624 l 749 624 l 749 708 l 1160 708 l 1160 632 l 856 85 l 1161 85 l 1161 0 l 738 0 m 906 839 l 799 1024 l 799 1032 l 868 1032 l 960 897 l 1050 1032 l 1119 1032 l 1119 1024 l 1013 839 l 906 839 z "},"E":{"ha":601,"x_min":97,"x_max":549,"o":"m 97 0 l 97 956 l 549 956 l 549 864 l 201 864 l 201 529 l 503 529 l 503 438 l 201 438 l 201 92 l 549 92 l 549 0 l 97 0 z "},"É":{"ha":600,"x_min":97,"x_max":549,"o":"m 97 0 l 97 956 l 549 956 l 549 864 l 201 864 l 201 529 l 503 529 l 503 438 l 201 438 l 201 92 l 549 92 l 549 0 l 97 0 m 289 1042 l 289 1049 l 364 1238 l 468 1238 l 468 1231 l 361 1042 l 289 1042 z "},"Ĕ":{"ha":601,"x_min":97,"x_max":549,"o":"m 97 0 l 97 956 l 549 956 l 549 864 l 201 864 l 201 529 l 503 529 l 503 438 l 201 438 l 201 92 l 549 92 l 549 0 l 97 0 m 475 1233 q 466 1124 475 1164 q 423 1060 457 1083 q 318 1036 389 1036 q 215 1060 249 1036 q 173 1124 182 1083 q 164 1233 164 1164 l 233 1233 q 238 1155 233 1181 q 260 1115 242 1129 q 318 1100 278 1100 q 378 1115 360 1100 q 401 1155 397 1129 q 406 1233 406 1181 l 475 1233 z "},"Ě":{"ha":601,"x_min":97,"x_max":549,"o":"m 97 0 l 97 956 l 549 956 l 549 864 l 201 864 l 201 529 l 503 529 l 503 438 l 201 438 l 201 92 l 549 92 l 549 0 l 97 0 m 267 1040 l 160 1225 l 160 1233 l 229 1233 l 321 1099 l 411 1233 l 481 1233 l 481 1225 l 374 1040 l 267 1040 z "},"Ê":{"ha":600,"x_min":97,"x_max":549,"o":"m 97 0 l 97 956 l 549 956 l 549 864 l 201 864 l 201 529 l 503 529 l 503 438 l 201 438 l 201 92 l 549 92 l 549 0 l 97 0 m 160 1042 l 160 1050 l 267 1233 l 375 1233 l 481 1050 l 481 1042 l 411 1042 l 321 1176 l 229 1042 l 160 1042 z "},"Ế":{"ha":601,"x_min":97,"x_max":560,"o":"m 97 0 l 97 956 l 549 956 l 549 864 l 201 864 l 201 529 l 503 529 l 503 438 l 201 438 l 201 92 l 549 92 l 549 0 l 97 0 m 158 1032 l 158 1040 l 265 1224 l 374 1224 l 479 1040 l 479 1032 l 410 1032 l 319 1167 l 228 1032 l 158 1032 m 381 1240 l 381 1247 l 456 1436 l 560 1436 l 560 1429 l 453 1240 l 381 1240 z "},"Ệ":{"ha":601,"x_min":97,"x_max":549,"o":"m 97 0 l 97 956 l 549 956 l 549 864 l 201 864 l 201 529 l 503 529 l 503 438 l 201 438 l 201 92 l 549 92 l 549 0 l 97 0 m 264 -211 l 264 -86 l 378 -86 l 378 -211 l 264 -211 m 160 1042 l 160 1050 l 267 1233 l 375 1233 l 481 1050 l 481 1042 l 411 1042 l 321 1176 l 229 1042 l 160 1042 z "},"Ề":{"ha":601,"x_min":97,"x_max":549,"o":"m 97 0 l 97 956 l 549 956 l 549 864 l 201 864 l 201 529 l 503 529 l 503 438 l 201 438 l 201 92 l 549 92 l 549 0 l 97 0 m 157 1025 l 157 1033 l 264 1217 l 372 1217 l 478 1033 l 478 1025 l 408 1025 l 318 1160 l 226 1025 l 157 1025 m 404 1233 l 297 1422 l 297 1429 l 401 1429 l 476 1240 l 476 1233 l 404 1233 z "},"Ể":{"ha":601,"x_min":97,"x_max":571,"o":"m 97 0 l 97 956 l 549 956 l 549 864 l 201 864 l 201 529 l 503 529 l 503 438 l 201 438 l 201 92 l 549 92 l 549 0 l 97 0 m 160 1026 l 160 1035 l 267 1218 l 375 1218 l 481 1035 l 481 1026 l 411 1026 l 321 1161 l 229 1026 l 160 1026 m 369 1243 q 381 1290 369 1276 q 425 1313 393 1303 l 444 1319 q 486 1340 475 1329 q 497 1374 497 1350 q 491 1402 497 1393 q 468 1415 485 1411 q 414 1418 451 1418 q 296 1411 368 1418 l 296 1472 q 424 1483 376 1483 q 538 1461 506 1483 q 571 1382 571 1439 q 558 1319 571 1340 q 506 1283 546 1297 l 486 1275 q 442 1256 450 1263 q 435 1229 435 1249 l 369 1229 l 369 1243 z "},"Ễ":{"ha":601,"x_min":97,"x_max":549,"o":"m 97 0 l 97 956 l 549 956 l 549 864 l 201 864 l 201 529 l 503 529 l 503 438 l 201 438 l 201 92 l 549 92 l 549 0 l 97 0 m 157 1026 l 157 1035 l 264 1218 l 372 1218 l 478 1035 l 478 1026 l 408 1026 l 318 1161 l 226 1026 l 157 1026 m 515 1458 q 499 1340 515 1372 q 429 1307 483 1307 q 374 1315 401 1307 q 311 1339 347 1324 q 284 1351 304 1342 q 247 1364 264 1360 q 218 1368 231 1368 q 192 1352 197 1368 q 186 1292 186 1336 l 125 1292 q 141 1410 125 1378 q 211 1443 157 1443 q 266 1434 238 1443 q 332 1410 294 1425 q 381 1390 357 1399 q 422 1382 406 1382 q 449 1398 443 1382 q 454 1458 454 1414 l 515 1458 z "},"Ȅ":{"ha":601,"x_min":97,"x_max":549,"o":"m 97 0 l 97 956 l 549 956 l 549 864 l 201 864 l 201 529 l 503 529 l 503 438 l 201 438 l 201 92 l 549 92 l 549 0 l 97 0 m 267 1049 l 203 1049 l 107 1213 l 107 1218 l 199 1218 l 267 1054 l 267 1049 m 451 1049 l 388 1049 l 290 1213 l 290 1218 l 383 1218 l 451 1054 l 451 1049 z "},"Ë":{"ha":600,"x_min":97,"x_max":549,"o":"m 97 0 l 97 956 l 549 956 l 549 864 l 201 864 l 201 529 l 503 529 l 503 438 l 201 438 l 201 92 l 549 92 l 549 0 l 97 0 m 153 1075 l 153 1181 l 247 1181 l 247 1075 l 153 1075 m 400 1075 l 400 1181 l 494 1181 l 494 1075 l 400 1075 z "},"Ė":{"ha":601,"x_min":97,"x_max":549,"o":"m 97 0 l 97 956 l 549 956 l 549 864 l 201 864 l 201 529 l 503 529 l 503 438 l 201 438 l 201 92 l 549 92 l 549 0 l 97 0 m 272 1110 l 272 1215 l 367 1215 l 367 1110 l 272 1110 z "},"Ẹ":{"ha":601,"x_min":97,"x_max":549,"o":"m 97 0 l 97 956 l 549 956 l 549 864 l 201 864 l 201 529 l 503 529 l 503 438 l 201 438 l 201 92 l 549 92 l 549 0 l 97 0 m 264 -211 l 264 -86 l 378 -86 l 378 -211 l 264 -211 z "},"È":{"ha":600,"x_min":97,"x_max":549,"o":"m 97 0 l 97 956 l 549 956 l 549 864 l 201 864 l 201 529 l 503 529 l 503 438 l 201 438 l 201 92 l 549 92 l 549 0 l 97 0 m 306 1042 l 199 1231 l 199 1238 l 303 1238 l 378 1049 l 378 1042 l 306 1042 z "},"Ẻ":{"ha":601,"x_min":97,"x_max":549,"o":"m 97 0 l 97 956 l 549 956 l 549 864 l 201 864 l 201 529 l 503 529 l 503 438 l 201 438 l 201 92 l 549 92 l 549 0 l 97 0 m 257 1035 q 269 1081 257 1068 q 313 1104 281 1094 l 332 1111 q 374 1131 363 1121 q 385 1165 385 1142 q 378 1194 385 1185 q 356 1206 372 1203 q 301 1210 339 1210 q 183 1203 256 1210 l 183 1264 q 311 1275 264 1275 q 426 1253 393 1275 q 458 1174 458 1231 q 446 1110 458 1132 q 393 1074 433 1089 l 374 1067 q 330 1047 338 1054 q 322 1021 322 1040 l 257 1021 l 257 1035 z "},"Ȇ":{"ha":601,"x_min":97,"x_max":549,"o":"m 97 0 l 97 956 l 549 956 l 549 864 l 201 864 l 201 529 l 503 529 l 503 438 l 201 438 l 201 92 l 549 92 l 549 0 l 97 0 m 165 1044 q 174 1154 165 1114 q 217 1218 183 1194 q 322 1242 251 1242 q 425 1218 392 1242 q 467 1154 458 1194 q 476 1044 476 1114 l 407 1044 q 403 1123 407 1097 q 381 1163 399 1149 q 322 1178 363 1178 q 262 1163 281 1178 q 239 1123 243 1149 q 235 1044 235 1097 l 165 1044 z "},"Ē":{"ha":601,"x_min":97,"x_max":549,"o":"m 97 0 l 97 956 l 549 956 l 549 864 l 201 864 l 201 529 l 503 529 l 503 438 l 201 438 l 201 92 l 549 92 l 549 0 l 97 0 m 185 1142 l 185 1233 l 457 1233 l 457 1142 l 185 1142 z "},"Ę":{"ha":600,"x_min":97,"x_max":547,"o":"m 492 -272 q 397 -244 426 -272 q 368 -171 368 -215 q 393 -83 368 -126 q 461 0 418 -39 l 97 0 l 97 956 l 547 956 l 547 864 l 201 864 l 201 529 l 501 529 l 501 438 l 201 438 l 201 92 l 547 92 l 547 0 q 483 -68 513 -25 q 453 -149 453 -111 q 468 -190 453 -174 q 515 -206 483 -206 q 540 -204 531 -206 l 540 -269 q 492 -272 510 -272 z "},"Ẽ":{"ha":601,"x_min":97,"x_max":549,"o":"m 97 0 l 97 956 l 549 956 l 549 864 l 201 864 l 201 529 l 503 529 l 503 438 l 201 438 l 201 92 l 549 92 l 549 0 l 97 0 m 515 1233 q 499 1115 515 1147 q 429 1082 483 1082 q 374 1090 401 1082 q 311 1114 347 1099 q 284 1126 304 1117 q 247 1139 264 1135 q 218 1143 231 1143 q 192 1127 197 1143 q 186 1067 186 1111 l 125 1067 q 141 1185 125 1153 q 211 1218 157 1218 q 266 1209 238 1218 q 332 1185 294 1200 q 381 1165 357 1174 q 422 1157 406 1157 q 449 1173 443 1157 q 454 1233 454 1189 l 515 1233 z "},"F":{"ha":567,"x_min":97,"x_max":528,"o":"m 97 0 l 97 956 l 528 956 l 528 864 l 201 864 l 201 507 l 492 507 l 492 417 l 201 417 l 201 0 l 97 0 z "},"G":{"ha":671,"x_min":74,"x_max":593,"o":"m 350 419 l 350 508 l 593 508 l 593 15 q 481 -3 544 4 q 369 -11 418 -11 q 182 26 243 -11 q 97 164 121 63 q 74 478 74 265 q 97 789 74 688 q 182 928 121 890 q 371 967 243 967 q 490 958 426 967 q 590 940 553 950 l 590 854 q 499 869 553 863 q 414 875 446 875 q 257 854 301 875 q 196 754 213 833 q 179 478 179 675 q 192 217 179 297 q 243 108 204 138 q 371 79 282 79 q 492 90 443 79 l 492 419 l 350 419 z "},"Ǵ":{"ha":671,"x_min":74,"x_max":593,"o":"m 350 419 l 350 508 l 593 508 l 593 15 q 481 -3 544 4 q 369 -11 418 -11 q 182 26 243 -11 q 97 164 121 63 q 74 478 74 265 q 97 789 74 688 q 182 928 121 890 q 371 967 243 967 q 490 958 426 967 q 590 940 553 950 l 590 854 q 499 869 553 863 q 414 875 446 875 q 257 854 301 875 q 196 754 213 833 q 179 478 179 675 q 192 217 179 297 q 243 108 204 138 q 371 79 282 79 q 492 90 443 79 l 492 419 l 350 419 m 292 1038 l 292 1044 l 367 1233 l 471 1233 l 471 1226 l 364 1038 l 292 1038 z "},"Ğ":{"ha":671,"x_min":74,"x_max":593,"o":"m 350 419 l 350 508 l 593 508 l 593 15 q 481 -3 544 4 q 369 -11 418 -11 q 182 26 243 -11 q 97 164 121 63 q 74 478 74 265 q 97 789 74 688 q 182 928 121 890 q 371 967 243 967 q 490 958 426 967 q 590 940 553 950 l 590 854 q 499 869 553 863 q 414 875 446 875 q 257 854 301 875 q 196 754 213 833 q 179 478 179 675 q 192 217 179 297 q 243 108 204 138 q 371 79 282 79 q 492 90 443 79 l 492 419 l 350 419 m 490 1233 q 481 1124 490 1164 q 438 1060 472 1083 q 333 1036 404 1036 q 231 1060 264 1036 q 188 1124 197 1083 q 179 1233 179 1164 l 249 1233 q 253 1155 249 1181 q 275 1115 257 1129 q 333 1100 293 1100 q 394 1115 375 1100 q 417 1155 413 1129 q 421 1233 421 1181 l 490 1233 z "},"Ǧ":{"ha":671,"x_min":74,"x_max":593,"o":"m 350 419 l 350 508 l 593 508 l 593 15 q 481 -3 544 4 q 369 -11 418 -11 q 182 26 243 -11 q 97 164 121 63 q 74 478 74 265 q 97 789 74 688 q 182 928 121 890 q 371 967 243 967 q 490 958 426 967 q 590 940 553 950 l 590 854 q 499 869 553 863 q 414 875 446 875 q 257 854 301 875 q 196 754 213 833 q 179 478 179 675 q 192 217 179 297 q 243 108 204 138 q 371 79 282 79 q 492 90 443 79 l 492 419 l 350 419 m 282 1040 l 175 1225 l 175 1233 l 244 1233 l 336 1099 l 426 1233 l 496 1233 l 496 1225 l 389 1040 l 282 1040 z "},"Ĝ":{"ha":671,"x_min":74,"x_max":593,"o":"m 350 419 l 350 508 l 593 508 l 593 15 q 481 -3 544 4 q 369 -11 418 -11 q 182 26 243 -11 q 97 164 121 63 q 74 478 74 265 q 97 789 74 688 q 182 928 121 890 q 371 967 243 967 q 490 958 426 967 q 590 940 553 950 l 590 854 q 499 869 553 863 q 414 875 446 875 q 257 854 301 875 q 196 754 213 833 q 179 478 179 675 q 192 217 179 297 q 243 108 204 138 q 371 79 282 79 q 492 90 443 79 l 492 419 l 350 419 m 175 1042 l 175 1050 l 282 1233 l 390 1233 l 496 1050 l 496 1042 l 426 1042 l 336 1176 l 244 1042 l 175 1042 z "},"Ģ":{"ha":671,"x_min":74,"x_max":593,"o":"m 350 419 l 350 508 l 593 508 l 593 15 q 481 -3 544 4 q 369 -11 418 -11 q 182 26 243 -11 q 97 164 121 63 q 74 478 74 265 q 97 789 74 688 q 182 928 121 890 q 371 967 243 967 q 490 958 426 967 q 590 940 553 950 l 590 854 q 499 869 553 863 q 414 875 446 875 q 257 854 301 875 q 196 754 213 833 q 179 478 179 675 q 192 217 179 297 q 243 108 204 138 q 371 79 282 79 q 492 90 443 79 l 492 419 l 350 419 m 268 -306 q 326 -290 314 -306 q 339 -228 339 -275 l 339 -206 l 293 -206 l 293 -86 l 404 -86 l 404 -194 q 394 -294 404 -261 q 356 -340 385 -326 q 268 -353 328 -353 l 268 -306 z "},"Ġ":{"ha":671,"x_min":74,"x_max":593,"o":"m 350 419 l 350 508 l 593 508 l 593 15 q 481 -3 544 4 q 369 -11 418 -11 q 182 26 243 -11 q 97 164 121 63 q 74 478 74 265 q 97 789 74 688 q 182 928 121 890 q 371 967 243 967 q 490 958 426 967 q 590 940 553 950 l 590 854 q 499 869 553 863 q 414 875 446 875 q 257 854 301 875 q 196 754 213 833 q 179 478 179 675 q 192 217 179 297 q 243 108 204 138 q 371 79 282 79 q 492 90 443 79 l 492 419 l 350 419 m 288 1110 l 288 1215 l 382 1215 l 382 1110 l 288 1110 z "},"H":{"ha":732,"x_min":97,"x_max":635,"o":"m 532 0 l 532 435 l 200 435 l 200 0 l 97 0 l 97 956 l 200 956 l 200 529 l 532 529 l 532 956 l 635 956 l 635 0 l 532 0 z "},"Ħ":{"ha":732,"x_min":97,"x_max":635,"o":"m 532 956 l 635 956 l 635 0 l 532 0 l 532 396 l 200 396 l 200 0 l 97 0 l 97 956 l 200 956 l 200 761 l 532 761 l 532 956 m 200 490 l 532 490 l 532 674 l 200 674 l 200 490 z "},"Ĥ":{"ha":732,"x_min":97,"x_max":635,"o":"m 532 0 l 532 435 l 200 435 l 200 0 l 97 0 l 97 956 l 200 956 l 200 529 l 532 529 l 532 956 l 635 956 l 635 0 l 532 0 m 206 1042 l 206 1050 l 313 1233 l 421 1233 l 526 1050 l 526 1042 l 457 1042 l 367 1176 l 275 1042 l 206 1042 z "},"Ḥ":{"ha":732,"x_min":97,"x_max":635,"o":"m 532 0 l 532 435 l 200 435 l 200 0 l 97 0 l 97 956 l 200 956 l 200 529 l 532 529 l 532 956 l 635 956 l 635 0 l 532 0 m 310 -211 l 310 -86 l 424 -86 l 424 -211 l 310 -211 z "},"I":{"ha":306,"x_min":101,"x_max":206,"o":"m 101 0 l 101 956 l 206 956 l 206 0 l 101 0 z "},"Ĳ":{"ha":653,"x_min":101,"x_max":563,"o":"m 101 0 l 101 956 l 206 956 l 206 0 l 101 0 m 328 88 q 423 103 399 90 q 453 158 447 115 q 458 329 458 200 l 458 956 l 563 956 l 563 356 q 550 106 563 172 q 494 21 538 40 q 328 0 450 1 l 328 88 z "},"Í":{"ha":306,"x_min":101,"x_max":281,"o":"m 101 0 l 101 956 l 206 956 l 206 0 l 101 0 m 101 1040 l 101 1047 l 176 1236 l 281 1236 l 281 1229 l 174 1040 l 101 1040 z "},"Ĭ":{"ha":306,"x_min":-4,"x_max":307,"o":"m 101 0 l 101 956 l 206 956 l 206 0 l 101 0 m 307 1233 q 298 1124 307 1164 q 255 1060 289 1083 q 150 1036 221 1036 q 47 1060 81 1036 q 5 1124 14 1083 q -4 1233 -4 1164 l 65 1233 q 69 1155 65 1181 q 92 1115 74 1129 q 150 1100 110 1100 q 210 1115 192 1100 q 233 1155 229 1129 q 238 1233 238 1181 l 307 1233 z "},"Ǐ":{"ha":306,"x_min":-8,"x_max":313,"o":"m 101 0 l 101 956 l 206 956 l 206 0 l 101 0 m 99 1040 l -8 1225 l -8 1233 l 61 1233 l 153 1099 l 243 1233 l 313 1233 l 313 1225 l 206 1040 l 99 1040 z "},"Î":{"ha":306,"x_min":-8,"x_max":313,"o":"m 101 0 l 101 956 l 206 956 l 206 0 l 101 0 m -8 1042 l -8 1050 l 99 1233 l 207 1233 l 313 1050 l 313 1042 l 243 1042 l 153 1176 l 61 1042 l -8 1042 z "},"Ȉ":{"ha":306,"x_min":-61,"x_max":283,"o":"m 101 0 l 101 956 l 206 956 l 206 0 l 101 0 m 99 1049 l 35 1049 l -61 1213 l -61 1218 l 31 1218 l 99 1054 l 99 1049 m 283 1049 l 219 1049 l 122 1213 l 122 1218 l 215 1218 l 283 1054 l 283 1049 z "},"Ï":{"ha":306,"x_min":-17,"x_max":325,"o":"m 101 0 l 101 956 l 206 956 l 206 0 l 101 0 m -17 1075 l -17 1181 l 78 1181 l 78 1075 l -17 1075 m 231 1075 l 231 1181 l 325 1181 l 325 1075 l 231 1075 z "},"İ":{"ha":306,"x_min":101,"x_max":206,"o":"m 101 0 l 101 956 l 206 956 l 206 0 l 101 0 m 104 1110 l 104 1215 l 199 1215 l 199 1110 l 104 1110 z "},"Ị":{"ha":306,"x_min":96,"x_max":210,"o":"m 101 0 l 101 956 l 206 956 l 206 0 l 101 0 m 96 -211 l 96 -86 l 210 -86 l 210 -211 l 96 -211 z "},"Ì":{"ha":306,"x_min":28,"x_max":207,"o":"m 101 0 l 101 956 l 206 956 l 206 0 l 101 0 m 135 1042 l 28 1231 l 28 1238 l 132 1238 l 207 1049 l 207 1042 l 135 1042 z "},"Ỉ":{"ha":306,"x_min":15,"x_max":290,"o":"m 101 0 l 101 956 l 206 956 l 206 0 l 101 0 m 89 1035 q 101 1081 89 1068 q 144 1104 113 1094 l 164 1111 q 206 1131 194 1121 q 217 1165 217 1142 q 210 1194 217 1185 q 188 1206 204 1203 q 133 1210 171 1210 q 15 1203 88 1210 l 15 1264 q 143 1275 96 1275 q 258 1253 225 1275 q 290 1174 290 1231 q 278 1110 290 1132 q 225 1074 265 1089 l 206 1067 q 162 1047 169 1054 q 154 1021 154 1040 l 89 1021 l 89 1035 z "},"Ȋ":{"ha":306,"x_min":-3,"x_max":308,"o":"m 101 0 l 101 956 l 206 956 l 206 0 l 101 0 m -3 1044 q 6 1154 -3 1114 q 49 1218 15 1194 q 154 1242 83 1242 q 257 1218 224 1242 q 299 1154 290 1194 q 308 1044 308 1114 l 239 1044 q 235 1123 239 1097 q 213 1163 231 1149 q 154 1178 194 1178 q 94 1163 113 1178 q 71 1123 75 1149 q 67 1044 67 1097 l -3 1044 z "},"Ī":{"ha":306,"x_min":17,"x_max":289,"o":"m 101 0 l 101 956 l 206 956 l 206 0 l 101 0 m 17 1142 l 17 1233 l 289 1233 l 289 1142 l 17 1142 z "},"Į":{"ha":306,"x_min":35,"x_max":207,"o":"m 158 -272 q 64 -244 93 -272 q 35 -167 35 -215 q 58 -81 35 -126 q 119 0 82 -36 l 101 0 l 101 956 l 206 956 l 206 0 q 147 -68 175 -25 q 119 -147 119 -111 q 183 -206 119 -206 q 207 -204 197 -206 l 207 -269 q 158 -272 176 -272 z "},"Ĩ":{"ha":306,"x_min":-43,"x_max":347,"o":"m 101 0 l 101 956 l 206 956 l 206 0 l 101 0 m 347 1233 q 331 1115 347 1147 q 261 1082 315 1082 q 206 1090 233 1082 q 143 1114 179 1099 q 116 1126 136 1117 q 79 1139 96 1135 q 50 1143 63 1143 q 24 1127 29 1143 q 18 1067 18 1111 l -43 1067 q -27 1185 -43 1153 q 43 1218 -11 1218 q 98 1209 69 1218 q 164 1185 126 1200 q 213 1165 189 1174 q 254 1157 238 1157 q 281 1173 275 1157 q 286 1233 286 1189 l 347 1233 z "},"J":{"ha":347,"x_min":22,"x_max":257,"o":"m 22 88 q 117 103 93 90 q 147 158 142 115 q 153 329 153 200 l 153 956 l 257 956 l 257 356 q 244 106 257 172 q 188 21 232 40 q 22 0 144 1 l 22 88 z "},"Ĵ":{"ha":347,"x_min":22,"x_max":365,"o":"m 22 88 q 117 103 93 90 q 147 158 142 115 q 153 329 153 200 l 153 956 l 257 956 l 257 356 q 244 106 257 172 q 188 21 232 40 q 22 0 144 1 l 22 88 m 44 1042 l 44 1050 l 151 1233 l 260 1233 l 365 1050 l 365 1042 l 296 1042 l 206 1176 l 114 1042 l 44 1042 z "},"K":{"ha":668,"x_min":97,"x_max":649,"o":"m 533 0 l 308 439 l 201 439 l 201 0 l 97 0 l 97 956 l 201 956 l 201 531 l 308 531 l 533 956 l 646 956 l 394 490 l 649 0 l 533 0 z "},"Ķ":{"ha":668,"x_min":97,"x_max":649,"o":"m 533 0 l 308 439 l 201 439 l 201 0 l 97 0 l 97 956 l 201 956 l 201 531 l 308 531 l 533 956 l 646 956 l 394 490 l 649 0 l 533 0 m 267 -306 q 325 -290 313 -306 q 338 -228 338 -275 l 338 -206 l 292 -206 l 292 -86 l 403 -86 l 403 -194 q 393 -294 403 -261 q 355 -340 383 -326 q 267 -353 326 -353 l 267 -306 z "},"L":{"ha":526,"x_min":97,"x_max":510,"o":"m 97 0 l 97 956 l 201 956 l 201 94 l 510 94 l 510 0 l 97 0 z "},"Ǉ":{"ha":874,"x_min":97,"x_max":783,"o":"m 97 0 l 97 956 l 201 956 l 201 94 l 510 94 l 510 0 l 97 0 m 549 88 q 644 103 619 90 q 674 158 668 115 q 679 329 679 200 l 679 956 l 783 956 l 783 356 q 771 106 783 172 q 715 21 758 40 q 549 0 671 1 l 549 88 z "},"Ĺ":{"ha":526,"x_min":97,"x_max":510,"o":"m 97 0 l 97 956 l 201 956 l 201 94 l 510 94 l 510 0 l 97 0 m 128 1038 l 128 1044 l 203 1233 l 307 1233 l 307 1226 l 200 1038 l 128 1038 z "},"Ľ":{"ha":526,"x_min":97,"x_max":510,"o":"m 97 0 l 97 956 l 201 956 l 201 94 l 510 94 l 510 0 l 97 0 m 368 654 l 388 885 l 388 992 l 485 992 l 485 885 l 436 654 l 368 654 z "},"Ļ":{"ha":526,"x_min":97,"x_max":510,"o":"m 97 0 l 97 956 l 201 956 l 201 94 l 510 94 l 510 0 l 97 0 m 210 -306 q 268 -290 256 -306 q 281 -228 281 -275 l 281 -206 l 235 -206 l 235 -86 l 346 -86 l 346 -194 q 336 -294 346 -261 q 298 -340 326 -326 q 210 -353 269 -353 l 210 -306 z "},"Ŀ":{"ha":526,"x_min":97,"x_max":510,"o":"m 97 0 l 97 956 l 201 956 l 201 94 l 510 94 l 510 0 l 97 0 m 372 438 l 372 563 l 486 563 l 486 438 l 372 438 z "},"ǈ":{"ha":799,"x_min":97,"x_max":715,"o":"m 97 0 l 97 956 l 201 956 l 201 94 l 510 94 l 510 0 l 97 0 m 611 917 l 611 1032 l 715 1032 l 715 917 l 611 917 m 518 -190 q 583 -183 563 -190 q 608 -161 603 -176 q 614 -112 614 -146 l 614 708 l 713 708 l 713 -85 q 694 -208 713 -169 q 638 -257 676 -246 q 518 -268 600 -268 l 518 -190 z "},"Ł":{"ha":526,"x_min":29,"x_max":510,"o":"m 201 94 l 510 94 l 510 0 l 97 0 l 97 392 l 29 367 l 29 451 l 97 476 l 97 956 l 201 956 l 201 515 l 394 586 l 394 501 l 201 431 l 201 94 z "},"M":{"ha":924,"x_min":97,"x_max":826,"o":"m 725 0 l 725 774 l 719 774 l 507 0 l 413 0 l 201 774 l 196 774 l 196 0 l 97 0 l 97 956 l 247 956 l 458 179 l 467 179 l 679 956 l 826 956 l 826 0 l 725 0 z "},"N":{"ha":733,"x_min":97,"x_max":636,"o":"m 532 0 l 203 735 l 197 735 l 197 0 l 97 0 l 97 956 l 207 956 l 531 233 l 536 233 l 536 956 l 636 956 l 636 0 l 532 0 z "},"Ǌ":{"ha":1081,"x_min":97,"x_max":990,"o":"m 532 0 l 203 735 l 197 735 l 197 0 l 97 0 l 97 956 l 207 956 l 531 233 l 536 233 l 536 956 l 636 956 l 636 0 l 532 0 m 756 88 q 851 103 826 90 q 881 158 875 115 q 886 329 886 200 l 886 956 l 990 956 l 990 356 q 978 106 990 172 q 922 21 965 40 q 756 0 878 1 l 756 88 z "},"Ń":{"ha":733,"x_min":97,"x_max":636,"o":"m 532 0 l 203 735 l 197 735 l 197 0 l 97 0 l 97 956 l 207 956 l 531 233 l 536 233 l 536 956 l 636 956 l 636 0 l 532 0 m 322 1038 l 322 1044 l 397 1233 l 501 1233 l 501 1226 l 394 1038 l 322 1038 z "},"Ň":{"ha":733,"x_min":97,"x_max":636,"o":"m 532 0 l 203 735 l 197 735 l 197 0 l 97 0 l 97 956 l 207 956 l 531 233 l 536 233 l 536 956 l 636 956 l 636 0 l 532 0 m 313 1040 l 206 1225 l 206 1233 l 275 1233 l 367 1099 l 457 1233 l 526 1233 l 526 1225 l 419 1040 l 313 1040 z "},"Ņ":{"ha":733,"x_min":97,"x_max":636,"o":"m 532 0 l 203 735 l 197 735 l 197 0 l 97 0 l 97 956 l 207 956 l 531 233 l 536 233 l 536 956 l 636 956 l 636 0 l 532 0 m 299 -306 q 357 -290 344 -306 q 369 -228 369 -275 l 369 -206 l 324 -206 l 324 -86 l 435 -86 l 435 -194 q 425 -294 435 -261 q 387 -340 415 -326 q 299 -353 358 -353 l 299 -306 z "},"Ṅ":{"ha":733,"x_min":97,"x_max":636,"o":"m 532 0 l 203 735 l 197 735 l 197 0 l 97 0 l 97 956 l 207 956 l 531 233 l 536 233 l 536 956 l 636 956 l 636 0 l 532 0 m 318 1110 l 318 1215 l 413 1215 l 413 1110 l 318 1110 z "},"Ŋ":{"ha":733,"x_min":97,"x_max":636,"o":"m 636 956 l 636 -85 q 618 -208 636 -169 q 561 -257 600 -246 q 440 -268 522 -268 l 440 -190 q 505 -183 485 -190 q 531 -161 525 -176 q 536 -112 536 -146 l 536 3 l 203 735 l 197 735 l 197 0 l 97 0 l 97 956 l 207 956 l 531 239 l 536 239 l 536 956 l 636 956 z "},"Ɲ":{"ha":733,"x_min":1,"x_max":636,"o":"m 636 956 l 636 0 l 532 0 l 203 735 l 197 735 l 197 -85 q 179 -208 197 -169 q 122 -257 161 -246 q 1 -268 83 -268 l 1 -190 q 65 -183 44 -190 q 91 -161 85 -176 q 97 -112 97 -146 l 97 956 l 207 956 l 531 233 l 536 233 l 536 956 l 636 956 z "},"ǋ":{"ha":1006,"x_min":97,"x_max":922,"o":"m 532 0 l 203 735 l 197 735 l 197 0 l 97 0 l 97 956 l 207 956 l 531 233 l 536 233 l 536 956 l 636 956 l 636 0 l 532 0 m 818 917 l 818 1032 l 922 1032 l 922 917 l 818 917 m 725 -190 q 790 -183 769 -190 q 815 -161 810 -176 q 821 -112 821 -146 l 821 708 l 919 708 l 919 -85 q 901 -208 919 -169 q 845 -257 883 -246 q 725 -268 807 -268 l 725 -190 z "},"Ñ":{"ha":733,"x_min":97,"x_max":636,"o":"m 532 0 l 203 735 l 197 735 l 197 0 l 97 0 l 97 956 l 207 956 l 531 233 l 536 233 l 536 956 l 636 956 l 636 0 l 532 0 m 563 1210 q 547 1091 563 1124 q 476 1058 531 1058 q 422 1067 449 1058 q 358 1090 394 1075 q 331 1102 351 1093 q 294 1115 311 1111 q 265 1119 278 1119 q 239 1103 244 1119 q 233 1043 233 1088 l 172 1043 q 188 1162 172 1129 q 258 1194 204 1194 q 313 1185 285 1194 q 379 1161 342 1176 q 428 1142 404 1150 q 469 1133 453 1133 q 496 1149 490 1133 q 501 1210 501 1165 l 563 1210 z "},"O":{"ha":719,"x_min":74,"x_max":646,"o":"m 360 -11 q 165 26 224 -11 q 90 159 107 64 q 74 478 74 254 q 90 797 74 701 q 165 929 107 892 q 360 967 224 967 q 554 929 496 967 q 629 797 613 892 q 646 478 646 701 q 629 159 646 254 q 554 26 613 64 q 360 -11 496 -11 m 360 81 q 483 101 449 81 q 529 200 518 122 q 540 478 540 278 q 529 756 540 678 q 483 854 518 833 q 360 875 449 875 q 236 854 271 875 q 190 756 201 833 q 179 478 179 678 q 190 200 179 278 q 236 101 201 122 q 360 81 271 81 z "},"Ó":{"ha":719,"x_min":74,"x_max":646,"o":"m 360 -11 q 165 26 224 -11 q 90 159 107 64 q 74 478 74 254 q 90 797 74 701 q 165 929 107 892 q 360 967 224 967 q 554 929 496 967 q 629 797 613 892 q 646 478 646 701 q 629 159 646 254 q 554 26 613 64 q 360 -11 496 -11 m 360 81 q 483 101 449 81 q 529 200 518 122 q 540 478 540 278 q 529 756 540 678 q 483 854 518 833 q 360 875 449 875 q 236 854 271 875 q 190 756 201 833 q 179 478 179 678 q 190 200 179 278 q 236 101 201 122 q 360 81 271 81 m 313 1042 l 313 1049 l 388 1238 l 492 1238 l 492 1231 l 385 1042 l 313 1042 z "},"Ŏ":{"ha":719,"x_min":74,"x_max":646,"o":"m 360 -11 q 165 26 224 -11 q 90 159 107 64 q 74 478 74 254 q 90 797 74 701 q 165 929 107 892 q 360 967 224 967 q 554 929 496 967 q 629 797 613 892 q 646 478 646 701 q 629 159 646 254 q 554 26 613 64 q 360 -11 496 -11 m 360 81 q 483 101 449 81 q 529 200 518 122 q 540 478 540 278 q 529 756 540 678 q 483 854 518 833 q 360 875 449 875 q 236 854 271 875 q 190 756 201 833 q 179 478 179 678 q 190 200 179 278 q 236 101 201 122 q 360 81 271 81 m 514 1233 q 505 1124 514 1164 q 462 1060 496 1083 q 357 1036 428 1036 q 254 1060 288 1036 q 212 1124 221 1083 q 203 1233 203 1164 l 272 1233 q 276 1155 272 1181 q 299 1115 281 1129 q 357 1100 317 1100 q 417 1115 399 1100 q 440 1155 436 1129 q 444 1233 444 1181 l 514 1233 z "},"Ǒ":{"ha":719,"x_min":74,"x_max":646,"o":"m 360 -11 q 165 26 224 -11 q 90 159 107 64 q 74 478 74 254 q 90 797 74 701 q 165 929 107 892 q 360 967 224 967 q 554 929 496 967 q 629 797 613 892 q 646 478 646 701 q 629 159 646 254 q 554 26 613 64 q 360 -11 496 -11 m 360 81 q 483 101 449 81 q 529 200 518 122 q 540 478 540 278 q 529 756 540 678 q 483 854 518 833 q 360 875 449 875 q 236 854 271 875 q 190 756 201 833 q 179 478 179 678 q 190 200 179 278 q 236 101 201 122 q 360 81 271 81 m 306 1040 l 199 1225 l 199 1233 l 268 1233 l 360 1099 l 450 1233 l 519 1233 l 519 1225 l 413 1040 l 306 1040 z "},"Ô":{"ha":719,"x_min":74,"x_max":646,"o":"m 360 -11 q 165 26 224 -11 q 90 159 107 64 q 74 478 74 254 q 90 797 74 701 q 165 929 107 892 q 360 967 224 967 q 554 929 496 967 q 629 797 613 892 q 646 478 646 701 q 629 159 646 254 q 554 26 613 64 q 360 -11 496 -11 m 360 81 q 483 101 449 81 q 529 200 518 122 q 540 478 540 278 q 529 756 540 678 q 483 854 518 833 q 360 875 449 875 q 236 854 271 875 q 190 756 201 833 q 179 478 179 678 q 190 200 179 278 q 236 101 201 122 q 360 81 271 81 m 199 1042 l 199 1050 l 306 1233 l 414 1233 l 519 1050 l 519 1042 l 450 1042 l 360 1176 l 268 1042 l 199 1042 z "},"Ố":{"ha":719,"x_min":74,"x_max":646,"o":"m 360 -11 q 165 26 224 -11 q 90 159 107 64 q 74 478 74 254 q 90 797 74 701 q 165 929 107 892 q 360 967 224 967 q 554 929 496 967 q 629 797 613 892 q 646 478 646 701 q 629 159 646 254 q 554 26 613 64 q 360 -11 496 -11 m 360 81 q 483 101 449 81 q 529 200 518 122 q 540 478 540 278 q 529 756 540 678 q 483 854 518 833 q 360 875 449 875 q 236 854 271 875 q 190 756 201 833 q 179 478 179 678 q 190 200 179 278 q 236 101 201 122 q 360 81 271 81 m 197 1032 l 197 1040 l 304 1224 l 413 1224 l 518 1040 l 518 1032 l 449 1032 l 358 1167 l 267 1032 l 197 1032 m 419 1240 l 419 1247 l 494 1436 l 599 1436 l 599 1429 l 492 1240 l 419 1240 z "},"Ộ":{"ha":719,"x_min":74,"x_max":646,"o":"m 360 -11 q 165 26 224 -11 q 90 159 107 64 q 74 478 74 254 q 90 797 74 701 q 165 929 107 892 q 360 967 224 967 q 554 929 496 967 q 629 797 613 892 q 646 478 646 701 q 629 159 646 254 q 554 26 613 64 q 360 -11 496 -11 m 360 81 q 483 101 449 81 q 529 200 518 122 q 540 478 540 278 q 529 756 540 678 q 483 854 518 833 q 360 875 449 875 q 236 854 271 875 q 190 756 201 833 q 179 478 179 678 q 190 200 179 278 q 236 101 201 122 q 360 81 271 81 m 303 -211 l 303 -86 l 417 -86 l 417 -211 l 303 -211 m 199 1042 l 199 1050 l 306 1233 l 414 1233 l 519 1050 l 519 1042 l 450 1042 l 360 1176 l 268 1042 l 199 1042 z "},"Ồ":{"ha":719,"x_min":74,"x_max":646,"o":"m 360 -11 q 165 26 224 -11 q 90 159 107 64 q 74 478 74 254 q 90 797 74 701 q 165 929 107 892 q 360 967 224 967 q 554 929 496 967 q 629 797 613 892 q 646 478 646 701 q 629 159 646 254 q 554 26 613 64 q 360 -11 496 -11 m 360 81 q 483 101 449 81 q 529 200 518 122 q 540 478 540 278 q 529 756 540 678 q 483 854 518 833 q 360 875 449 875 q 236 854 271 875 q 190 756 201 833 q 179 478 179 678 q 190 200 179 278 q 236 101 201 122 q 360 81 271 81 m 196 1025 l 196 1033 l 303 1217 l 411 1217 l 517 1033 l 517 1025 l 447 1025 l 357 1160 l 265 1025 l 196 1025 m 443 1233 l 336 1422 l 336 1429 l 440 1429 l 515 1240 l 515 1233 l 443 1233 z "},"Ổ":{"ha":719,"x_min":74,"x_max":646,"o":"m 360 -11 q 165 26 224 -11 q 90 159 107 64 q 74 478 74 254 q 90 797 74 701 q 165 929 107 892 q 360 967 224 967 q 554 929 496 967 q 629 797 613 892 q 646 478 646 701 q 629 159 646 254 q 554 26 613 64 q 360 -11 496 -11 m 360 81 q 483 101 449 81 q 529 200 518 122 q 540 478 540 278 q 529 756 540 678 q 483 854 518 833 q 360 875 449 875 q 236 854 271 875 q 190 756 201 833 q 179 478 179 678 q 190 200 179 278 q 236 101 201 122 q 360 81 271 81 m 199 1026 l 199 1035 l 306 1218 l 414 1218 l 519 1035 l 519 1026 l 450 1026 l 360 1161 l 268 1026 l 199 1026 m 408 1243 q 420 1290 408 1276 q 464 1313 432 1303 l 483 1319 q 525 1340 514 1329 q 536 1374 536 1350 q 530 1402 536 1393 q 507 1415 524 1411 q 453 1418 490 1418 q 335 1411 407 1418 l 335 1472 q 463 1483 415 1483 q 577 1461 544 1483 q 610 1382 610 1439 q 597 1319 610 1340 q 544 1283 585 1297 l 525 1275 q 481 1256 489 1263 q 474 1229 474 1249 l 408 1229 l 408 1243 z "},"Ỗ":{"ha":719,"x_min":74,"x_max":646,"o":"m 360 -11 q 165 26 224 -11 q 90 159 107 64 q 74 478 74 254 q 90 797 74 701 q 165 929 107 892 q 360 967 224 967 q 554 929 496 967 q 629 797 613 892 q 646 478 646 701 q 629 159 646 254 q 554 26 613 64 q 360 -11 496 -11 m 360 81 q 483 101 449 81 q 529 200 518 122 q 540 478 540 278 q 529 756 540 678 q 483 854 518 833 q 360 875 449 875 q 236 854 271 875 q 190 756 201 833 q 179 478 179 678 q 190 200 179 278 q 236 101 201 122 q 360 81 271 81 m 196 1026 l 196 1035 l 303 1218 l 411 1218 l 517 1035 l 517 1026 l 447 1026 l 357 1161 l 265 1026 l 196 1026 m 554 1458 q 538 1340 554 1372 q 468 1307 522 1307 q 413 1315 440 1307 q 350 1339 386 1324 q 323 1351 343 1342 q 286 1364 303 1360 q 257 1368 269 1368 q 231 1352 236 1368 q 225 1292 225 1336 l 164 1292 q 180 1410 164 1378 q 250 1443 196 1443 q 305 1434 276 1443 q 371 1410 333 1425 q 420 1390 396 1399 q 461 1382 444 1382 q 488 1398 482 1382 q 493 1458 493 1414 l 554 1458 z "},"Ȍ":{"ha":719,"x_min":74,"x_max":646,"o":"m 360 -11 q 165 26 224 -11 q 90 159 107 64 q 74 478 74 254 q 90 797 74 701 q 165 929 107 892 q 360 967 224 967 q 554 929 496 967 q 629 797 613 892 q 646 478 646 701 q 629 159 646 254 q 554 26 613 64 q 360 -11 496 -11 m 360 81 q 483 101 449 81 q 529 200 518 122 q 540 478 540 278 q 529 756 540 678 q 483 854 518 833 q 360 875 449 875 q 236 854 271 875 q 190 756 201 833 q 179 478 179 678 q 190 200 179 278 q 236 101 201 122 q 360 81 271 81 m 306 1049 l 242 1049 l 146 1213 l 146 1218 l 238 1218 l 306 1054 l 306 1049 m 490 1049 l 426 1049 l 329 1213 l 329 1218 l 422 1218 l 490 1054 l 490 1049 z "},"Ö":{"ha":719,"x_min":74,"x_max":646,"o":"m 360 -11 q 165 26 224 -11 q 90 159 107 64 q 74 478 74 254 q 90 797 74 701 q 165 929 107 892 q 360 967 224 967 q 554 929 496 967 q 629 797 613 892 q 646 478 646 701 q 629 159 646 254 q 554 26 613 64 q 360 -11 496 -11 m 360 81 q 483 101 449 81 q 529 200 518 122 q 540 478 540 278 q 529 756 540 678 q 483 854 518 833 q 360 875 449 875 q 236 854 271 875 q 190 756 201 833 q 179 478 179 678 q 190 200 179 278 q 236 101 201 122 q 360 81 271 81 m 189 1076 l 189 1182 l 283 1182 l 283 1076 l 189 1076 m 436 1076 l 436 1182 l 531 1182 l 531 1076 l 436 1076 z "},"Ọ":{"ha":719,"x_min":74,"x_max":646,"o":"m 360 -11 q 165 26 224 -11 q 90 159 107 64 q 74 478 74 254 q 90 797 74 701 q 165 929 107 892 q 360 967 224 967 q 554 929 496 967 q 629 797 613 892 q 646 478 646 701 q 629 159 646 254 q 554 26 613 64 q 360 -11 496 -11 m 360 81 q 483 101 449 81 q 529 200 518 122 q 540 478 540 278 q 529 756 540 678 q 483 854 518 833 q 360 875 449 875 q 236 854 271 875 q 190 756 201 833 q 179 478 179 678 q 190 200 179 278 q 236 101 201 122 q 360 81 271 81 m 303 -211 l 303 -86 l 417 -86 l 417 -211 l 303 -211 z "},"Ò":{"ha":719,"x_min":74,"x_max":646,"o":"m 360 -11 q 165 26 224 -11 q 90 159 107 64 q 74 478 74 254 q 90 797 74 701 q 165 929 107 892 q 360 967 224 967 q 554 929 496 967 q 629 797 613 892 q 646 478 646 701 q 629 159 646 254 q 554 26 613 64 q 360 -11 496 -11 m 360 81 q 483 101 449 81 q 529 200 518 122 q 540 478 540 278 q 529 756 540 678 q 483 854 518 833 q 360 875 449 875 q 236 854 271 875 q 190 756 201 833 q 179 478 179 678 q 190 200 179 278 q 236 101 201 122 q 360 81 271 81 m 331 1042 l 224 1231 l 224 1238 l 328 1238 l 403 1049 l 403 1042 l 331 1042 z "},"Ỏ":{"ha":719,"x_min":74,"x_max":646,"o":"m 360 -11 q 165 26 224 -11 q 90 159 107 64 q 74 478 74 254 q 90 797 74 701 q 165 929 107 892 q 360 967 224 967 q 554 929 496 967 q 629 797 613 892 q 646 478 646 701 q 629 159 646 254 q 554 26 613 64 q 360 -11 496 -11 m 360 81 q 483 101 449 81 q 529 200 518 122 q 540 478 540 278 q 529 756 540 678 q 483 854 518 833 q 360 875 449 875 q 236 854 271 875 q 190 756 201 833 q 179 478 179 678 q 190 200 179 278 q 236 101 201 122 q 360 81 271 81 m 296 1035 q 308 1081 296 1068 q 351 1104 319 1094 l 371 1111 q 413 1131 401 1121 q 424 1165 424 1142 q 417 1194 424 1185 q 394 1206 411 1203 q 340 1210 378 1210 q 222 1203 294 1210 l 222 1264 q 350 1275 303 1275 q 465 1253 432 1275 q 497 1174 497 1231 q 485 1110 497 1132 q 432 1074 472 1089 l 413 1067 q 369 1047 376 1054 q 361 1021 361 1040 l 296 1021 l 296 1035 z "},"Ơ":{"ha":719,"x_min":74,"x_max":701,"o":"m 701 1090 l 701 1044 q 692 962 701 990 q 658 919 683 933 q 583 903 633 906 q 634 764 622 857 q 646 478 646 671 q 629 159 646 254 q 554 26 613 64 q 360 -11 496 -11 q 165 26 224 -11 q 90 159 107 64 q 74 478 74 254 q 90 797 74 701 q 165 929 107 892 q 360 967 224 967 q 489 956 443 967 l 554 956 q 616 970 603 956 q 629 1028 629 985 l 629 1090 l 701 1090 m 360 81 q 483 101 449 81 q 529 200 518 122 q 540 478 540 278 q 529 756 540 678 q 483 854 518 833 q 360 875 449 875 q 236 854 271 875 q 190 756 201 833 q 179 478 179 678 q 190 200 179 278 q 236 101 201 122 q 360 81 271 81 z "},"Ớ":{"ha":719,"x_min":74,"x_max":701,"o":"m 701 1090 l 701 1044 q 692 962 701 990 q 658 919 683 933 q 583 903 633 906 q 634 764 622 857 q 646 478 646 671 q 629 159 646 254 q 554 26 613 64 q 360 -11 496 -11 q 165 26 224 -11 q 90 159 107 64 q 74 478 74 254 q 90 797 74 701 q 165 929 107 892 q 360 967 224 967 q 489 956 443 967 l 554 956 q 616 970 603 956 q 629 1028 629 985 l 629 1090 l 701 1090 m 360 81 q 483 101 449 81 q 529 200 518 122 q 540 478 540 278 q 529 756 540 678 q 483 854 518 833 q 360 875 449 875 q 236 854 271 875 q 190 756 201 833 q 179 478 179 678 q 190 200 179 278 q 236 101 201 122 q 360 81 271 81 m 315 1038 l 315 1044 l 390 1233 l 494 1233 l 494 1226 l 388 1038 l 315 1038 z "},"Ợ":{"ha":719,"x_min":74,"x_max":701,"o":"m 701 1090 l 701 1044 q 692 962 701 990 q 658 919 683 933 q 583 903 633 906 q 634 764 622 857 q 646 478 646 671 q 629 159 646 254 q 554 26 613 64 q 360 -11 496 -11 q 165 26 224 -11 q 90 159 107 64 q 74 478 74 254 q 90 797 74 701 q 165 929 107 892 q 360 967 224 967 q 489 956 443 967 l 554 956 q 616 970 603 956 q 629 1028 629 985 l 629 1090 l 701 1090 m 360 81 q 483 101 449 81 q 529 200 518 122 q 540 478 540 278 q 529 756 540 678 q 483 854 518 833 q 360 875 449 875 q 236 854 271 875 q 190 756 201 833 q 179 478 179 678 q 190 200 179 278 q 236 101 201 122 q 360 81 271 81 m 303 -211 l 303 -86 l 417 -86 l 417 -211 l 303 -211 z "},"Ờ":{"ha":719,"x_min":74,"x_max":701,"o":"m 701 1090 l 701 1044 q 692 962 701 990 q 658 919 683 933 q 583 903 633 906 q 634 764 622 857 q 646 478 646 671 q 629 159 646 254 q 554 26 613 64 q 360 -11 496 -11 q 165 26 224 -11 q 90 159 107 64 q 74 478 74 254 q 90 797 74 701 q 165 929 107 892 q 360 967 224 967 q 489 956 443 967 l 554 956 q 616 970 603 956 q 629 1028 629 985 l 629 1090 l 701 1090 m 360 81 q 483 101 449 81 q 529 200 518 122 q 540 478 540 278 q 529 756 540 678 q 483 854 518 833 q 360 875 449 875 q 236 854 271 875 q 190 756 201 833 q 179 478 179 678 q 190 200 179 278 q 236 101 201 122 q 360 81 271 81 m 331 1038 l 224 1226 l 224 1233 l 328 1233 l 403 1044 l 403 1038 l 331 1038 z "},"Ở":{"ha":719,"x_min":74,"x_max":701,"o":"m 701 1090 l 701 1044 q 692 962 701 990 q 658 919 683 933 q 583 903 633 906 q 634 764 622 857 q 646 478 646 671 q 629 159 646 254 q 554 26 613 64 q 360 -11 496 -11 q 165 26 224 -11 q 90 159 107 64 q 74 478 74 254 q 90 797 74 701 q 165 929 107 892 q 360 967 224 967 q 489 956 443 967 l 554 956 q 616 970 603 956 q 629 1028 629 985 l 629 1090 l 701 1090 m 360 81 q 483 101 449 81 q 529 200 518 122 q 540 478 540 278 q 529 756 540 678 q 483 854 518 833 q 360 875 449 875 q 236 854 271 875 q 190 756 201 833 q 179 478 179 678 q 190 200 179 278 q 236 101 201 122 q 360 81 271 81 m 296 1035 q 308 1081 296 1068 q 351 1104 319 1094 l 371 1111 q 413 1131 401 1121 q 424 1165 424 1142 q 417 1194 424 1185 q 394 1206 411 1203 q 340 1210 378 1210 q 222 1203 294 1210 l 222 1264 q 350 1275 303 1275 q 465 1253 432 1275 q 497 1174 497 1231 q 485 1110 497 1132 q 432 1074 472 1089 l 413 1067 q 369 1047 376 1054 q 361 1021 361 1040 l 296 1021 l 296 1035 z "},"Ỡ":{"ha":719,"x_min":74,"x_max":701,"o":"m 701 1090 l 701 1044 q 692 962 701 990 q 658 919 683 933 q 583 903 633 906 q 634 764 622 857 q 646 478 646 671 q 629 159 646 254 q 554 26 613 64 q 360 -11 496 -11 q 165 26 224 -11 q 90 159 107 64 q 74 478 74 254 q 90 797 74 701 q 165 929 107 892 q 360 967 224 967 q 489 956 443 967 l 554 956 q 616 970 603 956 q 629 1028 629 985 l 629 1090 l 701 1090 m 360 81 q 483 101 449 81 q 529 200 518 122 q 540 478 540 278 q 529 756 540 678 q 483 854 518 833 q 360 875 449 875 q 236 854 271 875 q 190 756 201 833 q 179 478 179 678 q 190 200 179 278 q 236 101 201 122 q 360 81 271 81 m 554 1233 q 538 1115 554 1147 q 468 1082 522 1082 q 413 1090 440 1082 q 350 1114 386 1099 q 323 1126 343 1117 q 286 1139 303 1135 q 257 1143 269 1143 q 231 1127 236 1143 q 225 1067 225 1111 l 164 1067 q 180 1185 164 1153 q 250 1218 196 1218 q 305 1209 276 1218 q 371 1185 333 1200 q 420 1165 396 1174 q 461 1157 444 1157 q 488 1173 482 1157 q 493 1233 493 1189 l 554 1233 z "},"Ő":{"ha":719,"x_min":74,"x_max":646,"o":"m 360 -11 q 165 26 224 -11 q 90 159 107 64 q 74 478 74 254 q 90 797 74 701 q 165 929 107 892 q 360 967 224 967 q 554 929 496 967 q 629 797 613 892 q 646 478 646 701 q 629 159 646 254 q 554 26 613 64 q 360 -11 496 -11 m 360 81 q 483 101 449 81 q 529 200 518 122 q 540 478 540 278 q 529 756 540 678 q 483 854 518 833 q 360 875 449 875 q 236 854 271 875 q 190 756 201 833 q 179 478 179 678 q 190 200 179 278 q 236 101 201 122 q 360 81 271 81 m 236 1049 l 236 1054 l 304 1218 l 397 1218 l 397 1213 l 300 1049 l 236 1049 m 421 1049 l 421 1054 l 489 1218 l 581 1218 l 581 1213 l 485 1049 l 421 1049 z "},"Ȏ":{"ha":719,"x_min":74,"x_max":646,"o":"m 360 -11 q 165 26 224 -11 q 90 159 107 64 q 74 478 74 254 q 90 797 74 701 q 165 929 107 892 q 360 967 224 967 q 554 929 496 967 q 629 797 613 892 q 646 478 646 701 q 629 159 646 254 q 554 26 613 64 q 360 -11 496 -11 m 360 81 q 483 101 449 81 q 529 200 518 122 q 540 478 540 278 q 529 756 540 678 q 483 854 518 833 q 360 875 449 875 q 236 854 271 875 q 190 756 201 833 q 179 478 179 678 q 190 200 179 278 q 236 101 201 122 q 360 81 271 81 m 204 1044 q 213 1154 204 1114 q 256 1218 222 1194 q 361 1242 290 1242 q 464 1218 431 1242 q 506 1154 497 1194 q 515 1044 515 1114 l 446 1044 q 442 1123 446 1097 q 419 1163 438 1149 q 361 1178 401 1178 q 301 1163 319 1178 q 278 1123 282 1149 q 274 1044 274 1097 l 204 1044 z "},"Ō":{"ha":719,"x_min":74,"x_max":646,"o":"m 360 -11 q 165 26 224 -11 q 90 159 107 64 q 74 478 74 254 q 90 797 74 701 q 165 929 107 892 q 360 967 224 967 q 554 929 496 967 q 629 797 613 892 q 646 478 646 701 q 629 159 646 254 q 554 26 613 64 q 360 -11 496 -11 m 360 81 q 483 101 449 81 q 529 200 518 122 q 540 478 540 278 q 529 756 540 678 q 483 854 518 833 q 360 875 449 875 q 236 854 271 875 q 190 756 201 833 q 179 478 179 678 q 190 200 179 278 q 236 101 201 122 q 360 81 271 81 m 224 1142 l 224 1233 l 496 1233 l 496 1142 l 224 1142 z "},"Ǫ":{"ha":719,"x_min":74,"x_max":644,"o":"m 486 -272 q 392 -244 421 -272 q 363 -169 363 -215 q 382 -88 363 -131 q 435 -7 401 -46 q 360 -11 401 -11 q 165 26 224 -11 q 90 158 107 63 q 74 478 74 254 q 90 797 74 701 q 165 930 107 893 q 360 967 224 967 q 553 930 496 967 q 628 797 611 893 q 644 478 644 701 q 638 240 644 325 q 613 103 632 156 q 551 25 593 51 q 478 -53 508 -3 q 447 -149 447 -103 q 510 -206 447 -206 q 533 -204 524 -206 l 533 -269 q 486 -272 514 -272 m 360 81 q 484 101 450 81 q 529 199 518 122 q 540 478 540 276 q 529 756 540 679 q 484 854 518 833 q 360 875 450 875 q 235 854 269 875 q 190 756 201 833 q 178 478 178 678 q 190 200 178 278 q 235 101 201 122 q 360 81 269 81 z "},"Ø":{"ha":717,"x_min":74,"x_max":646,"o":"m 586 900 q 635 762 624 853 q 646 478 646 671 q 629 159 646 254 q 554 26 613 64 q 360 -11 496 -11 q 200 8 257 -11 l 164 -76 l 74 -76 l 132 57 q 84 196 94 104 q 74 478 74 288 q 90 797 74 701 q 165 929 107 892 q 360 967 224 967 q 517 947 463 967 l 553 1032 l 643 1032 l 586 900 m 179 478 q 181 298 179 363 q 190 192 183 233 l 479 861 q 433 872 460 869 q 360 875 406 875 q 236 854 271 875 q 190 756 201 833 q 179 478 179 678 m 360 81 q 483 101 449 81 q 529 200 518 122 q 540 478 540 278 q 538 662 540 596 q 529 768 536 728 l 239 96 q 284 83 257 86 q 360 81 311 81 z "},"Ǿ":{"ha":717,"x_min":74,"x_max":646,"o":"m 586 900 q 635 762 624 853 q 646 478 646 671 q 629 159 646 254 q 554 26 613 64 q 360 -11 496 -11 q 200 8 257 -11 l 164 -76 l 74 -76 l 132 57 q 84 196 94 104 q 74 478 74 288 q 90 797 74 701 q 165 929 107 892 q 360 967 224 967 q 517 947 463 967 l 553 1032 l 643 1032 l 586 900 m 179 478 q 181 298 179 363 q 190 192 183 233 l 479 861 q 433 872 460 869 q 360 875 406 875 q 236 854 271 875 q 190 756 201 833 q 179 478 179 678 m 360 81 q 483 101 449 81 q 529 200 518 122 q 540 478 540 278 q 538 662 540 596 q 529 768 536 728 l 239 96 q 284 83 257 86 q 360 81 311 81 m 314 1038 l 314 1044 l 389 1233 l 493 1233 l 493 1226 l 386 1038 l 314 1038 z "},"Õ":{"ha":719,"x_min":74,"x_max":646,"o":"m 360 -11 q 165 26 224 -11 q 90 159 107 64 q 74 478 74 254 q 90 797 74 701 q 165 929 107 892 q 360 967 224 967 q 554 929 496 967 q 629 797 613 892 q 646 478 646 701 q 629 159 646 254 q 554 26 613 64 q 360 -11 496 -11 m 360 81 q 483 101 449 81 q 529 200 518 122 q 540 478 540 278 q 529 756 540 678 q 483 854 518 833 q 360 875 449 875 q 236 854 271 875 q 190 756 201 833 q 179 478 179 678 q 190 200 179 278 q 236 101 201 122 q 360 81 271 81 m 554 1208 q 538 1090 554 1122 q 468 1057 522 1057 q 413 1065 440 1057 q 350 1089 386 1074 q 323 1101 343 1092 q 286 1114 303 1110 q 257 1118 269 1118 q 231 1102 236 1118 q 225 1042 225 1086 l 164 1042 q 180 1160 164 1128 q 250 1193 196 1193 q 305 1184 276 1193 q 371 1160 333 1175 q 420 1140 396 1149 q 461 1132 444 1132 q 488 1148 482 1132 q 493 1208 493 1164 l 554 1208 z "},"Œ":{"ha":1028,"x_min":74,"x_max":975,"o":"m 360 0 q 165 36 224 0 q 90 166 107 72 q 74 478 74 260 q 90 790 74 696 q 165 919 107 883 q 360 956 224 956 l 975 956 l 975 864 l 667 864 q 586 871 618 864 q 632 753 619 832 q 646 529 644 675 l 928 529 l 928 438 l 646 438 q 632 204 644 285 q 585 83 619 124 q 667 92 626 92 l 975 92 l 975 0 l 360 0 m 360 92 q 483 112 449 92 q 528 208 517 132 q 540 478 540 283 q 528 748 540 672 q 483 844 517 824 q 360 864 449 864 q 237 844 271 864 q 191 748 203 824 q 179 478 179 672 q 191 208 179 283 q 237 112 203 132 q 360 92 271 92 z "},"P":{"ha":646,"x_min":97,"x_max":604,"o":"m 97 956 l 381 956 q 526 917 478 956 q 590 817 575 879 q 604 656 604 756 q 590 497 604 558 q 526 396 575 435 q 381 357 478 357 l 201 357 l 201 0 l 97 0 l 97 956 m 353 447 q 451 469 419 447 q 491 534 482 492 q 500 656 500 576 q 491 778 500 736 q 451 842 482 821 q 354 864 421 864 l 201 864 l 201 447 l 353 447 z "},"Þ":{"ha":646,"x_min":97,"x_max":604,"o":"m 97 956 l 201 956 l 201 786 l 381 786 q 528 749 479 786 q 590 649 576 711 q 604 486 604 586 q 590 328 604 390 q 526 226 575 265 q 381 188 478 188 l 201 188 l 201 0 l 97 0 l 97 956 m 353 278 q 451 300 419 278 q 491 365 482 322 q 500 486 500 407 q 491 609 500 567 q 451 673 482 651 q 354 694 421 694 l 201 694 l 201 278 l 353 278 z "},"Q":{"ha":719,"x_min":74,"x_max":667,"o":"m 667 -156 l 667 -160 l 556 -160 l 471 -4 q 360 -11 418 -11 q 165 26 224 -11 q 90 159 107 64 q 74 478 74 254 q 90 797 74 701 q 165 929 107 892 q 360 967 224 967 q 554 929 496 967 q 629 797 613 892 q 646 478 646 701 q 640 249 646 332 q 617 113 635 167 q 561 32 599 60 l 667 -156 m 360 81 q 424 82 406 81 l 303 303 l 410 303 l 508 128 q 534 238 528 161 q 540 478 540 314 q 529 756 540 678 q 483 854 518 833 q 360 875 449 875 q 236 854 271 875 q 190 756 201 833 q 179 478 179 678 q 190 200 179 278 q 236 101 201 122 q 360 81 271 81 z "},"R":{"ha":685,"x_min":97,"x_max":629,"o":"m 519 0 l 400 385 l 381 385 l 201 385 l 201 0 l 97 0 l 97 956 l 389 956 q 536 919 488 956 q 599 824 585 883 q 614 669 614 764 q 592 498 614 565 q 500 403 571 431 l 629 0 l 519 0 m 363 475 q 460 496 428 475 q 501 556 492 517 q 510 669 510 596 q 501 783 510 744 q 461 843 492 822 q 364 864 431 864 l 201 864 l 201 475 l 363 475 z "},"Ŕ":{"ha":685,"x_min":97,"x_max":629,"o":"m 519 0 l 400 385 l 381 385 l 201 385 l 201 0 l 97 0 l 97 956 l 389 956 q 536 919 488 956 q 599 824 585 883 q 614 669 614 764 q 592 498 614 565 q 500 403 571 431 l 629 0 l 519 0 m 363 475 q 460 496 428 475 q 501 556 492 517 q 510 669 510 596 q 501 783 510 744 q 461 843 492 822 q 364 864 431 864 l 201 864 l 201 475 l 363 475 m 299 1038 l 299 1044 l 374 1233 l 478 1233 l 478 1226 l 371 1038 l 299 1038 z "},"Ř":{"ha":685,"x_min":97,"x_max":629,"o":"m 519 0 l 400 385 l 381 385 l 201 385 l 201 0 l 97 0 l 97 956 l 389 956 q 536 919 488 956 q 599 824 585 883 q 614 669 614 764 q 592 498 614 565 q 500 403 571 431 l 629 0 l 519 0 m 363 475 q 460 496 428 475 q 501 556 492 517 q 510 669 510 596 q 501 783 510 744 q 461 843 492 822 q 364 864 431 864 l 201 864 l 201 475 l 363 475 m 289 1040 l 182 1225 l 182 1233 l 251 1233 l 343 1099 l 433 1233 l 503 1233 l 503 1225 l 396 1040 l 289 1040 z "},"Ŗ":{"ha":685,"x_min":97,"x_max":629,"o":"m 519 0 l 400 385 l 381 385 l 201 385 l 201 0 l 97 0 l 97 956 l 389 956 q 536 919 488 956 q 599 824 585 883 q 614 669 614 764 q 592 498 614 565 q 500 403 571 431 l 629 0 l 519 0 m 363 475 q 460 496 428 475 q 501 556 492 517 q 510 669 510 596 q 501 783 510 744 q 461 843 492 822 q 364 864 431 864 l 201 864 l 201 475 l 363 475 m 275 -306 q 333 -290 321 -306 q 346 -228 346 -275 l 346 -206 l 300 -206 l 300 -86 l 411 -86 l 411 -194 q 401 -294 411 -261 q 363 -340 392 -326 q 275 -353 335 -353 l 275 -306 z "},"Ȑ":{"ha":685,"x_min":97,"x_max":629,"o":"m 519 0 l 400 385 l 381 385 l 201 385 l 201 0 l 97 0 l 97 956 l 389 956 q 536 919 488 956 q 599 824 585 883 q 614 669 614 764 q 592 498 614 565 q 500 403 571 431 l 629 0 l 519 0 m 363 475 q 460 496 428 475 q 501 556 492 517 q 510 669 510 596 q 501 783 510 744 q 461 843 492 822 q 364 864 431 864 l 201 864 l 201 475 l 363 475 m 289 1049 l 225 1049 l 129 1213 l 129 1218 l 221 1218 l 289 1054 l 289 1049 m 474 1049 l 410 1049 l 313 1213 l 313 1218 l 406 1218 l 474 1054 l 474 1049 z "},"Ṛ":{"ha":685,"x_min":97,"x_max":629,"o":"m 519 0 l 400 385 l 381 385 l 201 385 l 201 0 l 97 0 l 97 956 l 389 956 q 536 919 488 956 q 599 824 585 883 q 614 669 614 764 q 592 498 614 565 q 500 403 571 431 l 629 0 l 519 0 m 363 475 q 460 496 428 475 q 501 556 492 517 q 510 669 510 596 q 501 783 510 744 q 461 843 492 822 q 364 864 431 864 l 201 864 l 201 475 l 363 475 m 286 -211 l 286 -86 l 400 -86 l 400 -211 l 286 -211 z "},"Ȓ":{"ha":685,"x_min":97,"x_max":629,"o":"m 519 0 l 400 385 l 381 385 l 201 385 l 201 0 l 97 0 l 97 956 l 389 956 q 536 919 488 956 q 599 824 585 883 q 614 669 614 764 q 592 498 614 565 q 500 403 571 431 l 629 0 l 519 0 m 363 475 q 460 496 428 475 q 501 556 492 517 q 510 669 510 596 q 501 783 510 744 q 461 843 492 822 q 364 864 431 864 l 201 864 l 201 475 l 363 475 m 188 1044 q 197 1154 188 1114 q 240 1218 206 1194 q 344 1242 274 1242 q 447 1218 414 1242 q 490 1154 481 1194 q 499 1044 499 1114 l 429 1044 q 425 1123 429 1097 q 403 1163 421 1149 q 344 1178 385 1178 q 284 1163 303 1178 q 261 1123 265 1149 q 257 1044 257 1097 l 188 1044 z "},"S":{"ha":615,"x_min":56,"x_max":558,"o":"m 313 -11 q 75 7 183 -11 l 75 97 q 182 85 124 90 q 281 81 240 81 q 369 88 336 81 q 422 115 401 96 q 448 168 442 133 q 454 261 454 203 q 449 368 454 338 q 423 412 443 399 q 351 433 403 425 l 190 458 q 103 498 132 468 q 65 575 74 528 q 56 701 56 622 q 117 906 56 846 q 313 967 178 967 q 524 944 442 967 l 524 858 q 336 875 431 875 q 242 865 276 875 q 189 833 207 854 q 165 782 171 813 q 160 704 160 751 q 165 612 160 640 q 188 572 171 583 q 243 554 204 561 l 399 529 q 490 500 457 519 q 542 433 524 481 q 558 274 558 393 q 535 106 558 167 q 459 17 513 44 q 313 -11 406 -11 z "},"Ś":{"ha":615,"x_min":56,"x_max":558,"o":"m 313 -11 q 75 7 183 -11 l 75 97 q 182 85 124 90 q 281 81 240 81 q 369 88 336 81 q 422 115 401 96 q 448 168 442 133 q 454 261 454 203 q 449 368 454 338 q 423 412 443 399 q 351 433 403 425 l 190 458 q 103 498 132 468 q 65 575 74 528 q 56 701 56 622 q 117 906 56 846 q 313 967 178 967 q 524 944 442 967 l 524 858 q 336 875 431 875 q 242 865 276 875 q 189 833 207 854 q 165 782 171 813 q 160 704 160 751 q 165 612 160 640 q 188 572 171 583 q 243 554 204 561 l 399 529 q 490 500 457 519 q 542 433 524 481 q 558 274 558 393 q 535 106 558 167 q 459 17 513 44 q 313 -11 406 -11 m 263 1038 l 263 1044 l 338 1233 l 442 1233 l 442 1226 l 335 1038 l 263 1038 z "},"Ꞌ":{"ha":164,"x_min":33,"x_max":131,"o":"m 33 396 l 33 956 l 131 956 l 131 713 l 101 396 l 33 396 z "},"Š":{"ha":615,"x_min":56,"x_max":558,"o":"m 313 -11 q 75 7 183 -11 l 75 97 q 182 85 124 90 q 281 81 240 81 q 369 88 336 81 q 422 115 401 96 q 448 168 442 133 q 454 261 454 203 q 449 368 454 338 q 423 412 443 399 q 351 433 403 425 l 190 458 q 103 498 132 468 q 65 575 74 528 q 56 701 56 622 q 117 906 56 846 q 313 967 178 967 q 524 944 442 967 l 524 858 q 336 875 431 875 q 242 865 276 875 q 189 833 207 854 q 165 782 171 813 q 160 704 160 751 q 165 612 160 640 q 188 572 171 583 q 243 554 204 561 l 399 529 q 490 500 457 519 q 542 433 524 481 q 558 274 558 393 q 535 106 558 167 q 459 17 513 44 q 313 -11 406 -11 m 260 1040 l 153 1225 l 153 1233 l 222 1233 l 314 1099 l 404 1233 l 474 1233 l 474 1225 l 367 1040 l 260 1040 z "},"Ş":{"ha":615,"x_min":56,"x_max":558,"o":"m 558 274 q 538 112 558 172 q 469 22 517 51 q 339 -11 421 -7 l 285 -264 l 188 -264 l 188 -257 l 267 -10 q 75 7 171 -8 l 75 97 q 182 85 124 90 q 281 81 240 81 q 369 88 336 81 q 422 115 401 96 q 448 168 442 133 q 454 261 454 203 q 449 368 454 338 q 423 412 443 399 q 351 433 403 425 l 190 458 q 103 498 132 468 q 65 575 74 528 q 56 701 56 622 q 117 906 56 846 q 313 967 178 967 q 524 944 442 967 l 524 858 q 336 875 431 875 q 242 865 276 875 q 189 833 207 854 q 165 782 171 813 q 160 704 160 751 q 165 612 160 640 q 188 572 171 583 q 243 554 204 561 l 399 529 q 490 500 457 519 q 542 433 524 481 q 558 274 558 393 z "},"Ŝ":{"ha":615,"x_min":56,"x_max":558,"o":"m 313 -11 q 75 7 183 -11 l 75 97 q 182 85 124 90 q 281 81 240 81 q 369 88 336 81 q 422 115 401 96 q 448 168 442 133 q 454 261 454 203 q 449 368 454 338 q 423 412 443 399 q 351 433 403 425 l 190 458 q 103 498 132 468 q 65 575 74 528 q 56 701 56 622 q 117 906 56 846 q 313 967 178 967 q 524 944 442 967 l 524 858 q 336 875 431 875 q 242 865 276 875 q 189 833 207 854 q 165 782 171 813 q 160 704 160 751 q 165 612 160 640 q 188 572 171 583 q 243 554 204 561 l 399 529 q 490 500 457 519 q 542 433 524 481 q 558 274 558 393 q 535 106 558 167 q 459 17 513 44 q 313 -11 406 -11 m 146 1042 l 146 1050 l 253 1233 l 361 1233 l 467 1050 l 467 1042 l 397 1042 l 307 1176 l 215 1042 l 146 1042 z "},"Ș":{"ha":615,"x_min":56,"x_max":558,"o":"m 313 -11 q 75 7 183 -11 l 75 97 q 182 85 124 90 q 281 81 240 81 q 369 88 336 81 q 422 115 401 96 q 448 168 442 133 q 454 261 454 203 q 449 368 454 338 q 423 412 443 399 q 351 433 403 425 l 190 458 q 103 498 132 468 q 65 575 74 528 q 56 701 56 622 q 117 906 56 846 q 313 967 178 967 q 524 944 442 967 l 524 858 q 336 875 431 875 q 242 865 276 875 q 189 833 207 854 q 165 782 171 813 q 160 704 160 751 q 165 612 160 640 q 188 572 171 583 q 243 554 204 561 l 399 529 q 490 500 457 519 q 542 433 524 481 q 558 274 558 393 q 535 106 558 167 q 459 17 513 44 q 313 -11 406 -11 m 239 -306 q 297 -290 285 -306 q 310 -228 310 -275 l 310 -206 l 264 -206 l 264 -86 l 375 -86 l 375 -194 q 365 -294 375 -261 q 327 -340 356 -326 q 239 -353 299 -353 l 239 -306 z "},"Ṣ":{"ha":615,"x_min":56,"x_max":558,"o":"m 313 -11 q 75 7 183 -11 l 75 97 q 182 85 124 90 q 281 81 240 81 q 369 88 336 81 q 422 115 401 96 q 448 168 442 133 q 454 261 454 203 q 449 368 454 338 q 423 412 443 399 q 351 433 403 425 l 190 458 q 103 498 132 468 q 65 575 74 528 q 56 701 56 622 q 117 906 56 846 q 313 967 178 967 q 524 944 442 967 l 524 858 q 336 875 431 875 q 242 865 276 875 q 189 833 207 854 q 165 782 171 813 q 160 704 160 751 q 165 612 160 640 q 188 572 171 583 q 243 554 204 561 l 399 529 q 490 500 457 519 q 542 433 524 481 q 558 274 558 393 q 535 106 558 167 q 459 17 513 44 q 313 -11 406 -11 m 250 -211 l 250 -86 l 364 -86 l 364 -211 l 250 -211 z "},"ẞ":{"ha":771,"x_min":89,"x_max":704,"o":"m 483 519 q 651 457 599 519 q 704 254 704 394 q 682 106 704 163 q 605 19 660 49 q 451 -11 550 -11 q 367 -5 414 -11 q 285 11 321 1 l 285 96 q 440 81 382 81 q 533 94 500 81 q 583 145 567 107 q 600 257 600 183 q 572 398 600 357 q 478 439 544 439 l 357 439 l 357 515 l 553 854 q 376 875 468 875 q 253 852 289 875 q 205 759 217 829 q 193 519 193 689 l 193 0 l 89 0 l 89 519 q 109 800 89 708 q 185 929 129 892 q 361 967 242 967 q 523 953 444 967 q 657 919 601 940 l 657 842 l 471 519 l 483 519 z "},"Ə":{"ha":711,"x_min":74,"x_max":638,"o":"m 342 967 q 534 929 474 967 q 616 792 594 892 q 638 478 638 693 q 621 159 638 256 q 547 26 604 63 q 356 -11 489 -11 q 164 26 221 -11 q 90 158 107 63 q 74 478 74 254 l 74 529 l 532 529 q 516 761 531 692 q 458 853 501 831 q 313 875 414 875 q 151 861 238 875 l 151 947 q 240 961 188 956 q 342 967 292 967 m 356 79 q 473 99 439 79 q 519 190 507 118 q 533 438 532 261 l 178 438 q 192 190 179 261 q 238 99 204 118 q 356 79 272 79 z "},"T":{"ha":574,"x_min":22,"x_max":551,"o":"m 235 0 l 235 861 l 22 861 l 22 956 l 551 956 l 551 861 l 339 861 l 339 0 l 235 0 z "},"Ŧ":{"ha":574,"x_min":22,"x_max":551,"o":"m 551 861 l 339 861 l 339 517 l 515 517 l 515 433 l 339 433 l 339 0 l 235 0 l 235 433 l 58 433 l 58 517 l 235 517 l 235 861 l 22 861 l 22 956 l 551 956 l 551 861 z "},"Ť":{"ha":574,"x_min":22,"x_max":551,"o":"m 235 0 l 235 861 l 22 861 l 22 956 l 551 956 l 551 861 l 339 861 l 339 0 l 235 0 m 233 1040 l 126 1225 l 126 1233 l 196 1233 l 288 1099 l 378 1233 l 447 1233 l 447 1225 l 340 1040 l 233 1040 z "},"Ţ":{"ha":574,"x_min":22,"x_max":551,"o":"m 22 956 l 551 956 l 551 861 l 339 861 l 339 0 l 321 0 l 265 -264 l 168 -264 l 168 -257 l 250 0 l 235 0 l 235 861 l 22 861 l 22 956 z "},"Ț":{"ha":574,"x_min":22,"x_max":551,"o":"m 235 0 l 235 861 l 22 861 l 22 956 l 551 956 l 551 861 l 339 861 l 339 0 l 235 0 m 219 -306 q 278 -290 265 -306 q 290 -228 290 -275 l 290 -206 l 244 -206 l 244 -86 l 356 -86 l 356 -194 q 346 -294 356 -261 q 308 -340 336 -326 q 219 -353 279 -353 l 219 -306 z "},"Ṭ":{"ha":574,"x_min":22,"x_max":551,"o":"m 235 0 l 235 861 l 22 861 l 22 956 l 551 956 l 551 861 l 339 861 l 339 0 l 235 0 m 231 -211 l 231 -86 l 344 -86 l 344 -211 l 231 -211 z "},"U":{"ha":714,"x_min":89,"x_max":624,"o":"m 624 956 l 624 415 q 607 144 624 229 q 535 24 590 60 q 357 -11 481 -11 q 178 24 233 -11 q 106 145 122 60 q 89 415 89 231 l 89 956 l 193 956 l 193 368 q 203 181 193 236 q 245 103 213 125 q 357 81 278 81 q 469 103 436 81 q 510 181 501 125 q 519 368 519 236 l 519 956 l 624 956 z "},"Ú":{"ha":714,"x_min":89,"x_max":624,"o":"m 624 956 l 624 415 q 607 144 624 229 q 535 24 590 60 q 357 -11 481 -11 q 178 24 233 -11 q 106 145 122 60 q 89 415 89 231 l 89 956 l 193 956 l 193 368 q 203 181 193 236 q 245 103 213 125 q 357 81 278 81 q 469 103 436 81 q 510 181 501 125 q 519 368 519 236 l 519 956 l 624 956 m 318 1042 l 318 1049 l 393 1238 l 497 1238 l 497 1231 l 390 1042 l 318 1042 z "},"Ŭ":{"ha":714,"x_min":89,"x_max":624,"o":"m 624 956 l 624 415 q 607 144 624 229 q 535 24 590 60 q 357 -11 481 -11 q 178 24 233 -11 q 106 145 122 60 q 89 415 89 231 l 89 956 l 193 956 l 193 368 q 203 181 193 236 q 245 103 213 125 q 357 81 278 81 q 469 103 436 81 q 510 181 501 125 q 519 368 519 236 l 519 956 l 624 956 m 511 1233 q 502 1124 511 1164 q 459 1060 493 1083 q 354 1036 425 1036 q 251 1060 285 1036 q 209 1124 218 1083 q 200 1233 200 1164 l 269 1233 q 274 1155 269 1181 q 296 1115 278 1129 q 354 1100 314 1100 q 415 1115 396 1100 q 438 1155 433 1129 q 442 1233 442 1181 l 511 1233 z "},"Ǔ":{"ha":714,"x_min":89,"x_max":624,"o":"m 624 956 l 624 415 q 607 144 624 229 q 535 24 590 60 q 357 -11 481 -11 q 178 24 233 -11 q 106 145 122 60 q 89 415 89 231 l 89 956 l 193 956 l 193 368 q 203 181 193 236 q 245 103 213 125 q 357 81 278 81 q 469 103 436 81 q 510 181 501 125 q 519 368 519 236 l 519 956 l 624 956 m 303 1040 l 196 1225 l 196 1233 l 265 1233 l 357 1099 l 447 1233 l 517 1233 l 517 1225 l 410 1040 l 303 1040 z "},"Û":{"ha":714,"x_min":89,"x_max":624,"o":"m 624 956 l 624 415 q 607 144 624 229 q 535 24 590 60 q 357 -11 481 -11 q 178 24 233 -11 q 106 145 122 60 q 89 415 89 231 l 89 956 l 193 956 l 193 368 q 203 181 193 236 q 245 103 213 125 q 357 81 278 81 q 469 103 436 81 q 510 181 501 125 q 519 368 519 236 l 519 956 l 624 956 m 196 1042 l 196 1050 l 303 1233 l 411 1233 l 517 1050 l 517 1042 l 447 1042 l 357 1176 l 265 1042 l 196 1042 z "},"Ȕ":{"ha":714,"x_min":89,"x_max":624,"o":"m 624 956 l 624 415 q 607 144 624 229 q 535 24 590 60 q 357 -11 481 -11 q 178 24 233 -11 q 106 145 122 60 q 89 415 89 231 l 89 956 l 193 956 l 193 368 q 203 181 193 236 q 245 103 213 125 q 357 81 278 81 q 469 103 436 81 q 510 181 501 125 q 519 368 519 236 l 519 956 l 624 956 m 303 1049 l 239 1049 l 143 1213 l 143 1218 l 235 1218 l 303 1054 l 303 1049 m 488 1049 l 424 1049 l 326 1213 l 326 1218 l 419 1218 l 488 1054 l 488 1049 z "},"Ü":{"ha":714,"x_min":89,"x_max":624,"o":"m 624 956 l 624 415 q 607 144 624 229 q 535 24 590 60 q 357 -11 481 -11 q 178 24 233 -11 q 106 145 122 60 q 89 415 89 231 l 89 956 l 193 956 l 193 368 q 203 181 193 236 q 245 103 213 125 q 357 81 278 81 q 469 103 436 81 q 510 181 501 125 q 519 368 519 236 l 519 956 l 624 956 m 186 1076 l 186 1182 l 281 1182 l 281 1076 l 186 1076 m 433 1076 l 433 1182 l 528 1182 l 528 1076 l 433 1076 z "},"Ǘ":{"ha":714,"x_min":89,"x_max":624,"o":"m 624 956 l 624 415 q 607 144 624 229 q 535 24 590 60 q 357 -11 481 -11 q 178 24 233 -11 q 106 145 122 60 q 89 415 89 231 l 89 956 l 193 956 l 193 368 q 203 181 193 236 q 245 103 213 125 q 357 81 278 81 q 469 103 436 81 q 510 181 501 125 q 519 368 519 236 l 519 956 l 624 956 m 186 1110 l 186 1215 l 281 1215 l 281 1110 l 186 1110 m 433 1110 l 433 1215 l 528 1215 l 528 1110 l 433 1110 m 315 1214 l 315 1221 l 390 1410 l 494 1410 l 494 1403 l 388 1214 l 315 1214 z "},"Ǚ":{"ha":714,"x_min":89,"x_max":624,"o":"m 624 956 l 624 415 q 607 144 624 229 q 535 24 590 60 q 357 -11 481 -11 q 178 24 233 -11 q 106 145 122 60 q 89 415 89 231 l 89 956 l 193 956 l 193 368 q 203 181 193 236 q 245 103 213 125 q 357 81 278 81 q 469 103 436 81 q 510 181 501 125 q 519 368 519 236 l 519 956 l 624 956 m 186 1110 l 186 1215 l 281 1215 l 281 1110 l 186 1110 m 433 1110 l 433 1215 l 528 1215 l 528 1110 l 433 1110 m 306 1217 l 199 1401 l 199 1410 l 268 1410 l 360 1275 l 450 1410 l 519 1410 l 519 1401 l 413 1217 l 306 1217 z "},"Ǜ":{"ha":714,"x_min":89,"x_max":624,"o":"m 624 956 l 624 415 q 607 144 624 229 q 535 24 590 60 q 357 -11 481 -11 q 178 24 233 -11 q 106 145 122 60 q 89 415 89 231 l 89 956 l 193 956 l 193 368 q 203 181 193 236 q 245 103 213 125 q 357 81 278 81 q 469 103 436 81 q 510 181 501 125 q 519 368 519 236 l 519 956 l 624 956 m 186 1110 l 186 1215 l 281 1215 l 281 1110 l 186 1110 m 433 1110 l 433 1215 l 528 1215 l 528 1110 l 433 1110 m 331 1214 l 224 1403 l 224 1410 l 328 1410 l 403 1221 l 403 1214 l 331 1214 z "},"Ǖ":{"ha":714,"x_min":89,"x_max":624,"o":"m 224 1317 l 224 1407 l 496 1407 l 496 1317 l 224 1317 m 186 1110 l 186 1215 l 281 1215 l 281 1110 l 186 1110 m 433 1110 l 433 1215 l 528 1215 l 528 1110 l 433 1110 m 624 956 l 624 415 q 607 144 624 229 q 535 24 590 60 q 357 -11 481 -11 q 178 24 233 -11 q 106 145 122 60 q 89 415 89 231 l 89 956 l 193 956 l 193 368 q 203 181 193 236 q 245 103 213 125 q 357 81 278 81 q 469 103 436 81 q 510 181 501 125 q 519 368 519 236 l 519 956 l 624 956 z "},"Ụ":{"ha":714,"x_min":89,"x_max":624,"o":"m 624 956 l 624 415 q 607 144 624 229 q 535 24 590 60 q 357 -11 481 -11 q 178 24 233 -11 q 106 145 122 60 q 89 415 89 231 l 89 956 l 193 956 l 193 368 q 203 181 193 236 q 245 103 213 125 q 357 81 278 81 q 469 103 436 81 q 510 181 501 125 q 519 368 519 236 l 519 956 l 624 956 m 300 -211 l 300 -86 l 414 -86 l 414 -211 l 300 -211 z "},"Ù":{"ha":714,"x_min":89,"x_max":624,"o":"m 624 956 l 624 415 q 607 144 624 229 q 535 24 590 60 q 357 -11 481 -11 q 178 24 233 -11 q 106 145 122 60 q 89 415 89 231 l 89 956 l 193 956 l 193 368 q 203 181 193 236 q 245 103 213 125 q 357 81 278 81 q 469 103 436 81 q 510 181 501 125 q 519 368 519 236 l 519 956 l 624 956 m 336 1042 l 229 1231 l 229 1238 l 333 1238 l 408 1049 l 408 1042 l 336 1042 z "},"Ủ":{"ha":714,"x_min":89,"x_max":624,"o":"m 624 956 l 624 415 q 607 144 624 229 q 535 24 590 60 q 357 -11 481 -11 q 178 24 233 -11 q 106 145 122 60 q 89 415 89 231 l 89 956 l 193 956 l 193 368 q 203 181 193 236 q 245 103 213 125 q 357 81 278 81 q 469 103 436 81 q 510 181 501 125 q 519 368 519 236 l 519 956 l 624 956 m 293 1035 q 305 1081 293 1068 q 349 1104 317 1094 l 368 1111 q 410 1131 399 1121 q 421 1165 421 1142 q 415 1194 421 1185 q 392 1206 408 1203 q 338 1210 375 1210 q 219 1203 292 1210 l 219 1264 q 347 1275 300 1275 q 462 1253 429 1275 q 494 1174 494 1231 q 482 1110 494 1132 q 429 1074 469 1089 l 410 1067 q 366 1047 374 1054 q 358 1021 358 1040 l 293 1021 l 293 1035 z "},"Ư":{"ha":714,"x_min":89,"x_max":746,"o":"m 746 1090 l 746 1044 q 736 961 746 990 q 701 919 726 932 q 624 903 675 906 l 624 415 q 607 144 624 229 q 535 24 590 60 q 357 -11 481 -11 q 178 24 233 -11 q 106 145 122 60 q 89 415 89 231 l 89 956 l 193 956 l 193 368 q 203 181 193 236 q 245 103 213 125 q 357 81 278 81 q 469 103 436 81 q 510 181 501 125 q 519 368 519 236 l 519 956 l 599 956 q 660 970 647 956 q 674 1028 674 985 l 674 1090 l 746 1090 z "},"Ứ":{"ha":714,"x_min":89,"x_max":746,"o":"m 746 1090 l 746 1044 q 736 961 746 990 q 701 919 726 932 q 624 903 675 906 l 624 415 q 607 144 624 229 q 535 24 590 60 q 357 -11 481 -11 q 178 24 233 -11 q 106 145 122 60 q 89 415 89 231 l 89 956 l 193 956 l 193 368 q 203 181 193 236 q 245 103 213 125 q 357 81 278 81 q 469 103 436 81 q 510 181 501 125 q 519 368 519 236 l 519 956 l 599 956 q 660 970 647 956 q 674 1028 674 985 l 674 1090 l 746 1090 m 313 1038 l 313 1044 l 388 1233 l 492 1233 l 492 1226 l 385 1038 l 313 1038 z "},"Ự":{"ha":714,"x_min":89,"x_max":746,"o":"m 746 1090 l 746 1044 q 736 961 746 990 q 701 919 726 932 q 624 903 675 906 l 624 415 q 607 144 624 229 q 535 24 590 60 q 357 -11 481 -11 q 178 24 233 -11 q 106 145 122 60 q 89 415 89 231 l 89 956 l 193 956 l 193 368 q 203 181 193 236 q 245 103 213 125 q 357 81 278 81 q 469 103 436 81 q 510 181 501 125 q 519 368 519 236 l 519 956 l 599 956 q 660 970 647 956 q 674 1028 674 985 l 674 1090 l 746 1090 m 300 -211 l 300 -86 l 414 -86 l 414 -211 l 300 -211 z "},"Ừ":{"ha":714,"x_min":89,"x_max":746,"o":"m 746 1090 l 746 1044 q 736 961 746 990 q 701 919 726 932 q 624 903 675 906 l 624 415 q 607 144 624 229 q 535 24 590 60 q 357 -11 481 -11 q 178 24 233 -11 q 106 145 122 60 q 89 415 89 231 l 89 956 l 193 956 l 193 368 q 203 181 193 236 q 245 103 213 125 q 357 81 278 81 q 469 103 436 81 q 510 181 501 125 q 519 368 519 236 l 519 956 l 599 956 q 660 970 647 956 q 674 1028 674 985 l 674 1090 l 746 1090 m 328 1038 l 221 1226 l 221 1233 l 325 1233 l 400 1044 l 400 1038 l 328 1038 z "},"Ử":{"ha":714,"x_min":89,"x_max":746,"o":"m 746 1090 l 746 1044 q 736 961 746 990 q 701 919 726 932 q 624 903 675 906 l 624 415 q 607 144 624 229 q 535 24 590 60 q 357 -11 481 -11 q 178 24 233 -11 q 106 145 122 60 q 89 415 89 231 l 89 956 l 193 956 l 193 368 q 203 181 193 236 q 245 103 213 125 q 357 81 278 81 q 469 103 436 81 q 510 181 501 125 q 519 368 519 236 l 519 956 l 599 956 q 660 970 647 956 q 674 1028 674 985 l 674 1090 l 746 1090 m 293 1035 q 305 1081 293 1068 q 349 1104 317 1094 l 368 1111 q 410 1131 399 1121 q 421 1165 421 1142 q 415 1194 421 1185 q 392 1206 408 1203 q 338 1210 375 1210 q 219 1203 292 1210 l 219 1264 q 347 1275 300 1275 q 462 1253 429 1275 q 494 1174 494 1231 q 482 1110 494 1132 q 429 1074 469 1089 l 410 1067 q 366 1047 374 1054 q 358 1021 358 1040 l 293 1021 l 293 1035 z "},"Ữ":{"ha":714,"x_min":89,"x_max":746,"o":"m 746 1090 l 746 1044 q 736 961 746 990 q 701 919 726 932 q 624 903 675 906 l 624 415 q 607 144 624 229 q 535 24 590 60 q 357 -11 481 -11 q 178 24 233 -11 q 106 145 122 60 q 89 415 89 231 l 89 956 l 193 956 l 193 368 q 203 181 193 236 q 245 103 213 125 q 357 81 278 81 q 469 103 436 81 q 510 181 501 125 q 519 368 519 236 l 519 956 l 599 956 q 660 970 647 956 q 674 1028 674 985 l 674 1090 l 746 1090 m 551 1233 q 535 1115 551 1147 q 465 1082 519 1082 q 410 1090 438 1082 q 347 1114 383 1099 q 320 1126 340 1117 q 283 1139 300 1135 q 254 1143 267 1143 q 228 1127 233 1143 q 222 1067 222 1111 l 161 1067 q 177 1185 161 1153 q 247 1218 193 1218 q 302 1209 274 1218 q 368 1185 331 1200 q 417 1165 393 1174 q 458 1157 442 1157 q 485 1173 479 1157 q 490 1233 490 1189 l 551 1233 z "},"Ű":{"ha":714,"x_min":89,"x_max":624,"o":"m 624 956 l 624 415 q 607 144 624 229 q 535 24 590 60 q 357 -11 481 -11 q 178 24 233 -11 q 106 145 122 60 q 89 415 89 231 l 89 956 l 193 956 l 193 368 q 203 181 193 236 q 245 103 213 125 q 357 81 278 81 q 469 103 436 81 q 510 181 501 125 q 519 368 519 236 l 519 956 l 624 956 m 233 1049 l 233 1054 l 301 1218 l 394 1218 l 394 1213 l 297 1049 l 233 1049 m 418 1049 l 418 1054 l 486 1218 l 578 1218 l 578 1213 l 482 1049 l 418 1049 z "},"Ȗ":{"ha":714,"x_min":89,"x_max":624,"o":"m 624 956 l 624 415 q 607 144 624 229 q 535 24 590 60 q 357 -11 481 -11 q 178 24 233 -11 q 106 145 122 60 q 89 415 89 231 l 89 956 l 193 956 l 193 368 q 203 181 193 236 q 245 103 213 125 q 357 81 278 81 q 469 103 436 81 q 510 181 501 125 q 519 368 519 236 l 519 956 l 624 956 m 201 1044 q 210 1154 201 1114 q 253 1218 219 1194 q 358 1242 288 1242 q 461 1218 428 1242 q 503 1154 494 1194 q 513 1044 513 1114 l 443 1044 q 439 1123 443 1097 q 417 1163 435 1149 q 358 1178 399 1178 q 298 1163 317 1178 q 275 1123 279 1149 q 271 1044 271 1097 l 201 1044 z "},"Ū":{"ha":714,"x_min":89,"x_max":624,"o":"m 624 956 l 624 415 q 607 144 624 229 q 535 24 590 60 q 357 -11 481 -11 q 178 24 233 -11 q 106 145 122 60 q 89 415 89 231 l 89 956 l 193 956 l 193 368 q 203 181 193 236 q 245 103 213 125 q 357 81 278 81 q 469 103 436 81 q 510 181 501 125 q 519 368 519 236 l 519 956 l 624 956 m 221 1142 l 221 1233 l 493 1233 l 493 1142 l 221 1142 z "},"Ų":{"ha":714,"x_min":89,"x_max":624,"o":"m 624 956 l 624 415 q 617 217 624 290 q 592 96 611 143 q 536 24 574 49 q 458 -53 488 -8 q 428 -147 428 -99 q 492 -206 428 -206 q 515 -204 506 -206 l 515 -269 q 467 -272 494 -272 q 372 -244 401 -272 q 343 -167 343 -215 q 363 -88 343 -129 q 418 -8 383 -47 q 357 -11 399 -11 q 178 24 233 -11 q 106 145 122 60 q 89 415 89 231 l 89 956 l 193 956 l 193 368 q 203 181 193 236 q 245 103 213 125 q 357 81 278 81 q 469 103 436 81 q 510 181 501 125 q 519 368 519 236 l 519 956 l 624 956 z "},"Ů":{"ha":714,"x_min":89,"x_max":624,"o":"m 624 956 l 624 415 q 607 144 624 229 q 535 24 590 60 q 357 -11 481 -11 q 178 24 233 -11 q 106 145 122 60 q 89 415 89 231 l 89 956 l 193 956 l 193 368 q 203 181 193 236 q 245 103 213 125 q 357 81 278 81 q 469 103 436 81 q 510 181 501 125 q 519 368 519 236 l 519 956 l 624 956 m 356 1010 q 260 1022 290 1010 q 222 1062 231 1035 q 214 1143 214 1089 q 222 1224 214 1197 q 260 1265 231 1251 q 356 1278 290 1278 q 451 1265 421 1278 q 491 1224 482 1251 q 500 1143 500 1197 q 491 1062 500 1089 q 451 1022 482 1035 q 356 1010 421 1010 m 356 1065 q 407 1072 392 1065 q 426 1093 422 1078 q 431 1143 431 1108 q 426 1193 431 1178 q 407 1215 422 1208 q 356 1221 392 1221 q 306 1214 321 1221 q 286 1192 290 1207 q 282 1143 282 1178 q 286 1094 282 1108 q 306 1072 290 1079 q 356 1065 321 1065 z "},"Ũ":{"ha":714,"x_min":89,"x_max":624,"o":"m 624 956 l 624 415 q 607 144 624 229 q 535 24 590 60 q 357 -11 481 -11 q 178 24 233 -11 q 106 145 122 60 q 89 415 89 231 l 89 956 l 193 956 l 193 368 q 203 181 193 236 q 245 103 213 125 q 357 81 278 81 q 469 103 436 81 q 510 181 501 125 q 519 368 519 236 l 519 956 l 624 956 m 551 1233 q 535 1115 551 1147 q 465 1082 519 1082 q 410 1090 438 1082 q 347 1114 383 1099 q 320 1126 340 1117 q 283 1139 300 1135 q 254 1143 267 1143 q 228 1127 233 1143 q 222 1067 222 1111 l 161 1067 q 177 1185 161 1153 q 247 1218 193 1218 q 302 1209 274 1218 q 368 1185 331 1200 q 417 1165 393 1174 q 458 1157 442 1157 q 485 1173 479 1157 q 490 1233 490 1189 l 551 1233 z "},"V":{"ha":642,"x_min":14,"x_max":626,"o":"m 253 0 l 14 956 l 122 956 l 318 138 l 326 138 l 522 956 l 626 956 l 389 0 l 253 0 z "},"W":{"ha":960,"x_min":19,"x_max":944,"o":"m 638 0 l 485 776 l 479 776 l 328 0 l 197 0 l 19 956 l 126 956 l 264 151 l 271 151 l 425 956 l 542 956 l 697 151 l 706 151 l 840 956 l 944 956 l 767 0 l 638 0 z "},"Ẃ":{"ha":960,"x_min":19,"x_max":944,"o":"m 638 0 l 485 776 l 479 776 l 328 0 l 197 0 l 19 956 l 126 956 l 264 151 l 271 151 l 425 956 l 542 956 l 697 151 l 706 151 l 840 956 l 944 956 l 767 0 l 638 0 m 436 1038 l 436 1044 l 511 1233 l 615 1233 l 615 1226 l 508 1038 l 436 1038 z "},"Ŵ":{"ha":960,"x_min":19,"x_max":944,"o":"m 638 0 l 485 776 l 479 776 l 328 0 l 197 0 l 19 956 l 126 956 l 264 151 l 271 151 l 425 956 l 542 956 l 697 151 l 706 151 l 840 956 l 944 956 l 767 0 l 638 0 m 319 1042 l 319 1050 l 426 1233 l 535 1233 l 640 1050 l 640 1042 l 571 1042 l 481 1176 l 389 1042 l 319 1042 z "},"Ẅ":{"ha":960,"x_min":19,"x_max":944,"o":"m 638 0 l 485 776 l 479 776 l 328 0 l 197 0 l 19 956 l 126 956 l 264 151 l 271 151 l 425 956 l 542 956 l 697 151 l 706 151 l 840 956 l 944 956 l 767 0 l 638 0 m 310 1110 l 310 1215 l 404 1215 l 404 1110 l 310 1110 m 557 1110 l 557 1215 l 651 1215 l 651 1110 l 557 1110 z "},"Ẁ":{"ha":960,"x_min":19,"x_max":944,"o":"m 638 0 l 485 776 l 479 776 l 328 0 l 197 0 l 19 956 l 126 956 l 264 151 l 271 151 l 425 956 l 542 956 l 697 151 l 706 151 l 840 956 l 944 956 l 767 0 l 638 0 m 451 1038 l 344 1226 l 344 1233 l 449 1233 l 524 1044 l 524 1038 l 451 1038 z "},"X":{"ha":672,"x_min":24,"x_max":649,"o":"m 532 0 l 338 392 l 329 392 l 136 0 l 24 0 l 269 481 l 26 956 l 143 956 l 335 571 l 342 571 l 533 956 l 646 956 l 403 483 l 649 0 l 532 0 z "},"Y":{"ha":601,"x_min":3,"x_max":599,"o":"m 249 0 l 249 368 l 3 956 l 113 956 l 299 492 l 307 492 l 493 956 l 599 956 l 351 368 l 351 0 l 249 0 z "},"Ý":{"ha":601,"x_min":3,"x_max":599,"o":"m 249 0 l 249 368 l 3 956 l 113 956 l 299 492 l 307 492 l 493 956 l 599 956 l 351 368 l 351 0 l 249 0 m 265 1042 l 265 1049 l 340 1238 l 444 1238 l 444 1231 l 338 1042 l 265 1042 z "},"Ŷ":{"ha":601,"x_min":3,"x_max":599,"o":"m 249 0 l 249 368 l 3 956 l 113 956 l 299 492 l 307 492 l 493 956 l 599 956 l 351 368 l 351 0 l 249 0 m 140 1042 l 140 1050 l 247 1233 l 356 1233 l 461 1050 l 461 1042 l 392 1042 l 301 1176 l 210 1042 l 140 1042 z "},"Ÿ":{"ha":601,"x_min":3,"x_max":599,"o":"m 249 0 l 249 368 l 3 956 l 113 956 l 299 492 l 307 492 l 493 956 l 599 956 l 351 368 l 351 0 l 249 0 m 133 1076 l 133 1182 l 228 1182 l 228 1076 l 133 1076 m 381 1076 l 381 1182 l 475 1182 l 475 1076 l 381 1076 z "},"Ỵ":{"ha":601,"x_min":3,"x_max":599,"o":"m 249 0 l 249 368 l 3 956 l 113 956 l 299 492 l 307 492 l 493 956 l 599 956 l 351 368 l 351 0 l 249 0 m 244 -211 l 244 -86 l 358 -86 l 358 -211 l 244 -211 z "},"Ỳ":{"ha":601,"x_min":3,"x_max":599,"o":"m 249 0 l 249 368 l 3 956 l 113 956 l 299 492 l 307 492 l 493 956 l 599 956 l 351 368 l 351 0 l 249 0 m 272 1038 l 165 1226 l 165 1233 l 269 1233 l 344 1044 l 344 1038 l 272 1038 z "},"Ỷ":{"ha":601,"x_min":3,"x_max":599,"o":"m 249 0 l 249 368 l 3 956 l 113 956 l 299 492 l 307 492 l 493 956 l 599 956 l 351 368 l 351 0 l 249 0 m 238 1035 q 249 1081 238 1068 q 293 1104 261 1094 l 313 1111 q 354 1131 343 1121 q 365 1165 365 1142 q 359 1194 365 1185 q 336 1206 353 1203 q 282 1210 319 1210 q 164 1203 236 1210 l 164 1264 q 292 1275 244 1275 q 406 1253 374 1275 q 439 1174 439 1231 q 426 1110 439 1132 q 374 1074 414 1089 l 354 1067 q 310 1047 318 1054 q 303 1021 303 1040 l 238 1021 l 238 1035 z "},"Ȳ":{"ha":601,"x_min":3,"x_max":599,"o":"m 249 0 l 249 368 l 3 956 l 113 956 l 299 492 l 307 492 l 493 956 l 599 956 l 351 368 l 351 0 l 249 0 m 165 1142 l 165 1233 l 438 1233 l 438 1142 l 165 1142 z "},"Ỹ":{"ha":601,"x_min":3,"x_max":599,"o":"m 249 0 l 249 368 l 3 956 l 113 956 l 299 492 l 307 492 l 493 956 l 599 956 l 351 368 l 351 0 l 249 0 m 496 1233 q 480 1115 496 1147 q 410 1082 464 1082 q 355 1090 382 1082 q 292 1114 328 1099 q 265 1126 285 1117 q 228 1139 244 1135 q 199 1143 211 1143 q 172 1127 178 1143 q 167 1067 167 1111 l 106 1067 q 122 1185 106 1153 q 192 1218 138 1218 q 247 1209 218 1218 q 313 1185 275 1200 q 362 1165 338 1174 q 403 1157 386 1157 q 429 1173 424 1157 q 435 1233 435 1189 l 496 1233 z "},"Z":{"ha":589,"x_min":40,"x_max":550,"o":"m 40 0 l 40 86 l 421 864 l 51 864 l 51 956 l 544 956 l 544 869 l 163 92 l 550 92 l 550 0 l 40 0 z "},"Ź":{"ha":589,"x_min":40,"x_max":550,"o":"m 40 0 l 40 86 l 421 864 l 51 864 l 51 956 l 544 956 l 544 869 l 163 92 l 550 92 l 550 0 l 40 0 m 250 1038 l 250 1044 l 325 1233 l 429 1233 l 429 1226 l 322 1038 l 250 1038 z "},"Ž":{"ha":589,"x_min":40,"x_max":550,"o":"m 40 0 l 40 86 l 421 864 l 51 864 l 51 956 l 544 956 l 544 869 l 163 92 l 550 92 l 550 0 l 40 0 m 251 1040 l 144 1225 l 144 1233 l 214 1233 l 306 1099 l 396 1233 l 465 1233 l 465 1225 l 358 1040 l 251 1040 z "},"Ż":{"ha":589,"x_min":40,"x_max":550,"o":"m 40 0 l 40 86 l 421 864 l 51 864 l 51 956 l 544 956 l 544 869 l 163 92 l 550 92 l 550 0 l 40 0 m 246 1110 l 246 1215 l 340 1215 l 340 1110 l 246 1110 z "},"Ẓ":{"ha":589,"x_min":40,"x_max":550,"o":"m 40 0 l 40 86 l 421 864 l 51 864 l 51 956 l 544 956 l 544 869 l 163 92 l 550 92 l 550 0 l 40 0 m 238 -211 l 238 -86 l 351 -86 l 351 -211 l 238 -211 z "},"a":{"ha":590,"x_min":47,"x_max":507,"o":"m 231 -11 q 90 33 133 -11 q 47 194 47 78 q 63 320 47 275 q 117 385 79 365 q 225 404 156 404 q 408 397 265 404 l 408 447 q 397 573 408 535 q 353 623 385 611 q 250 635 322 635 q 167 630 218 635 q 82 619 117 625 l 82 700 q 278 719 172 719 q 423 696 375 719 q 489 615 471 672 q 507 449 507 558 l 507 0 l 419 0 l 414 97 l 407 97 q 340 10 386 32 q 231 -11 293 -11 m 263 74 q 342 85 311 74 q 388 136 372 97 q 408 285 408 192 l 408 331 l 250 331 q 184 322 206 331 q 153 285 163 313 q 144 201 144 258 q 153 121 144 147 q 188 84 163 94 q 263 74 213 74 z "},"á":{"ha":590,"x_min":47,"x_max":507,"o":"m 231 -11 q 90 33 133 -11 q 47 194 47 78 q 63 320 47 275 q 117 385 79 365 q 225 404 156 404 q 408 397 265 404 l 408 447 q 397 573 408 535 q 353 623 385 611 q 250 635 322 635 q 167 630 218 635 q 82 619 117 625 l 82 700 q 278 719 172 719 q 423 696 375 719 q 489 615 471 672 q 507 449 507 558 l 507 0 l 419 0 l 414 97 l 407 97 q 340 10 386 32 q 231 -11 293 -11 m 263 74 q 342 85 311 74 q 388 136 372 97 q 408 285 408 192 l 408 331 l 250 331 q 184 322 206 331 q 153 285 163 313 q 144 201 144 258 q 153 121 144 147 q 188 84 163 94 q 263 74 213 74 m 249 836 l 249 843 l 324 1032 l 428 1032 l 428 1025 l 321 836 l 249 836 z "},"ă":{"ha":590,"x_min":47,"x_max":507,"o":"m 231 -11 q 90 33 133 -11 q 47 194 47 78 q 63 320 47 275 q 117 385 79 365 q 225 404 156 404 q 408 397 265 404 l 408 447 q 397 573 408 535 q 353 623 385 611 q 250 635 322 635 q 167 630 218 635 q 82 619 117 625 l 82 700 q 278 719 172 719 q 423 696 375 719 q 489 615 471 672 q 507 449 507 558 l 507 0 l 419 0 l 414 97 l 407 97 q 340 10 386 32 q 231 -11 293 -11 m 263 74 q 342 85 311 74 q 388 136 372 97 q 408 285 408 192 l 408 331 l 250 331 q 184 322 206 331 q 153 285 163 313 q 144 201 144 258 q 153 121 144 147 q 188 84 163 94 q 263 74 213 74 m 450 1032 q 441 922 450 963 q 398 858 432 882 q 293 835 364 835 q 190 858 224 835 q 148 922 157 882 q 139 1032 139 963 l 208 1032 q 213 953 208 979 q 235 913 217 928 q 293 899 253 899 q 353 913 335 899 q 376 953 372 928 q 381 1032 381 979 l 450 1032 z "},"ắ":{"ha":590,"x_min":47,"x_max":507,"o":"m 231 -11 q 90 33 133 -11 q 47 194 47 78 q 63 320 47 275 q 117 385 79 365 q 225 404 156 404 q 408 397 265 404 l 408 447 q 397 573 408 535 q 353 623 385 611 q 250 635 322 635 q 167 630 218 635 q 82 619 117 625 l 82 700 q 278 719 172 719 q 423 696 375 719 q 489 615 471 672 q 507 449 507 558 l 507 0 l 419 0 l 414 97 l 407 97 q 340 10 386 32 q 231 -11 293 -11 m 263 74 q 342 85 311 74 q 388 136 372 97 q 408 285 408 192 l 408 331 l 250 331 q 184 322 206 331 q 153 285 163 313 q 144 201 144 258 q 153 121 144 147 q 188 84 163 94 q 263 74 213 74 m 447 1032 q 438 922 447 963 q 395 858 429 882 q 290 835 361 835 q 188 858 221 835 q 145 922 154 882 q 136 1032 136 963 l 206 1032 q 210 953 206 979 q 232 913 214 928 q 290 899 250 899 q 351 913 332 899 q 374 953 369 928 q 378 1032 378 979 l 447 1032 m 253 1076 l 253 1083 l 328 1272 l 432 1272 l 432 1265 l 325 1076 l 253 1076 z "},"ặ":{"ha":590,"x_min":47,"x_max":507,"o":"m 231 -11 q 90 33 133 -11 q 47 194 47 78 q 63 320 47 275 q 117 385 79 365 q 225 404 156 404 q 408 397 265 404 l 408 447 q 397 573 408 535 q 353 623 385 611 q 250 635 322 635 q 167 630 218 635 q 82 619 117 625 l 82 700 q 278 719 172 719 q 423 696 375 719 q 489 615 471 672 q 507 449 507 558 l 507 0 l 419 0 l 414 97 l 407 97 q 340 10 386 32 q 231 -11 293 -11 m 263 74 q 342 85 311 74 q 388 136 372 97 q 408 285 408 192 l 408 331 l 250 331 q 184 322 206 331 q 153 285 163 313 q 144 201 144 258 q 153 121 144 147 q 188 84 163 94 q 263 74 213 74 m 239 -211 l 239 -86 l 353 -86 l 353 -211 l 239 -211 m 450 1032 q 441 922 450 963 q 398 858 432 882 q 293 835 364 835 q 190 858 224 835 q 148 922 157 882 q 139 1032 139 963 l 208 1032 q 213 953 208 979 q 235 913 217 928 q 293 899 253 899 q 353 913 335 899 q 376 953 372 928 q 381 1032 381 979 l 450 1032 z "},"ằ":{"ha":590,"x_min":47,"x_max":507,"o":"m 231 -11 q 90 33 133 -11 q 47 194 47 78 q 63 320 47 275 q 117 385 79 365 q 225 404 156 404 q 408 397 265 404 l 408 447 q 397 573 408 535 q 353 623 385 611 q 250 635 322 635 q 167 630 218 635 q 82 619 117 625 l 82 700 q 278 719 172 719 q 423 696 375 719 q 489 615 471 672 q 507 449 507 558 l 507 0 l 419 0 l 414 97 l 407 97 q 340 10 386 32 q 231 -11 293 -11 m 263 74 q 342 85 311 74 q 388 136 372 97 q 408 285 408 192 l 408 331 l 250 331 q 184 322 206 331 q 153 285 163 313 q 144 201 144 258 q 153 121 144 147 q 188 84 163 94 q 263 74 213 74 m 453 1032 q 444 922 453 963 q 401 858 435 882 q 296 835 367 835 q 193 858 226 835 q 151 922 160 882 q 142 1032 142 963 l 211 1032 q 215 953 211 979 q 238 913 219 928 q 296 899 256 899 q 356 913 338 899 q 379 953 375 928 q 383 1032 383 979 l 453 1032 m 268 1076 l 161 1265 l 161 1272 l 265 1272 l 340 1083 l 340 1076 l 268 1076 z "},"ẳ":{"ha":590,"x_min":47,"x_max":507,"o":"m 231 -11 q 90 33 133 -11 q 47 194 47 78 q 63 320 47 275 q 117 385 79 365 q 225 404 156 404 q 408 397 265 404 l 408 447 q 397 573 408 535 q 353 623 385 611 q 250 635 322 635 q 167 630 218 635 q 82 619 117 625 l 82 700 q 278 719 172 719 q 423 696 375 719 q 489 615 471 672 q 507 449 507 558 l 507 0 l 419 0 l 414 97 l 407 97 q 340 10 386 32 q 231 -11 293 -11 m 263 74 q 342 85 311 74 q 388 136 372 97 q 408 285 408 192 l 408 331 l 250 331 q 184 322 206 331 q 153 285 163 313 q 144 201 144 258 q 153 121 144 147 q 188 84 163 94 q 263 74 213 74 m 450 1032 q 441 922 450 963 q 398 858 432 882 q 293 835 364 835 q 190 858 224 835 q 148 922 157 882 q 139 1032 139 963 l 208 1032 q 213 953 208 979 q 235 913 217 928 q 293 899 253 899 q 353 913 335 899 q 376 953 372 928 q 381 1032 381 979 l 450 1032 m 242 1047 q 253 1094 242 1081 q 297 1117 265 1107 l 317 1124 q 358 1144 347 1133 q 369 1178 369 1154 q 363 1206 369 1197 q 340 1219 357 1215 q 286 1222 324 1222 q 168 1215 240 1222 l 168 1276 q 296 1288 249 1288 q 410 1265 378 1288 q 443 1186 443 1243 q 431 1123 443 1144 q 378 1088 418 1101 l 358 1079 q 315 1060 322 1067 q 307 1033 307 1053 l 242 1033 l 242 1047 z "},"ẵ":{"ha":590,"x_min":47,"x_max":507,"o":"m 231 -11 q 90 33 133 -11 q 47 194 47 78 q 63 320 47 275 q 117 385 79 365 q 225 404 156 404 q 408 397 265 404 l 408 447 q 397 573 408 535 q 353 623 385 611 q 250 635 322 635 q 167 630 218 635 q 82 619 117 625 l 82 700 q 278 719 172 719 q 423 696 375 719 q 489 615 471 672 q 507 449 507 558 l 507 0 l 419 0 l 414 97 l 407 97 q 340 10 386 32 q 231 -11 293 -11 m 263 74 q 342 85 311 74 q 388 136 372 97 q 408 285 408 192 l 408 331 l 250 331 q 184 322 206 331 q 153 285 163 313 q 144 201 144 258 q 153 121 144 147 q 188 84 163 94 q 263 74 213 74 m 447 1032 q 438 922 447 963 q 395 858 429 882 q 290 835 361 835 q 188 858 221 835 q 145 922 154 882 q 136 1032 136 963 l 206 1032 q 210 953 206 979 q 232 913 214 928 q 290 899 250 899 q 351 913 332 899 q 374 953 369 928 q 378 1032 378 979 l 447 1032 m 490 1279 q 474 1160 490 1193 q 404 1128 458 1128 q 349 1136 376 1128 q 286 1160 322 1144 q 259 1172 279 1163 q 222 1185 239 1181 q 193 1189 206 1189 q 167 1173 172 1189 q 161 1113 161 1157 l 100 1113 q 116 1231 100 1199 q 186 1264 132 1264 q 241 1255 213 1264 q 307 1231 269 1246 q 356 1211 332 1219 q 397 1203 381 1203 q 424 1219 418 1203 q 429 1279 429 1235 l 490 1279 z "},"ǎ":{"ha":590,"x_min":47,"x_max":507,"o":"m 231 -11 q 90 33 133 -11 q 47 194 47 78 q 63 320 47 275 q 117 385 79 365 q 225 404 156 404 q 408 397 265 404 l 408 447 q 397 573 408 535 q 353 623 385 611 q 250 635 322 635 q 167 630 218 635 q 82 619 117 625 l 82 700 q 278 719 172 719 q 423 696 375 719 q 489 615 471 672 q 507 449 507 558 l 507 0 l 419 0 l 414 97 l 407 97 q 340 10 386 32 q 231 -11 293 -11 m 263 74 q 342 85 311 74 q 388 136 372 97 q 408 285 408 192 l 408 331 l 250 331 q 184 322 206 331 q 153 285 163 313 q 144 201 144 258 q 153 121 144 147 q 188 84 163 94 q 263 74 213 74 m 242 839 l 135 1024 l 135 1032 l 204 1032 l 296 897 l 386 1032 l 456 1032 l 456 1024 l 349 839 l 242 839 z "},"â":{"ha":590,"x_min":47,"x_max":507,"o":"m 231 -11 q 90 33 133 -11 q 47 194 47 78 q 63 320 47 275 q 117 385 79 365 q 225 404 156 404 q 408 397 265 404 l 408 447 q 397 573 408 535 q 353 623 385 611 q 250 635 322 635 q 167 630 218 635 q 82 619 117 625 l 82 700 q 278 719 172 719 q 423 696 375 719 q 489 615 471 672 q 507 449 507 558 l 507 0 l 419 0 l 414 97 l 407 97 q 340 10 386 32 q 231 -11 293 -11 m 263 74 q 342 85 311 74 q 388 136 372 97 q 408 285 408 192 l 408 331 l 250 331 q 184 322 206 331 q 153 285 163 313 q 144 201 144 258 q 153 121 144 147 q 188 84 163 94 q 263 74 213 74 m 135 840 l 135 849 l 242 1032 l 350 1032 l 456 849 l 456 840 l 386 840 l 296 975 l 204 840 l 135 840 z "},"ấ":{"ha":590,"x_min":47,"x_max":535,"o":"m 231 -11 q 90 33 133 -11 q 47 194 47 78 q 63 320 47 275 q 117 385 79 365 q 225 404 156 404 q 408 397 265 404 l 408 447 q 397 573 408 535 q 353 623 385 611 q 250 635 322 635 q 167 630 218 635 q 82 619 117 625 l 82 700 q 278 719 172 719 q 423 696 375 719 q 489 615 471 672 q 507 449 507 558 l 507 0 l 419 0 l 414 97 l 407 97 q 340 10 386 32 q 231 -11 293 -11 m 263 74 q 342 85 311 74 q 388 136 372 97 q 408 285 408 192 l 408 331 l 250 331 q 184 322 206 331 q 153 285 163 313 q 144 201 144 258 q 153 121 144 147 q 188 84 163 94 q 263 74 213 74 m 133 840 l 133 849 l 240 1032 l 349 1032 l 454 849 l 454 840 l 385 840 l 294 975 l 203 840 l 133 840 m 356 1049 l 356 1056 l 431 1244 l 535 1244 l 535 1238 l 428 1049 l 356 1049 z "},"ậ":{"ha":590,"x_min":47,"x_max":507,"o":"m 231 -11 q 90 33 133 -11 q 47 194 47 78 q 63 320 47 275 q 117 385 79 365 q 225 404 156 404 q 408 397 265 404 l 408 447 q 397 573 408 535 q 353 623 385 611 q 250 635 322 635 q 167 630 218 635 q 82 619 117 625 l 82 700 q 278 719 172 719 q 423 696 375 719 q 489 615 471 672 q 507 449 507 558 l 507 0 l 419 0 l 414 97 l 407 97 q 340 10 386 32 q 231 -11 293 -11 m 263 74 q 342 85 311 74 q 388 136 372 97 q 408 285 408 192 l 408 331 l 250 331 q 184 322 206 331 q 153 285 163 313 q 144 201 144 258 q 153 121 144 147 q 188 84 163 94 q 263 74 213 74 m 239 -211 l 239 -86 l 353 -86 l 353 -211 l 239 -211 m 135 840 l 135 849 l 242 1032 l 350 1032 l 456 849 l 456 840 l 386 840 l 296 975 l 204 840 l 135 840 z "},"ầ":{"ha":590,"x_min":47,"x_max":507,"o":"m 231 -11 q 90 33 133 -11 q 47 194 47 78 q 63 320 47 275 q 117 385 79 365 q 225 404 156 404 q 408 397 265 404 l 408 447 q 397 573 408 535 q 353 623 385 611 q 250 635 322 635 q 167 630 218 635 q 82 619 117 625 l 82 700 q 278 719 172 719 q 423 696 375 719 q 489 615 471 672 q 507 449 507 558 l 507 0 l 419 0 l 414 97 l 407 97 q 340 10 386 32 q 231 -11 293 -11 m 263 74 q 342 85 311 74 q 388 136 372 97 q 408 285 408 192 l 408 331 l 250 331 q 184 322 206 331 q 153 285 163 313 q 144 201 144 258 q 153 121 144 147 q 188 84 163 94 q 263 74 213 74 m 132 840 l 132 849 l 239 1032 l 347 1032 l 453 849 l 453 840 l 383 840 l 293 975 l 201 840 l 132 840 m 379 1049 l 272 1238 l 272 1244 l 376 1244 l 451 1056 l 451 1049 l 379 1049 z "},"ẩ":{"ha":590,"x_min":47,"x_max":546,"o":"m 231 -11 q 90 33 133 -11 q 47 194 47 78 q 63 320 47 275 q 117 385 79 365 q 225 404 156 404 q 408 397 265 404 l 408 447 q 397 573 408 535 q 353 623 385 611 q 250 635 322 635 q 167 630 218 635 q 82 619 117 625 l 82 700 q 278 719 172 719 q 423 696 375 719 q 489 615 471 672 q 507 449 507 558 l 507 0 l 419 0 l 414 97 l 407 97 q 340 10 386 32 q 231 -11 293 -11 m 263 74 q 342 85 311 74 q 388 136 372 97 q 408 285 408 192 l 408 331 l 250 331 q 184 322 206 331 q 153 285 163 313 q 144 201 144 258 q 153 121 144 147 q 188 84 163 94 q 263 74 213 74 m 135 840 l 135 849 l 242 1032 l 350 1032 l 456 849 l 456 840 l 386 840 l 296 975 l 204 840 l 135 840 m 344 1057 q 356 1103 344 1090 q 400 1126 368 1117 l 419 1133 q 461 1153 450 1143 q 472 1188 472 1164 q 466 1216 472 1207 q 443 1228 460 1225 q 389 1232 426 1232 q 271 1225 343 1232 l 271 1286 q 399 1297 351 1297 q 513 1275 481 1297 q 546 1196 546 1253 q 533 1133 546 1154 q 481 1097 521 1111 l 461 1089 q 417 1069 425 1076 q 410 1043 410 1063 l 344 1043 l 344 1057 z "},"ẫ":{"ha":590,"x_min":47,"x_max":507,"o":"m 231 -11 q 90 33 133 -11 q 47 194 47 78 q 63 320 47 275 q 117 385 79 365 q 225 404 156 404 q 408 397 265 404 l 408 447 q 397 573 408 535 q 353 623 385 611 q 250 635 322 635 q 167 630 218 635 q 82 619 117 625 l 82 700 q 278 719 172 719 q 423 696 375 719 q 489 615 471 672 q 507 449 507 558 l 507 0 l 419 0 l 414 97 l 407 97 q 340 10 386 32 q 231 -11 293 -11 m 263 74 q 342 85 311 74 q 388 136 372 97 q 408 285 408 192 l 408 331 l 250 331 q 184 322 206 331 q 153 285 163 313 q 144 201 144 258 q 153 121 144 147 q 188 84 163 94 q 263 74 213 74 m 132 840 l 132 849 l 239 1032 l 347 1032 l 453 849 l 453 840 l 383 840 l 293 975 l 201 840 l 132 840 m 490 1272 q 474 1153 490 1186 q 404 1121 458 1121 q 349 1129 376 1121 q 286 1153 322 1138 q 259 1165 279 1156 q 222 1178 239 1174 q 193 1182 206 1182 q 167 1166 172 1182 q 161 1106 161 1150 l 100 1106 q 116 1224 100 1192 q 186 1257 132 1257 q 241 1248 213 1257 q 307 1224 269 1239 q 356 1204 332 1213 q 397 1196 381 1196 q 424 1212 418 1196 q 429 1272 429 1228 l 490 1272 z "},"ȁ":{"ha":590,"x_min":47,"x_max":507,"o":"m 231 -11 q 90 33 133 -11 q 47 194 47 78 q 63 320 47 275 q 117 385 79 365 q 225 404 156 404 q 408 397 265 404 l 408 447 q 397 573 408 535 q 353 623 385 611 q 250 635 322 635 q 167 630 218 635 q 82 619 117 625 l 82 700 q 278 719 172 719 q 423 696 375 719 q 489 615 471 672 q 507 449 507 558 l 507 0 l 419 0 l 414 97 l 407 97 q 340 10 386 32 q 231 -11 293 -11 m 263 74 q 342 85 311 74 q 388 136 372 97 q 408 285 408 192 l 408 331 l 250 331 q 184 322 206 331 q 153 285 163 313 q 144 201 144 258 q 153 121 144 147 q 188 84 163 94 q 263 74 213 74 m 242 847 l 178 847 l 82 1011 l 82 1017 l 174 1017 l 242 853 l 242 847 m 426 847 l 363 847 l 265 1011 l 265 1017 l 358 1017 l 426 853 l 426 847 z "},"ä":{"ha":590,"x_min":47,"x_max":507,"o":"m 231 -11 q 90 33 133 -11 q 47 194 47 78 q 63 320 47 275 q 117 385 79 365 q 225 404 156 404 q 408 397 265 404 l 408 447 q 397 573 408 535 q 353 623 385 611 q 250 635 322 635 q 167 630 218 635 q 82 619 117 625 l 82 700 q 278 719 172 719 q 423 696 375 719 q 489 615 471 672 q 507 449 507 558 l 507 0 l 419 0 l 414 97 l 407 97 q 340 10 386 32 q 231 -11 293 -11 m 263 74 q 342 85 311 74 q 388 136 372 97 q 408 285 408 192 l 408 331 l 250 331 q 184 322 206 331 q 153 285 163 313 q 144 201 144 258 q 153 121 144 147 q 188 84 163 94 q 263 74 213 74 m 126 906 l 126 1011 l 221 1011 l 221 906 l 126 906 m 374 906 l 374 1011 l 468 1011 l 468 906 l 374 906 z "},"ạ":{"ha":590,"x_min":47,"x_max":507,"o":"m 231 -11 q 90 33 133 -11 q 47 194 47 78 q 63 320 47 275 q 117 385 79 365 q 225 404 156 404 q 408 397 265 404 l 408 447 q 397 573 408 535 q 353 623 385 611 q 250 635 322 635 q 167 630 218 635 q 82 619 117 625 l 82 700 q 278 719 172 719 q 423 696 375 719 q 489 615 471 672 q 507 449 507 558 l 507 0 l 419 0 l 414 97 l 407 97 q 340 10 386 32 q 231 -11 293 -11 m 263 74 q 342 85 311 74 q 388 136 372 97 q 408 285 408 192 l 408 331 l 250 331 q 184 322 206 331 q 153 285 163 313 q 144 201 144 258 q 153 121 144 147 q 188 84 163 94 q 263 74 213 74 m 239 -211 l 239 -86 l 353 -86 l 353 -211 l 239 -211 z "},"à":{"ha":590,"x_min":47,"x_max":507,"o":"m 231 -11 q 90 33 133 -11 q 47 194 47 78 q 63 320 47 275 q 117 385 79 365 q 225 404 156 404 q 408 397 265 404 l 408 447 q 397 573 408 535 q 353 623 385 611 q 250 635 322 635 q 167 630 218 635 q 82 619 117 625 l 82 700 q 278 719 172 719 q 423 696 375 719 q 489 615 471 672 q 507 449 507 558 l 507 0 l 419 0 l 414 97 l 407 97 q 340 10 386 32 q 231 -11 293 -11 m 263 74 q 342 85 311 74 q 388 136 372 97 q 408 285 408 192 l 408 331 l 250 331 q 184 322 206 331 q 153 285 163 313 q 144 201 144 258 q 153 121 144 147 q 188 84 163 94 q 263 74 213 74 m 268 836 l 161 1025 l 161 1032 l 265 1032 l 340 843 l 340 836 l 268 836 z "},"ả":{"ha":590,"x_min":47,"x_max":507,"o":"m 231 -11 q 90 33 133 -11 q 47 194 47 78 q 63 320 47 275 q 117 385 79 365 q 225 404 156 404 q 408 397 265 404 l 408 447 q 397 573 408 535 q 353 623 385 611 q 250 635 322 635 q 167 630 218 635 q 82 619 117 625 l 82 700 q 278 719 172 719 q 423 696 375 719 q 489 615 471 672 q 507 449 507 558 l 507 0 l 419 0 l 414 97 l 407 97 q 340 10 386 32 q 231 -11 293 -11 m 263 74 q 342 85 311 74 q 388 136 372 97 q 408 285 408 192 l 408 331 l 250 331 q 184 322 206 331 q 153 285 163 313 q 144 201 144 258 q 153 121 144 147 q 188 84 163 94 q 263 74 213 74 m 232 861 q 244 908 232 894 q 288 931 256 921 l 307 938 q 349 958 338 947 q 360 992 360 968 q 353 1020 360 1011 q 331 1033 347 1029 q 276 1036 314 1036 q 158 1029 231 1036 l 158 1090 q 286 1101 239 1101 q 401 1079 368 1101 q 433 1000 433 1057 q 421 937 433 958 q 368 901 408 915 l 349 893 q 305 874 313 881 q 297 847 297 867 l 232 847 l 232 861 z "},"ȃ":{"ha":590,"x_min":47,"x_max":507,"o":"m 231 -11 q 90 33 133 -11 q 47 194 47 78 q 63 320 47 275 q 117 385 79 365 q 225 404 156 404 q 408 397 265 404 l 408 447 q 397 573 408 535 q 353 623 385 611 q 250 635 322 635 q 167 630 218 635 q 82 619 117 625 l 82 700 q 278 719 172 719 q 423 696 375 719 q 489 615 471 672 q 507 449 507 558 l 507 0 l 419 0 l 414 97 l 407 97 q 340 10 386 32 q 231 -11 293 -11 m 263 74 q 342 85 311 74 q 388 136 372 97 q 408 285 408 192 l 408 331 l 250 331 q 184 322 206 331 q 153 285 163 313 q 144 201 144 258 q 153 121 144 147 q 188 84 163 94 q 263 74 213 74 m 140 843 q 149 953 140 913 q 192 1017 158 993 q 297 1040 226 1040 q 400 1017 367 1040 q 442 953 433 993 q 451 843 451 913 l 382 843 q 378 922 382 896 q 356 962 374 947 q 297 976 338 976 q 237 962 256 976 q 214 922 218 947 q 210 843 210 896 l 140 843 z "},"ā":{"ha":590,"x_min":47,"x_max":507,"o":"m 231 -11 q 90 33 133 -11 q 47 194 47 78 q 63 320 47 275 q 117 385 79 365 q 225 404 156 404 q 408 397 265 404 l 408 447 q 397 573 408 535 q 353 623 385 611 q 250 635 322 635 q 167 630 218 635 q 82 619 117 625 l 82 700 q 278 719 172 719 q 423 696 375 719 q 489 615 471 672 q 507 449 507 558 l 507 0 l 419 0 l 414 97 l 407 97 q 340 10 386 32 q 231 -11 293 -11 m 263 74 q 342 85 311 74 q 388 136 372 97 q 408 285 408 192 l 408 331 l 250 331 q 184 322 206 331 q 153 285 163 313 q 144 201 144 258 q 153 121 144 147 q 188 84 163 94 q 263 74 213 74 m 160 940 l 160 1032 l 432 1032 l 432 940 l 160 940 z "},"ą":{"ha":590,"x_min":47,"x_max":511,"o":"m 489 -206 q 511 -204 501 -206 l 511 -269 q 464 -272 492 -272 q 369 -243 399 -272 q 340 -168 340 -214 q 363 -82 340 -126 q 424 0 386 -37 l 419 0 l 414 97 l 407 97 q 340 10 386 32 q 231 -11 293 -11 q 90 33 133 -11 q 47 194 47 78 q 63 320 47 275 q 117 385 79 365 q 225 404 156 404 q 408 397 265 404 l 408 447 q 397 573 408 535 q 353 623 385 611 q 250 635 322 635 q 165 630 217 635 q 82 619 114 625 l 82 700 q 278 719 172 719 q 423 696 375 719 q 489 615 471 672 q 507 449 507 558 l 507 0 q 451 -67 478 -22 q 425 -149 425 -111 q 489 -206 425 -206 m 408 331 l 250 331 q 184 322 206 331 q 153 285 163 313 q 144 201 144 258 q 153 121 144 147 q 188 84 163 94 q 263 74 213 74 q 342 85 311 74 q 388 136 372 97 q 408 285 408 192 l 408 331 z "},"å":{"ha":590,"x_min":47,"x_max":507,"o":"m 231 -11 q 90 33 133 -11 q 47 194 47 78 q 63 320 47 275 q 117 385 79 365 q 225 404 156 404 q 408 397 265 404 l 408 447 q 397 573 408 535 q 353 623 385 611 q 250 635 322 635 q 167 630 218 635 q 82 619 117 625 l 82 700 q 278 719 172 719 q 423 696 375 719 q 489 615 471 672 q 507 449 507 558 l 507 0 l 419 0 l 414 97 l 407 97 q 340 10 386 32 q 231 -11 293 -11 m 263 74 q 342 85 311 74 q 388 136 372 97 q 408 285 408 192 l 408 331 l 250 331 q 184 322 206 331 q 153 285 163 313 q 144 201 144 258 q 153 121 144 147 q 188 84 163 94 q 263 74 213 74 m 294 838 q 199 850 229 838 q 161 890 169 863 q 153 971 153 917 q 161 1052 153 1025 q 199 1092 169 1079 q 294 1106 229 1106 q 390 1092 360 1106 q 430 1052 421 1079 q 439 971 439 1025 q 430 890 439 917 q 390 850 421 863 q 294 838 360 838 m 294 893 q 346 899 331 893 q 365 921 361 906 q 369 971 369 936 q 365 1021 369 1006 q 346 1042 361 1036 q 294 1049 331 1049 q 244 1042 260 1049 q 225 1020 229 1035 q 221 971 221 1006 q 225 922 221 936 q 244 900 229 907 q 294 893 260 893 z "},"ǻ":{"ha":590,"x_min":47,"x_max":507,"o":"m 231 -11 q 90 33 133 -11 q 47 194 47 78 q 63 320 47 275 q 117 385 79 365 q 225 404 156 404 q 408 397 265 404 l 408 447 q 397 573 408 535 q 353 623 385 611 q 250 635 322 635 q 167 630 218 635 q 82 619 117 625 l 82 700 q 278 719 172 719 q 423 696 375 719 q 489 615 471 672 q 507 449 507 558 l 507 0 l 419 0 l 414 97 l 407 97 q 340 10 386 32 q 231 -11 293 -11 m 263 74 q 342 85 311 74 q 388 136 372 97 q 408 285 408 192 l 408 331 l 250 331 q 184 322 206 331 q 153 285 163 313 q 144 201 144 258 q 153 121 144 147 q 188 84 163 94 q 263 74 213 74 m 294 850 q 199 863 229 850 q 161 902 169 875 q 153 983 153 929 q 161 1065 153 1038 q 199 1105 169 1092 q 294 1118 229 1118 q 390 1105 360 1118 q 430 1065 421 1092 q 439 983 439 1038 q 430 902 439 929 q 390 863 421 875 q 294 850 360 850 m 294 906 q 346 912 331 906 q 365 933 361 918 q 369 983 369 949 q 365 1033 369 1018 q 346 1055 361 1049 q 294 1061 331 1061 q 244 1054 260 1061 q 225 1033 229 1047 q 221 983 221 1018 q 225 934 221 949 q 244 913 229 919 q 294 906 260 906 m 254 1163 l 254 1169 l 329 1358 l 433 1358 l 433 1351 l 326 1163 l 254 1163 z "},"ã":{"ha":590,"x_min":47,"x_max":507,"o":"m 231 -11 q 90 33 133 -11 q 47 194 47 78 q 63 320 47 275 q 117 385 79 365 q 225 404 156 404 q 408 397 265 404 l 408 447 q 397 573 408 535 q 353 623 385 611 q 250 635 322 635 q 167 630 218 635 q 82 619 117 625 l 82 700 q 278 719 172 719 q 423 696 375 719 q 489 615 471 672 q 507 449 507 558 l 507 0 l 419 0 l 414 97 l 407 97 q 340 10 386 32 q 231 -11 293 -11 m 263 74 q 342 85 311 74 q 388 136 372 97 q 408 285 408 192 l 408 331 l 250 331 q 184 322 206 331 q 153 285 163 313 q 144 201 144 258 q 153 121 144 147 q 188 84 163 94 q 263 74 213 74 m 490 1032 q 474 913 490 946 q 404 881 458 881 q 349 889 376 881 q 286 913 322 897 q 259 924 279 915 q 222 938 239 933 q 193 942 206 942 q 167 926 172 942 q 161 865 161 910 l 100 865 q 116 984 100 951 q 186 1017 132 1017 q 241 1008 213 1017 q 307 983 269 999 q 356 964 332 972 q 397 956 381 956 q 424 972 418 956 q 429 1032 429 988 l 490 1032 z "},"æ":{"ha":939,"x_min":47,"x_max":872,"o":"m 872 325 l 507 325 q 517 163 507 213 q 563 93 528 113 q 676 74 597 74 q 853 89 768 74 l 853 8 q 765 -6 819 0 q 658 -11 710 -11 q 519 13 568 -11 q 447 93 471 36 q 366 9 418 29 q 244 -11 314 -11 q 130 7 172 -11 q 67 69 88 25 q 47 194 47 114 q 63 318 47 274 q 117 381 79 363 q 225 400 156 400 l 408 399 l 408 447 q 397 574 408 536 q 353 623 385 611 q 249 635 322 635 q 163 630 214 635 q 82 619 113 625 l 82 700 q 276 719 175 719 q 394 702 351 719 q 461 643 438 685 q 533 701 488 683 q 653 719 578 719 q 803 686 757 719 q 860 582 849 653 q 872 357 872 511 l 872 325 m 649 636 q 555 619 583 636 q 517 556 526 603 q 507 399 508 508 l 776 399 l 776 413 q 766 560 776 514 q 730 622 756 607 q 649 636 704 636 m 408 326 l 249 326 q 182 317 203 326 q 152 283 161 308 q 143 201 143 257 q 153 120 143 147 q 187 83 163 93 q 261 72 211 72 q 345 86 314 72 q 392 144 376 100 q 408 285 408 196 l 408 326 z "},"ǽ":{"ha":939,"x_min":47,"x_max":872,"o":"m 872 325 l 507 325 q 517 163 507 213 q 563 93 528 113 q 676 74 597 74 q 853 89 768 74 l 853 8 q 765 -6 819 0 q 658 -11 710 -11 q 519 13 568 -11 q 447 93 471 36 q 366 9 418 29 q 244 -11 314 -11 q 130 7 172 -11 q 67 69 88 25 q 47 194 47 114 q 63 318 47 274 q 117 381 79 363 q 225 400 156 400 l 408 399 l 408 447 q 397 574 408 536 q 353 623 385 611 q 249 635 322 635 q 163 630 214 635 q 82 619 113 625 l 82 700 q 276 719 175 719 q 394 702 351 719 q 461 643 438 685 q 533 701 488 683 q 653 719 578 719 q 803 686 757 719 q 860 582 849 653 q 872 357 872 511 l 872 325 m 649 636 q 555 619 583 636 q 517 556 526 603 q 507 399 508 508 l 776 399 l 776 413 q 766 560 776 514 q 730 622 756 607 q 649 636 704 636 m 408 326 l 249 326 q 182 317 203 326 q 152 283 161 308 q 143 201 143 257 q 153 120 143 147 q 187 83 163 93 q 261 72 211 72 q 345 86 314 72 q 392 144 376 100 q 408 285 408 196 l 408 326 m 425 836 l 425 843 l 500 1032 l 604 1032 l 604 1025 l 497 836 l 425 836 z "},"b":{"ha":625,"x_min":88,"x_max":560,"o":"m 357 -11 q 251 11 294 -11 q 188 97 207 33 l 179 97 l 174 0 l 88 0 l 88 1032 l 186 1032 l 186 622 l 193 622 q 253 697 213 675 q 358 719 293 719 q 483 688 440 719 q 543 580 526 657 q 560 354 560 503 q 542 128 560 206 q 482 19 525 50 q 357 -11 439 -11 m 322 78 q 415 96 388 78 q 451 169 442 114 q 461 354 461 225 q 451 539 461 483 q 415 613 442 594 q 322 631 388 631 q 243 611 272 631 q 203 550 214 592 q 190 469 193 515 q 186 354 186 424 q 189 240 186 283 q 201 163 192 197 q 242 97 213 117 q 322 78 271 78 z "},"c":{"ha":488,"x_min":65,"x_max":440,"o":"m 440 7 q 372 -6 413 -1 q 292 -11 331 -11 q 141 25 189 -11 q 79 135 93 61 q 65 354 65 208 q 83 576 65 500 q 147 685 100 651 q 289 719 194 719 q 369 715 328 719 q 436 701 411 710 l 436 621 q 311 635 376 635 q 215 613 244 635 q 174 535 185 592 q 164 356 164 479 q 174 172 164 229 q 215 94 185 115 q 313 74 246 74 q 440 89 383 74 l 440 7 z "},"ć":{"ha":488,"x_min":65,"x_max":440,"o":"m 440 7 q 372 -6 413 -1 q 292 -11 331 -11 q 141 25 189 -11 q 79 135 93 61 q 65 354 65 208 q 83 576 65 500 q 147 685 100 651 q 289 719 194 719 q 369 715 328 719 q 436 701 411 710 l 436 621 q 311 635 376 635 q 215 613 244 635 q 174 535 185 592 q 164 356 164 479 q 174 172 164 229 q 215 94 185 115 q 313 74 246 74 q 440 89 383 74 l 440 7 m 200 836 l 200 843 l 275 1032 l 379 1032 l 379 1025 l 272 836 l 200 836 z "},"č":{"ha":488,"x_min":65,"x_max":440,"o":"m 440 7 q 372 -6 413 -1 q 292 -11 331 -11 q 141 25 189 -11 q 79 135 93 61 q 65 354 65 208 q 83 576 65 500 q 147 685 100 651 q 289 719 194 719 q 369 715 328 719 q 436 701 411 710 l 436 621 q 311 635 376 635 q 215 613 244 635 q 174 535 185 592 q 164 356 164 479 q 174 172 164 229 q 215 94 185 115 q 313 74 246 74 q 440 89 383 74 l 440 7 m 190 839 l 83 1024 l 83 1032 l 153 1032 l 244 897 l 335 1032 l 404 1032 l 404 1024 l 297 839 l 190 839 z "},"ç":{"ha":488,"x_min":65,"x_max":440,"o":"m 313 74 q 440 89 383 74 l 440 7 q 372 -6 413 -1 q 292 -11 331 -11 l 276 -11 l 222 -264 l 125 -264 l 125 -257 l 207 -3 q 114 53 144 11 q 74 163 83 94 q 65 354 65 231 q 83 576 65 500 q 147 685 100 651 q 289 719 194 719 q 369 715 328 719 q 436 701 411 710 l 436 621 q 311 635 376 635 q 215 613 244 635 q 174 535 185 592 q 164 356 164 479 q 174 172 164 229 q 215 94 185 115 q 313 74 246 74 z "},"ĉ":{"ha":488,"x_min":65,"x_max":440,"o":"m 440 7 q 372 -6 413 -1 q 292 -11 331 -11 q 141 25 189 -11 q 79 135 93 61 q 65 354 65 208 q 83 576 65 500 q 147 685 100 651 q 289 719 194 719 q 369 715 328 719 q 436 701 411 710 l 436 621 q 311 635 376 635 q 215 613 244 635 q 174 535 185 592 q 164 356 164 479 q 174 172 164 229 q 215 94 185 115 q 313 74 246 74 q 440 89 383 74 l 440 7 m 83 840 l 83 849 l 190 1032 l 299 1032 l 404 849 l 404 840 l 335 840 l 244 975 l 153 840 l 83 840 z "},"ċ":{"ha":488,"x_min":65,"x_max":440,"o":"m 440 7 q 372 -6 413 -1 q 292 -11 331 -11 q 141 25 189 -11 q 79 135 93 61 q 65 354 65 208 q 83 576 65 500 q 147 685 100 651 q 289 719 194 719 q 369 715 328 719 q 436 701 411 710 l 436 621 q 311 635 376 635 q 215 613 244 635 q 174 535 185 592 q 164 356 164 479 q 174 172 164 229 q 215 94 185 115 q 313 74 246 74 q 440 89 383 74 l 440 7 m 196 908 l 196 1014 l 290 1014 l 290 908 l 196 908 z "},"d":{"ha":625,"x_min":65,"x_max":538,"o":"m 267 -11 q 142 19 185 -11 q 83 126 100 50 q 65 353 65 203 q 82 579 65 501 q 141 688 99 657 q 265 719 183 719 q 372 697 332 719 q 432 622 413 675 l 439 622 l 439 1032 l 538 1032 l 538 0 l 450 0 l 444 97 l 438 97 q 374 11 418 33 q 267 -11 331 -11 m 303 78 q 383 97 354 78 q 424 161 413 117 q 436 242 433 197 q 439 365 439 288 q 426 532 439 483 q 385 608 415 586 q 300 631 356 631 q 210 613 238 631 q 173 539 182 594 q 164 354 164 483 q 174 169 164 225 q 210 96 183 114 q 303 78 238 78 z "},"ð":{"ha":613,"x_min":65,"x_max":544,"o":"m 306 -11 q 142 19 192 -11 q 79 122 93 50 q 65 353 65 193 q 78 581 65 508 q 135 687 90 654 q 282 719 181 719 q 413 681 367 719 l 418 683 q 350 875 393 790 l 213 853 l 213 922 l 314 938 q 246 1026 278 989 l 246 1032 l 351 1032 q 411 953 386 993 l 526 971 l 526 901 l 449 889 q 531 594 508 760 q 544 378 544 497 q 532 128 544 203 q 470 22 519 54 q 306 -11 421 -11 m 306 72 q 405 93 376 72 q 440 166 433 114 q 447 353 447 218 q 440 527 447 474 q 403 608 433 581 q 306 635 374 635 q 205 615 233 635 q 170 544 176 596 q 164 353 164 493 q 170 165 164 217 q 205 93 176 114 q 306 72 233 72 z "},"ď":{"ha":642,"x_min":65,"x_max":697,"o":"m 267 -11 q 142 19 185 -11 q 83 126 100 50 q 65 353 65 203 q 82 579 65 501 q 141 688 99 657 q 265 719 183 719 q 372 697 332 719 q 432 622 413 675 l 439 622 l 439 1032 l 538 1032 l 538 0 l 450 0 l 444 97 l 438 97 q 374 11 418 33 q 267 -11 331 -11 m 303 78 q 383 97 354 78 q 424 161 413 117 q 436 242 433 197 q 439 365 439 288 q 426 532 439 483 q 385 608 415 586 q 300 631 356 631 q 210 613 238 631 q 173 539 182 594 q 164 354 164 483 q 174 169 164 225 q 210 96 183 114 q 303 78 238 78 m 581 618 l 600 849 l 600 956 l 697 956 l 697 849 l 649 618 l 581 618 z "},"đ":{"ha":625,"x_min":65,"x_max":614,"o":"m 614 872 l 538 872 l 538 0 l 450 0 l 444 97 l 438 97 q 374 11 418 33 q 267 -11 331 -11 q 142 19 185 -11 q 83 126 100 50 q 65 353 65 203 q 82 579 65 501 q 141 688 99 657 q 265 719 183 719 q 372 697 332 719 q 432 622 413 675 l 439 622 l 439 872 l 279 872 l 279 956 l 439 956 l 439 1032 l 538 1032 l 538 956 l 614 956 l 614 872 m 424 161 q 436 242 433 197 q 439 365 439 288 q 426 532 439 483 q 385 608 415 586 q 300 631 356 631 q 210 613 238 631 q 173 539 182 594 q 164 354 164 483 q 174 169 164 225 q 210 96 183 114 q 303 78 238 78 q 383 97 354 78 q 424 161 413 117 z "},"ḍ":{"ha":625,"x_min":65,"x_max":538,"o":"m 267 -11 q 142 19 185 -11 q 83 126 100 50 q 65 353 65 203 q 82 579 65 501 q 141 688 99 657 q 265 719 183 719 q 372 697 332 719 q 432 622 413 675 l 439 622 l 439 1032 l 538 1032 l 538 0 l 450 0 l 444 97 l 438 97 q 374 11 418 33 q 267 -11 331 -11 m 303 78 q 383 97 354 78 q 424 161 413 117 q 436 242 433 197 q 439 365 439 288 q 426 532 439 483 q 385 608 415 586 q 300 631 356 631 q 210 613 238 631 q 173 539 182 594 q 164 354 164 483 q 174 169 164 225 q 210 96 183 114 q 303 78 238 78 m 256 -211 l 256 -86 l 369 -86 l 369 -211 l 256 -211 z "},"ǳ":{"ha":1143,"x_min":65,"x_max":1096,"o":"m 267 -11 q 142 19 185 -11 q 83 126 100 50 q 65 353 65 203 q 82 579 65 501 q 141 688 99 657 q 265 719 183 719 q 372 697 332 719 q 432 622 413 675 l 439 622 l 439 1032 l 538 1032 l 538 0 l 450 0 l 444 97 l 438 97 q 374 11 418 33 q 267 -11 331 -11 m 303 78 q 383 97 354 78 q 424 161 413 117 q 436 242 433 197 q 439 365 439 288 q 426 532 439 483 q 385 608 415 586 q 300 631 356 631 q 210 613 238 631 q 173 539 182 594 q 164 354 164 483 q 174 169 164 225 q 210 96 183 114 q 303 78 238 78 m 672 0 l 672 78 l 975 624 l 683 624 l 683 708 l 1094 708 l 1094 632 l 790 85 l 1096 85 l 1096 0 l 672 0 z "},"ǆ":{"ha":1143,"x_min":65,"x_max":1096,"o":"m 267 -11 q 142 19 185 -11 q 83 126 100 50 q 65 353 65 203 q 82 579 65 501 q 141 688 99 657 q 265 719 183 719 q 372 697 332 719 q 432 622 413 675 l 439 622 l 439 1032 l 538 1032 l 538 0 l 450 0 l 444 97 l 438 97 q 374 11 418 33 q 267 -11 331 -11 m 303 78 q 383 97 354 78 q 424 161 413 117 q 436 242 433 197 q 439 365 439 288 q 426 532 439 483 q 385 608 415 586 q 300 631 356 631 q 210 613 238 631 q 173 539 182 594 q 164 354 164 483 q 174 169 164 225 q 210 96 183 114 q 303 78 238 78 m 672 0 l 672 78 l 975 624 l 683 624 l 683 708 l 1094 708 l 1094 632 l 790 85 l 1096 85 l 1096 0 l 672 0 m 825 839 l 718 1024 l 718 1032 l 788 1032 l 879 897 l 969 1032 l 1039 1032 l 1039 1024 l 932 839 l 825 839 z "},"e":{"ha":594,"x_min":65,"x_max":528,"o":"m 528 322 l 164 322 q 174 160 164 210 q 219 92 185 111 q 333 74 253 74 q 508 89 425 74 l 508 8 q 421 -6 476 0 q 314 -11 365 -11 q 150 22 201 -11 q 82 128 99 54 q 65 353 65 201 q 79 577 65 504 q 144 685 93 650 q 307 719 194 719 q 458 686 413 719 q 516 582 504 653 q 528 354 528 511 l 528 322 m 306 636 q 211 619 240 636 q 173 555 182 603 q 164 396 164 507 l 433 396 l 433 413 q 422 560 433 514 q 385 622 411 607 q 306 636 360 636 z "},"é":{"ha":594,"x_min":65,"x_max":528,"o":"m 528 322 l 164 322 q 174 160 164 210 q 219 92 185 111 q 333 74 253 74 q 508 89 425 74 l 508 8 q 421 -6 476 0 q 314 -11 365 -11 q 150 22 201 -11 q 82 128 99 54 q 65 353 65 201 q 79 577 65 504 q 144 685 93 650 q 307 719 194 719 q 458 686 413 719 q 516 582 504 653 q 528 354 528 511 l 528 322 m 306 636 q 211 619 240 636 q 173 555 182 603 q 164 396 164 507 l 433 396 l 433 413 q 422 560 433 514 q 385 622 411 607 q 306 636 360 636 m 264 836 l 264 843 l 339 1032 l 443 1032 l 443 1025 l 336 836 l 264 836 z "},"ĕ":{"ha":594,"x_min":65,"x_max":528,"o":"m 528 322 l 164 322 q 174 160 164 210 q 219 92 185 111 q 333 74 253 74 q 508 89 425 74 l 508 8 q 421 -6 476 0 q 314 -11 365 -11 q 150 22 201 -11 q 82 128 99 54 q 65 353 65 201 q 79 577 65 504 q 144 685 93 650 q 307 719 194 719 q 458 686 413 719 q 516 582 504 653 q 528 354 528 511 l 528 322 m 306 636 q 211 619 240 636 q 173 555 182 603 q 164 396 164 507 l 433 396 l 433 413 q 422 560 433 514 q 385 622 411 607 q 306 636 360 636 m 451 1032 q 442 922 451 963 q 399 858 433 882 q 294 835 365 835 q 192 858 225 835 q 149 922 158 882 q 140 1032 140 963 l 210 1032 q 214 953 210 979 q 236 913 218 928 q 294 899 254 899 q 355 913 336 899 q 378 953 374 928 q 382 1032 382 979 l 451 1032 z "},"ě":{"ha":594,"x_min":65,"x_max":528,"o":"m 528 322 l 164 322 q 174 160 164 210 q 219 92 185 111 q 333 74 253 74 q 508 89 425 74 l 508 8 q 421 -6 476 0 q 314 -11 365 -11 q 150 22 201 -11 q 82 128 99 54 q 65 353 65 201 q 79 577 65 504 q 144 685 93 650 q 307 719 194 719 q 458 686 413 719 q 516 582 504 653 q 528 354 528 511 l 528 322 m 306 636 q 211 619 240 636 q 173 555 182 603 q 164 396 164 507 l 433 396 l 433 413 q 422 560 433 514 q 385 622 411 607 q 306 636 360 636 m 243 839 l 136 1024 l 136 1032 l 206 1032 l 297 897 l 388 1032 l 457 1032 l 457 1024 l 350 839 l 243 839 z "},"ê":{"ha":594,"x_min":65,"x_max":528,"o":"m 528 322 l 164 322 q 174 160 164 210 q 219 92 185 111 q 333 74 253 74 q 508 89 425 74 l 508 8 q 421 -6 476 0 q 314 -11 365 -11 q 150 22 201 -11 q 82 128 99 54 q 65 353 65 201 q 79 577 65 504 q 144 685 93 650 q 307 719 194 719 q 458 686 413 719 q 516 582 504 653 q 528 354 528 511 l 528 322 m 306 636 q 211 619 240 636 q 173 555 182 603 q 164 396 164 507 l 433 396 l 433 413 q 422 560 433 514 q 385 622 411 607 q 306 636 360 636 m 142 840 l 142 849 l 249 1032 l 357 1032 l 463 849 l 463 840 l 393 840 l 303 975 l 211 840 l 142 840 z "},"ế":{"ha":594,"x_min":65,"x_max":536,"o":"m 528 322 l 164 322 q 174 160 164 210 q 219 92 185 111 q 333 74 253 74 q 508 89 425 74 l 508 8 q 421 -6 476 0 q 314 -11 365 -11 q 150 22 201 -11 q 82 128 99 54 q 65 353 65 201 q 79 577 65 504 q 144 685 93 650 q 307 719 194 719 q 458 686 413 719 q 516 582 504 653 q 528 354 528 511 l 528 322 m 306 636 q 211 619 240 636 q 173 555 182 603 q 164 396 164 507 l 433 396 l 433 413 q 422 560 433 514 q 385 622 411 607 q 306 636 360 636 m 135 840 l 135 849 l 242 1032 l 350 1032 l 456 849 l 456 840 l 386 840 l 296 975 l 204 840 l 135 840 m 357 1049 l 357 1056 l 432 1244 l 536 1244 l 536 1238 l 429 1049 l 357 1049 z "},"ệ":{"ha":594,"x_min":65,"x_max":528,"o":"m 528 322 l 164 322 q 174 160 164 210 q 219 92 185 111 q 333 74 253 74 q 508 89 425 74 l 508 8 q 421 -6 476 0 q 314 -11 365 -11 q 150 22 201 -11 q 82 128 99 54 q 65 353 65 201 q 79 577 65 504 q 144 685 93 650 q 307 719 194 719 q 458 686 413 719 q 516 582 504 653 q 528 354 528 511 l 528 322 m 306 636 q 211 619 240 636 q 173 555 182 603 q 164 396 164 507 l 433 396 l 433 413 q 422 560 433 514 q 385 622 411 607 q 306 636 360 636 m 240 -211 l 240 -86 l 354 -86 l 354 -211 l 240 -211 m 136 840 l 136 849 l 243 1032 l 351 1032 l 457 849 l 457 840 l 388 840 l 297 975 l 206 840 l 136 840 z "},"ề":{"ha":594,"x_min":65,"x_max":528,"o":"m 528 322 l 164 322 q 174 160 164 210 q 219 92 185 111 q 333 74 253 74 q 508 89 425 74 l 508 8 q 421 -6 476 0 q 314 -11 365 -11 q 150 22 201 -11 q 82 128 99 54 q 65 353 65 201 q 79 577 65 504 q 144 685 93 650 q 307 719 194 719 q 458 686 413 719 q 516 582 504 653 q 528 354 528 511 l 528 322 m 306 636 q 211 619 240 636 q 173 555 182 603 q 164 396 164 507 l 433 396 l 433 413 q 422 560 433 514 q 385 622 411 607 q 306 636 360 636 m 133 840 l 133 849 l 240 1032 l 349 1032 l 454 849 l 454 840 l 385 840 l 294 975 l 203 840 l 133 840 m 381 1049 l 274 1238 l 274 1244 l 378 1244 l 453 1056 l 453 1049 l 381 1049 z "},"ể":{"ha":594,"x_min":65,"x_max":547,"o":"m 528 322 l 164 322 q 174 160 164 210 q 219 92 185 111 q 333 74 253 74 q 508 89 425 74 l 508 8 q 421 -6 476 0 q 314 -11 365 -11 q 150 22 201 -11 q 82 128 99 54 q 65 353 65 201 q 79 577 65 504 q 144 685 93 650 q 307 719 194 719 q 458 686 413 719 q 516 582 504 653 q 528 354 528 511 l 528 322 m 306 636 q 211 619 240 636 q 173 555 182 603 q 164 396 164 507 l 433 396 l 433 413 q 422 560 433 514 q 385 622 411 607 q 306 636 360 636 m 136 840 l 136 849 l 243 1032 l 351 1032 l 457 849 l 457 840 l 388 840 l 297 975 l 206 840 l 136 840 m 346 1057 q 358 1103 346 1090 q 401 1126 369 1117 l 421 1133 q 463 1153 451 1143 q 474 1188 474 1164 q 467 1216 474 1207 q 444 1228 461 1225 q 390 1232 428 1232 q 272 1225 344 1232 l 272 1286 q 400 1297 353 1297 q 515 1275 482 1297 q 547 1196 547 1253 q 535 1133 547 1154 q 482 1097 522 1111 l 463 1089 q 419 1069 426 1076 q 411 1043 411 1063 l 346 1043 l 346 1057 z "},"ễ":{"ha":594,"x_min":65,"x_max":528,"o":"m 528 322 l 164 322 q 174 160 164 210 q 219 92 185 111 q 333 74 253 74 q 508 89 425 74 l 508 8 q 421 -6 476 0 q 314 -11 365 -11 q 150 22 201 -11 q 82 128 99 54 q 65 353 65 201 q 79 577 65 504 q 144 685 93 650 q 307 719 194 719 q 458 686 413 719 q 516 582 504 653 q 528 354 528 511 l 528 322 m 306 636 q 211 619 240 636 q 173 555 182 603 q 164 396 164 507 l 433 396 l 433 413 q 422 560 433 514 q 385 622 411 607 q 306 636 360 636 m 133 840 l 133 849 l 240 1032 l 349 1032 l 454 849 l 454 840 l 385 840 l 294 975 l 203 840 l 133 840 m 492 1272 q 476 1153 492 1186 q 406 1121 460 1121 q 351 1129 378 1121 q 288 1153 324 1138 q 260 1165 281 1156 q 224 1178 240 1174 q 194 1182 207 1182 q 168 1166 174 1182 q 163 1106 163 1150 l 101 1106 q 117 1224 101 1192 q 188 1257 133 1257 q 242 1248 214 1257 q 308 1224 271 1239 q 358 1204 333 1213 q 399 1196 382 1196 q 425 1212 419 1196 q 431 1272 431 1228 l 492 1272 z "},"ȅ":{"ha":594,"x_min":65,"x_max":528,"o":"m 528 322 l 164 322 q 174 160 164 210 q 219 92 185 111 q 333 74 253 74 q 508 89 425 74 l 508 8 q 421 -6 476 0 q 314 -11 365 -11 q 150 22 201 -11 q 82 128 99 54 q 65 353 65 201 q 79 577 65 504 q 144 685 93 650 q 307 719 194 719 q 458 686 413 719 q 516 582 504 653 q 528 354 528 511 l 528 322 m 306 636 q 211 619 240 636 q 173 555 182 603 q 164 396 164 507 l 433 396 l 433 413 q 422 560 433 514 q 385 622 411 607 q 306 636 360 636 m 243 847 l 179 847 l 83 1011 l 83 1017 l 175 1017 l 243 853 l 243 847 m 428 847 l 364 847 l 267 1011 l 267 1017 l 360 1017 l 428 853 l 428 847 z "},"ë":{"ha":594,"x_min":65,"x_max":528,"o":"m 528 322 l 164 322 q 174 160 164 210 q 219 92 185 111 q 333 74 253 74 q 508 89 425 74 l 508 8 q 421 -6 476 0 q 314 -11 365 -11 q 150 22 201 -11 q 82 128 99 54 q 65 353 65 201 q 79 577 65 504 q 144 685 93 650 q 307 719 194 719 q 458 686 413 719 q 516 582 504 653 q 528 354 528 511 l 528 322 m 306 636 q 211 619 240 636 q 173 555 182 603 q 164 396 164 507 l 433 396 l 433 413 q 422 560 433 514 q 385 622 411 607 q 306 636 360 636 m 133 906 l 133 1011 l 228 1011 l 228 906 l 133 906 m 381 906 l 381 1011 l 475 1011 l 475 906 l 381 906 z "},"ė":{"ha":594,"x_min":65,"x_max":528,"o":"m 528 322 l 164 322 q 174 160 164 210 q 219 92 185 111 q 333 74 253 74 q 508 89 425 74 l 508 8 q 421 -6 476 0 q 314 -11 365 -11 q 150 22 201 -11 q 82 128 99 54 q 65 353 65 201 q 79 577 65 504 q 144 685 93 650 q 307 719 194 719 q 458 686 413 719 q 516 582 504 653 q 528 354 528 511 l 528 322 m 306 636 q 211 619 240 636 q 173 555 182 603 q 164 396 164 507 l 433 396 l 433 413 q 422 560 433 514 q 385 622 411 607 q 306 636 360 636 m 249 908 l 249 1014 l 343 1014 l 343 908 l 249 908 z "},"ẹ":{"ha":594,"x_min":65,"x_max":528,"o":"m 528 322 l 164 322 q 174 160 164 210 q 219 92 185 111 q 333 74 253 74 q 508 89 425 74 l 508 8 q 421 -6 476 0 q 314 -11 365 -11 q 150 22 201 -11 q 82 128 99 54 q 65 353 65 201 q 79 577 65 504 q 144 685 93 650 q 307 719 194 719 q 458 686 413 719 q 516 582 504 653 q 528 354 528 511 l 528 322 m 306 636 q 211 619 240 636 q 173 555 182 603 q 164 396 164 507 l 433 396 l 433 413 q 422 560 433 514 q 385 622 411 607 q 306 636 360 636 m 240 -211 l 240 -86 l 354 -86 l 354 -211 l 240 -211 z "},"è":{"ha":594,"x_min":65,"x_max":528,"o":"m 528 322 l 164 322 q 174 160 164 210 q 219 92 185 111 q 333 74 253 74 q 508 89 425 74 l 508 8 q 421 -6 476 0 q 314 -11 365 -11 q 150 22 201 -11 q 82 128 99 54 q 65 353 65 201 q 79 577 65 504 q 144 685 93 650 q 307 719 194 719 q 458 686 413 719 q 516 582 504 653 q 528 354 528 511 l 528 322 m 306 636 q 211 619 240 636 q 173 555 182 603 q 164 396 164 507 l 433 396 l 433 413 q 422 560 433 514 q 385 622 411 607 q 306 636 360 636 m 278 836 l 171 1025 l 171 1032 l 275 1032 l 350 843 l 350 836 l 278 836 z "},"ẻ":{"ha":594,"x_min":65,"x_max":528,"o":"m 528 322 l 164 322 q 174 160 164 210 q 219 92 185 111 q 333 74 253 74 q 508 89 425 74 l 508 8 q 421 -6 476 0 q 314 -11 365 -11 q 150 22 201 -11 q 82 128 99 54 q 65 353 65 201 q 79 577 65 504 q 144 685 93 650 q 307 719 194 719 q 458 686 413 719 q 516 582 504 653 q 528 354 528 511 l 528 322 m 306 636 q 211 619 240 636 q 173 555 182 603 q 164 396 164 507 l 433 396 l 433 413 q 422 560 433 514 q 385 622 411 607 q 306 636 360 636 m 233 861 q 245 908 233 894 q 289 931 257 921 l 308 938 q 350 958 339 947 q 361 992 361 968 q 355 1020 361 1011 q 332 1033 349 1029 q 278 1036 315 1036 q 160 1029 232 1036 l 160 1090 q 288 1101 240 1101 q 402 1079 369 1101 q 435 1000 435 1057 q 422 937 435 958 q 369 901 410 915 l 350 893 q 306 874 314 881 q 299 847 299 867 l 233 847 l 233 861 z "},"ȇ":{"ha":594,"x_min":65,"x_max":528,"o":"m 528 322 l 164 322 q 174 160 164 210 q 219 92 185 111 q 333 74 253 74 q 508 89 425 74 l 508 8 q 421 -6 476 0 q 314 -11 365 -11 q 150 22 201 -11 q 82 128 99 54 q 65 353 65 201 q 79 577 65 504 q 144 685 93 650 q 307 719 194 719 q 458 686 413 719 q 516 582 504 653 q 528 354 528 511 l 528 322 m 306 636 q 211 619 240 636 q 173 555 182 603 q 164 396 164 507 l 433 396 l 433 413 q 422 560 433 514 q 385 622 411 607 q 306 636 360 636 m 142 843 q 151 953 142 913 q 194 1017 160 993 q 299 1040 228 1040 q 401 1017 368 1040 q 444 953 435 993 q 453 843 453 913 l 383 843 q 379 922 383 896 q 357 962 375 947 q 299 976 339 976 q 238 962 257 976 q 215 922 219 947 q 211 843 211 896 l 142 843 z "},"ē":{"ha":594,"x_min":65,"x_max":528,"o":"m 528 322 l 164 322 q 174 160 164 210 q 219 92 185 111 q 333 74 253 74 q 508 89 425 74 l 508 8 q 421 -6 476 0 q 314 -11 365 -11 q 150 22 201 -11 q 82 128 99 54 q 65 353 65 201 q 79 577 65 504 q 144 685 93 650 q 307 719 194 719 q 458 686 413 719 q 516 582 504 653 q 528 354 528 511 l 528 322 m 306 636 q 211 619 240 636 q 173 555 182 603 q 164 396 164 507 l 433 396 l 433 413 q 422 560 433 514 q 385 622 411 607 q 306 636 360 636 m 161 940 l 161 1032 l 433 1032 l 433 940 l 161 940 z "},"ę":{"ha":594,"x_min":65,"x_max":528,"o":"m 528 322 l 164 322 q 174 160 164 210 q 219 92 185 111 q 333 74 253 74 q 508 89 425 74 l 508 8 q 438 -64 471 -18 q 406 -149 406 -110 q 468 -206 406 -206 q 492 -204 482 -206 l 492 -269 q 443 -272 461 -272 q 349 -244 378 -272 q 319 -171 319 -215 q 343 -85 319 -128 q 407 -7 367 -43 l 376 -8 q 314 -11 335 -11 q 150 22 201 -11 q 82 128 99 54 q 65 353 65 201 q 79 577 65 504 q 144 685 93 650 q 307 719 194 719 q 458 686 413 719 q 516 582 504 653 q 528 354 528 511 l 528 322 m 306 636 q 211 619 240 636 q 173 555 182 603 q 164 396 164 507 l 433 396 l 433 413 q 422 560 433 514 q 385 622 411 607 q 306 636 360 636 z "},"ẽ":{"ha":594,"x_min":65,"x_max":528,"o":"m 528 322 l 164 322 q 174 160 164 210 q 219 92 185 111 q 333 74 253 74 q 508 89 425 74 l 508 8 q 421 -6 476 0 q 314 -11 365 -11 q 150 22 201 -11 q 82 128 99 54 q 65 353 65 201 q 79 577 65 504 q 144 685 93 650 q 307 719 194 719 q 458 686 413 719 q 516 582 504 653 q 528 354 528 511 l 528 322 m 306 636 q 211 619 240 636 q 173 555 182 603 q 164 396 164 507 l 433 396 l 433 413 q 422 560 433 514 q 385 622 411 607 q 306 636 360 636 m 492 1032 q 476 913 492 946 q 406 881 460 881 q 351 889 378 881 q 288 913 324 897 q 260 924 281 915 q 224 938 240 933 q 194 942 207 942 q 168 926 174 942 q 163 865 163 910 l 101 865 q 117 984 101 951 q 188 1017 133 1017 q 242 1008 214 1017 q 308 983 271 999 q 358 964 333 972 q 399 956 382 956 q 425 972 419 956 q 431 1032 431 988 l 492 1032 z "},"ə":{"ha":594,"x_min":67,"x_max":529,"o":"m 281 719 q 444 687 393 719 q 513 581 496 654 q 529 356 529 507 q 515 131 529 204 q 451 24 501 58 q 288 -11 400 -11 q 136 22 182 -11 q 78 126 90 56 q 67 354 67 197 l 67 386 l 431 386 q 420 548 431 499 q 376 616 410 597 q 261 635 342 635 q 86 619 169 635 l 86 700 q 174 714 118 708 q 281 719 229 719 m 289 72 q 383 89 354 72 q 422 153 413 106 q 431 313 431 201 l 161 313 l 161 296 q 172 148 161 194 q 209 87 183 101 q 289 72 235 72 z "},"f":{"ha":390,"x_min":28,"x_max":361,"o":"m 131 624 l 28 624 l 28 708 l 131 708 l 131 828 q 152 964 131 921 q 220 1019 174 1007 q 361 1032 267 1032 l 361 954 q 277 947 304 954 q 240 916 250 939 q 229 846 229 893 l 229 708 l 361 708 l 361 624 l 229 624 l 229 0 l 131 0 l 131 624 z "},"g":{"ha":625,"x_min":65,"x_max":538,"o":"m 276 -276 q 90 -267 181 -276 l 90 -186 q 258 -192 199 -192 q 378 -171 342 -192 q 427 -98 415 -150 q 439 69 439 -46 l 439 90 l 432 90 q 374 15 414 38 q 267 -7 333 -7 q 141 24 183 -7 q 82 131 99 54 q 65 356 65 207 q 83 581 65 504 q 142 689 100 658 q 268 719 185 719 q 374 697 331 719 q 438 610 418 674 l 444 610 l 450 708 l 538 708 l 538 103 q 520 -127 538 -50 q 448 -240 503 -204 q 276 -276 393 -276 m 303 81 q 383 101 354 81 q 424 168 413 122 q 439 356 439 226 q 437 463 439 422 q 426 533 435 504 q 385 608 414 586 q 303 631 356 631 q 210 613 238 631 q 174 540 183 594 q 164 356 164 485 q 174 172 164 226 q 210 99 183 117 q 303 81 238 81 z "},"ǵ":{"ha":625,"x_min":65,"x_max":538,"o":"m 276 -276 q 90 -267 181 -276 l 90 -186 q 258 -192 199 -192 q 378 -171 342 -192 q 427 -98 415 -150 q 439 69 439 -46 l 439 90 l 432 90 q 374 15 414 38 q 267 -7 333 -7 q 141 24 183 -7 q 82 131 99 54 q 65 356 65 207 q 83 581 65 504 q 142 689 100 658 q 268 719 185 719 q 374 697 331 719 q 438 610 418 674 l 444 610 l 450 708 l 538 708 l 538 103 q 520 -127 538 -50 q 448 -240 503 -204 q 276 -276 393 -276 m 303 81 q 383 101 354 81 q 424 168 413 122 q 439 356 439 226 q 437 463 439 422 q 426 533 435 504 q 385 608 414 586 q 303 631 356 631 q 210 613 238 631 q 174 540 183 594 q 164 356 164 485 q 174 172 164 226 q 210 99 183 117 q 303 81 238 81 m 268 836 l 268 843 l 343 1032 l 447 1032 l 447 1025 l 340 836 l 268 836 z "},"ğ":{"ha":625,"x_min":65,"x_max":538,"o":"m 276 -276 q 90 -267 181 -276 l 90 -186 q 258 -192 199 -192 q 378 -171 342 -192 q 427 -98 415 -150 q 439 69 439 -46 l 439 90 l 432 90 q 374 15 414 38 q 267 -7 333 -7 q 141 24 183 -7 q 82 131 99 54 q 65 356 65 207 q 83 581 65 504 q 142 689 100 658 q 268 719 185 719 q 374 697 331 719 q 438 610 418 674 l 444 610 l 450 708 l 538 708 l 538 103 q 520 -127 538 -50 q 448 -240 503 -204 q 276 -276 393 -276 m 303 81 q 383 101 354 81 q 424 168 413 122 q 439 356 439 226 q 437 463 439 422 q 426 533 435 504 q 385 608 414 586 q 303 631 356 631 q 210 613 238 631 q 174 540 183 594 q 164 356 164 485 q 174 172 164 226 q 210 99 183 117 q 303 81 238 81 m 467 1032 q 458 922 467 963 q 415 858 449 882 q 310 835 381 835 q 207 858 240 835 q 165 922 174 882 q 156 1032 156 963 l 225 1032 q 229 953 225 979 q 251 913 233 928 q 310 899 269 899 q 370 913 351 899 q 393 953 389 928 q 397 1032 397 979 l 467 1032 z "},"ǧ":{"ha":625,"x_min":65,"x_max":538,"o":"m 276 -276 q 90 -267 181 -276 l 90 -186 q 258 -192 199 -192 q 378 -171 342 -192 q 427 -98 415 -150 q 439 69 439 -46 l 439 90 l 432 90 q 374 15 414 38 q 267 -7 333 -7 q 141 24 183 -7 q 82 131 99 54 q 65 356 65 207 q 83 581 65 504 q 142 689 100 658 q 268 719 185 719 q 374 697 331 719 q 438 610 418 674 l 444 610 l 450 708 l 538 708 l 538 103 q 520 -127 538 -50 q 448 -240 503 -204 q 276 -276 393 -276 m 303 81 q 383 101 354 81 q 424 168 413 122 q 439 356 439 226 q 437 463 439 422 q 426 533 435 504 q 385 608 414 586 q 303 631 356 631 q 210 613 238 631 q 174 540 183 594 q 164 356 164 485 q 174 172 164 226 q 210 99 183 117 q 303 81 238 81 m 258 839 l 151 1024 l 151 1032 l 221 1032 l 313 897 l 403 1032 l 472 1032 l 472 1024 l 365 839 l 258 839 z "},"ĝ":{"ha":625,"x_min":65,"x_max":538,"o":"m 276 -276 q 90 -267 181 -276 l 90 -186 q 258 -192 199 -192 q 378 -171 342 -192 q 427 -98 415 -150 q 439 69 439 -46 l 439 90 l 432 90 q 374 15 414 38 q 267 -7 333 -7 q 141 24 183 -7 q 82 131 99 54 q 65 356 65 207 q 83 581 65 504 q 142 689 100 658 q 268 719 185 719 q 374 697 331 719 q 438 610 418 674 l 444 610 l 450 708 l 538 708 l 538 103 q 520 -127 538 -50 q 448 -240 503 -204 q 276 -276 393 -276 m 303 81 q 383 101 354 81 q 424 168 413 122 q 439 356 439 226 q 437 463 439 422 q 426 533 435 504 q 385 608 414 586 q 303 631 356 631 q 210 613 238 631 q 174 540 183 594 q 164 356 164 485 q 174 172 164 226 q 210 99 183 117 q 303 81 238 81 m 151 840 l 151 849 l 258 1032 l 367 1032 l 472 849 l 472 840 l 403 840 l 313 975 l 221 840 l 151 840 z "},"ģ":{"ha":625,"x_min":65,"x_max":538,"o":"m 276 -276 q 90 -267 181 -276 l 90 -186 q 258 -192 199 -192 q 378 -171 342 -192 q 427 -98 415 -150 q 439 69 439 -46 l 439 90 l 432 90 q 374 15 414 38 q 267 -7 333 -7 q 141 24 183 -7 q 82 131 99 54 q 65 356 65 207 q 83 581 65 504 q 142 689 100 658 q 268 719 185 719 q 374 697 331 719 q 438 610 418 674 l 444 610 l 450 708 l 538 708 l 538 103 q 520 -127 538 -50 q 448 -240 503 -204 q 276 -276 393 -276 m 303 81 q 383 101 354 81 q 424 168 413 122 q 439 356 439 226 q 437 463 439 422 q 426 533 435 504 q 385 608 414 586 q 303 631 356 631 q 210 613 238 631 q 174 540 183 594 q 164 356 164 485 q 174 172 164 226 q 210 99 183 117 q 303 81 238 81 m 393 1057 q 335 1042 347 1057 q 322 981 322 1028 l 322 957 l 368 957 l 368 838 l 257 838 l 257 947 q 267 1046 257 1014 q 305 1091 276 1078 q 393 1104 333 1104 l 393 1057 z "},"ġ":{"ha":625,"x_min":65,"x_max":538,"o":"m 276 -276 q 90 -267 181 -276 l 90 -186 q 258 -192 199 -192 q 378 -171 342 -192 q 427 -98 415 -150 q 439 69 439 -46 l 439 90 l 432 90 q 374 15 414 38 q 267 -7 333 -7 q 141 24 183 -7 q 82 131 99 54 q 65 356 65 207 q 83 581 65 504 q 142 689 100 658 q 268 719 185 719 q 374 697 331 719 q 438 610 418 674 l 444 610 l 450 708 l 538 708 l 538 103 q 520 -127 538 -50 q 448 -240 503 -204 q 276 -276 393 -276 m 303 81 q 383 101 354 81 q 424 168 413 122 q 439 356 439 226 q 437 463 439 422 q 426 533 435 504 q 385 608 414 586 q 303 631 356 631 q 210 613 238 631 q 174 540 183 594 q 164 356 164 485 q 174 172 164 226 q 210 99 183 117 q 303 81 238 81 m 264 908 l 264 1014 l 358 1014 l 358 908 l 264 908 z "},"h":{"ha":629,"x_min":88,"x_max":546,"o":"m 447 414 q 438 558 447 514 q 404 616 429 601 q 322 631 379 631 q 229 600 258 631 q 193 518 200 569 q 186 368 186 467 l 186 0 l 88 0 l 88 1032 l 186 1032 l 186 624 l 193 624 q 363 719 231 719 q 480 692 440 719 q 533 608 519 665 q 546 449 546 551 l 546 0 l 447 0 l 447 414 z "},"ħ":{"ha":629,"x_min":11,"x_max":546,"o":"m 363 719 q 480 692 440 719 q 533 608 519 665 q 546 449 546 551 l 546 0 l 447 0 l 447 414 q 438 558 447 514 q 404 616 429 601 q 322 631 379 631 q 229 600 258 631 q 193 518 200 569 q 186 368 186 467 l 186 0 l 88 0 l 88 872 l 11 872 l 11 956 l 88 956 l 88 1032 l 186 1032 l 186 956 l 344 956 l 344 872 l 186 872 l 186 624 l 193 624 q 363 719 231 719 z "},"ĥ":{"ha":629,"x_min":-25,"x_max":546,"o":"m 447 414 q 438 558 447 514 q 404 616 429 601 q 322 631 379 631 q 229 600 258 631 q 193 518 200 569 q 186 368 186 467 l 186 0 l 88 0 l 88 1032 l 186 1032 l 186 624 l 193 624 q 363 719 231 719 q 480 692 440 719 q 533 608 519 665 q 546 449 546 551 l 546 0 l 447 0 l 447 414 m -25 1088 l -25 1096 l 82 1279 l 190 1279 l 296 1096 l 296 1088 l 226 1088 l 136 1222 l 44 1088 l -25 1088 z "},"ḥ":{"ha":629,"x_min":88,"x_max":546,"o":"m 447 414 q 438 558 447 514 q 404 616 429 601 q 322 631 379 631 q 229 600 258 631 q 193 518 200 569 q 186 368 186 467 l 186 0 l 88 0 l 88 1032 l 186 1032 l 186 624 l 193 624 q 363 719 231 719 q 480 692 440 719 q 533 608 519 665 q 546 449 546 551 l 546 0 l 447 0 l 447 414 m 257 -211 l 257 -86 l 371 -86 l 371 -211 l 257 -211 z "},"i":{"ha":272,"x_min":85,"x_max":189,"o":"m 85 917 l 85 1032 l 189 1032 l 189 917 l 85 917 m 88 0 l 88 708 l 186 708 l 186 0 l 88 0 z "},"ı":{"ha":272,"x_min":88,"x_max":186,"o":"m 88 0 l 88 708 l 186 708 l 186 0 l 88 0 z "},"í":{"ha":272,"x_min":88,"x_max":267,"o":"m 88 0 l 88 708 l 186 708 l 186 0 l 88 0 m 88 836 l 88 843 l 163 1032 l 267 1032 l 267 1025 l 160 836 l 88 836 z "},"ĭ":{"ha":272,"x_min":-21,"x_max":290,"o":"m 88 0 l 88 708 l 186 708 l 186 0 l 88 0 m 290 1032 q 281 922 290 963 q 238 858 272 882 q 133 835 204 835 q 31 858 64 835 q -12 922 -3 882 q -21 1032 -21 963 l 49 1032 q 53 953 49 979 q 75 913 57 928 q 133 899 93 899 q 194 913 175 899 q 217 953 213 928 q 221 1032 221 979 l 290 1032 z "},"ǐ":{"ha":272,"x_min":-25,"x_max":296,"o":"m 88 0 l 88 708 l 186 708 l 186 0 l 88 0 m 82 839 l -25 1024 l -25 1032 l 44 1032 l 136 897 l 226 1032 l 296 1032 l 296 1024 l 189 839 l 82 839 z "},"î":{"ha":272,"x_min":-24,"x_max":297,"o":"m 88 0 l 88 708 l 186 708 l 186 0 l 88 0 m -24 840 l -24 849 l 83 1032 l 192 1032 l 297 849 l 297 840 l 228 840 l 138 975 l 46 840 l -24 840 z "},"ȉ":{"ha":272,"x_min":-78,"x_max":267,"o":"m 88 0 l 88 708 l 186 708 l 186 0 l 88 0 m 82 847 l 18 847 l -78 1011 l -78 1017 l 14 1017 l 82 853 l 82 847 m 267 847 l 203 847 l 106 1011 l 106 1017 l 199 1017 l 267 853 l 267 847 z "},"ï":{"ha":272,"x_min":-33,"x_max":308,"o":"m 88 0 l 88 708 l 186 708 l 186 0 l 88 0 m -33 906 l -33 1011 l 61 1011 l 61 906 l -33 906 m 214 906 l 214 1011 l 308 1011 l 308 906 l 214 906 z "},"ị":{"ha":272,"x_min":78,"x_max":192,"o":"m 85 917 l 85 1032 l 189 1032 l 189 917 l 85 917 m 88 0 l 88 708 l 186 708 l 186 0 l 88 0 m 78 -211 l 78 -86 l 192 -86 l 192 -211 l 78 -211 z "},"ì":{"ha":272,"x_min":7,"x_max":186,"o":"m 88 0 l 88 708 l 186 708 l 186 0 l 88 0 m 114 836 l 7 1025 l 7 1032 l 111 1032 l 186 843 l 186 836 l 114 836 z "},"ỉ":{"ha":272,"x_min":-1,"x_max":274,"o":"m 88 0 l 88 708 l 186 708 l 186 0 l 88 0 m 72 861 q 84 908 72 894 q 128 931 96 921 l 147 938 q 189 958 178 947 q 200 992 200 968 q 194 1020 200 1011 q 171 1033 188 1029 q 117 1036 154 1036 q -1 1029 71 1036 l -1 1090 q 126 1101 79 1101 q 241 1079 208 1101 q 274 1000 274 1057 q 261 937 274 958 q 208 901 249 915 l 189 893 q 145 874 153 881 q 138 847 138 867 l 72 847 l 72 861 z "},"ȋ":{"ha":272,"x_min":-19,"x_max":292,"o":"m 88 0 l 88 708 l 186 708 l 186 0 l 88 0 m -19 843 q -10 953 -19 913 q 33 1017 -1 993 q 138 1040 67 1040 q 240 1017 207 1040 q 283 953 274 993 q 292 843 292 913 l 222 843 q 218 922 222 896 q 196 962 214 947 q 138 976 178 976 q 77 962 96 976 q 54 922 58 947 q 50 843 50 896 l -19 843 z "},"ĳ":{"ha":544,"x_min":85,"x_max":461,"o":"m 85 917 l 85 1032 l 189 1032 l 189 917 l 85 917 m 88 0 l 88 708 l 186 708 l 186 0 l 88 0 m 357 917 l 357 1032 l 461 1032 l 461 917 l 357 917 m 264 -190 q 328 -183 308 -190 q 354 -161 349 -176 q 360 -112 360 -146 l 360 708 l 458 708 l 458 -85 q 440 -208 458 -169 q 384 -257 422 -246 q 264 -268 346 -268 l 264 -190 z "},"ī":{"ha":272,"x_min":0,"x_max":272,"o":"m 88 0 l 88 708 l 186 708 l 186 0 l 88 0 m 0 940 l 0 1032 l 272 1032 l 272 940 l 0 940 z "},"į":{"ha":272,"x_min":15,"x_max":188,"o":"m 183 1014 l 183 908 l 89 908 l 89 1014 l 183 1014 m 164 -206 q 188 -204 176 -206 l 188 -269 q 139 -272 168 -272 q 44 -244 74 -272 q 15 -168 15 -215 q 38 -83 15 -126 q 100 0 61 -39 l 88 0 l 88 708 l 186 708 l 186 0 q 128 -68 156 -25 q 101 -147 101 -111 q 164 -206 101 -206 z "},"ĩ":{"ha":272,"x_min":-60,"x_max":331,"o":"m 88 0 l 88 708 l 186 708 l 186 0 l 88 0 m 331 1032 q 315 913 331 946 q 244 881 299 881 q 190 889 217 881 q 126 913 163 897 q 99 924 119 915 q 63 938 79 933 q 33 942 46 942 q 7 926 13 942 q 1 865 1 910 l -60 865 q -44 984 -60 951 q 26 1017 -28 1017 q 81 1008 53 1017 q 147 983 110 999 q 197 964 172 972 q 238 956 221 956 q 264 972 258 956 q 269 1032 269 988 l 331 1032 z "},"j":{"ha":272,"x_min":-8,"x_max":189,"o":"m 85 917 l 85 1032 l 189 1032 l 189 917 l 85 917 m -8 -190 q 56 -183 36 -190 q 82 -161 76 -176 q 88 -112 88 -146 l 88 708 l 186 708 l 186 -85 q 168 -208 186 -169 q 112 -257 150 -246 q -8 -268 74 -268 l -8 -190 z "},"ȷ":{"ha":272,"x_min":-8,"x_max":186,"o":"m -8 -190 q 56 -183 36 -190 q 82 -161 76 -176 q 88 -112 88 -146 l 88 708 l 186 708 l 186 -85 q 168 -208 186 -169 q 112 -257 150 -246 q -8 -268 74 -268 l -8 -190 z "},"ĵ":{"ha":272,"x_min":-25,"x_max":296,"o":"m -8 -190 q 56 -183 36 -190 q 82 -161 76 -176 q 88 -112 88 -146 l 88 708 l 186 708 l 186 -85 q 168 -208 186 -169 q 112 -257 150 -246 q -8 -268 74 -268 l -8 -190 m -25 840 l -25 849 l 82 1032 l 190 1032 l 296 849 l 296 840 l 226 840 l 136 975 l 44 840 l -25 840 z "},"k":{"ha":567,"x_min":88,"x_max":540,"o":"m 431 0 l 260 315 l 186 315 l 186 0 l 88 0 l 88 1032 l 186 1032 l 186 401 l 260 401 l 429 708 l 536 708 l 340 365 l 540 0 l 431 0 z "},"ķ":{"ha":567,"x_min":88,"x_max":540,"o":"m 431 0 l 260 315 l 186 315 l 186 0 l 88 0 l 88 1032 l 186 1032 l 186 401 l 260 401 l 429 708 l 536 708 l 340 365 l 540 0 l 431 0 m 215 -306 q 274 -290 261 -306 q 286 -228 286 -275 l 286 -206 l 240 -206 l 240 -86 l 351 -86 l 351 -194 q 342 -294 351 -261 q 303 -340 332 -326 q 215 -353 275 -353 l 215 -306 z "},"ĸ":{"ha":567,"x_min":88,"x_max":540,"o":"m 431 0 l 260 315 l 186 315 l 186 0 l 88 0 l 88 708 l 186 708 l 186 401 l 260 401 l 429 708 l 536 708 l 340 365 l 540 0 l 431 0 z "},"l":{"ha":272,"x_min":88,"x_max":186,"o":"m 88 0 l 88 1032 l 186 1032 l 186 0 l 88 0 z "},"ĺ":{"ha":272,"x_min":88,"x_max":271,"o":"m 88 0 l 88 1032 l 186 1032 l 186 0 l 88 0 m 92 1083 l 92 1090 l 167 1279 l 271 1279 l 271 1272 l 164 1083 l 92 1083 z "},"ľ":{"ha":294,"x_min":88,"x_max":346,"o":"m 88 0 l 88 1032 l 186 1032 l 186 0 l 88 0 m 229 618 l 249 849 l 249 956 l 346 956 l 346 849 l 297 618 l 229 618 z "},"ļ":{"ha":272,"x_min":68,"x_max":204,"o":"m 88 0 l 88 1032 l 186 1032 l 186 0 l 88 0 m 68 -306 q 126 -290 114 -306 q 139 -228 139 -275 l 139 -206 l 93 -206 l 93 -86 l 204 -86 l 204 -194 q 194 -294 204 -261 q 156 -340 185 -326 q 68 -353 128 -353 l 68 -306 z "},"ŀ":{"ha":346,"x_min":88,"x_max":365,"o":"m 88 0 l 88 1032 l 186 1032 l 186 0 l 88 0 m 253 353 l 253 478 l 365 478 l 365 353 l 253 353 z "},"ǉ":{"ha":544,"x_min":88,"x_max":461,"o":"m 88 0 l 88 1032 l 186 1032 l 186 0 l 88 0 m 357 917 l 357 1032 l 461 1032 l 461 917 l 357 917 m 264 -190 q 328 -183 308 -190 q 354 -161 349 -176 q 360 -112 360 -146 l 360 708 l 458 708 l 458 -85 q 440 -208 458 -169 q 384 -257 422 -246 q 264 -268 346 -268 l 264 -190 z "},"ł":{"ha":282,"x_min":21,"x_max":261,"o":"m 89 0 l 89 439 l 21 415 l 21 501 l 89 525 l 89 1032 l 188 1032 l 188 560 l 261 586 l 261 500 l 188 474 l 188 0 l 89 0 z "},"m":{"ha":957,"x_min":88,"x_max":874,"o":"m 775 414 q 767 558 775 514 q 736 616 758 601 q 661 631 714 631 q 572 602 600 631 q 536 522 543 574 q 529 368 529 471 l 529 0 l 431 0 l 431 414 q 423 558 431 515 q 393 616 415 601 q 318 631 371 631 q 228 601 257 631 q 193 519 200 571 q 186 368 186 467 l 186 0 l 88 0 l 88 708 l 174 708 l 179 610 l 188 610 q 242 690 204 661 q 354 719 281 719 q 467 694 431 719 q 518 610 504 669 l 526 610 q 583 691 543 663 q 697 719 624 719 q 810 692 772 719 q 860 608 847 665 q 874 449 874 551 l 874 0 l 775 0 l 775 414 z "},"n":{"ha":629,"x_min":88,"x_max":546,"o":"m 447 414 q 438 558 447 514 q 404 616 429 601 q 322 631 379 631 q 229 600 258 631 q 193 518 200 569 q 186 368 186 467 l 186 0 l 88 0 l 88 708 l 174 708 l 179 610 l 188 610 q 245 691 204 663 q 363 719 286 719 q 480 692 440 719 q 533 608 519 664 q 546 447 546 551 l 546 0 l 447 0 l 447 414 z "},"ń":{"ha":629,"x_min":88,"x_max":546,"o":"m 447 414 q 438 558 447 514 q 404 616 429 601 q 322 631 379 631 q 229 600 258 631 q 193 518 200 569 q 186 368 186 467 l 186 0 l 88 0 l 88 708 l 174 708 l 179 610 l 188 610 q 245 691 204 663 q 363 719 286 719 q 480 692 440 719 q 533 608 519 664 q 546 447 546 551 l 546 0 l 447 0 l 447 414 m 269 836 l 269 843 l 344 1032 l 449 1032 l 449 1025 l 342 836 l 269 836 z "},"ŉ":{"ha":683,"x_min":10,"x_max":600,"o":"m 10 813 q 68 830 56 813 q 81 901 81 847 l 81 925 l 35 925 l 35 1032 l 146 1032 l 146 936 q 136 829 146 864 q 98 780 126 794 q 10 765 69 765 l 10 813 m 501 414 q 492 558 501 514 q 458 616 483 601 q 376 631 433 631 q 283 600 313 631 q 247 518 254 569 q 240 368 240 467 l 240 0 l 142 0 l 142 708 l 228 708 l 233 610 l 242 610 q 299 691 258 663 q 417 719 340 719 q 534 692 494 719 q 587 608 574 664 q 600 447 600 551 l 600 0 l 501 0 l 501 414 z "},"ň":{"ha":629,"x_min":88,"x_max":546,"o":"m 447 414 q 438 558 447 514 q 404 616 429 601 q 322 631 379 631 q 229 600 258 631 q 193 518 200 569 q 186 368 186 467 l 186 0 l 88 0 l 88 708 l 174 708 l 179 610 l 188 610 q 245 691 204 663 q 363 719 286 719 q 480 692 440 719 q 533 608 519 664 q 546 447 546 551 l 546 0 l 447 0 l 447 414 m 260 839 l 153 1024 l 153 1032 l 222 1032 l 314 897 l 404 1032 l 474 1032 l 474 1024 l 367 839 l 260 839 z "},"ņ":{"ha":629,"x_min":88,"x_max":546,"o":"m 447 414 q 438 558 447 514 q 404 616 429 601 q 322 631 379 631 q 229 600 258 631 q 193 518 200 569 q 186 368 186 467 l 186 0 l 88 0 l 88 708 l 174 708 l 179 610 l 188 610 q 245 691 204 663 q 363 719 286 719 q 480 692 440 719 q 533 608 519 664 q 546 447 546 551 l 546 0 l 447 0 l 447 414 m 246 -306 q 304 -290 292 -306 q 317 -228 317 -275 l 317 -206 l 271 -206 l 271 -86 l 382 -86 l 382 -194 q 372 -294 382 -261 q 334 -340 363 -326 q 246 -353 306 -353 l 246 -306 z "},"ṅ":{"ha":629,"x_min":88,"x_max":546,"o":"m 447 414 q 438 558 447 514 q 404 616 429 601 q 322 631 379 631 q 229 600 258 631 q 193 518 200 569 q 186 368 186 467 l 186 0 l 88 0 l 88 708 l 174 708 l 179 610 l 188 610 q 245 691 204 663 q 363 719 286 719 q 480 692 440 719 q 533 608 519 664 q 546 447 546 551 l 546 0 l 447 0 l 447 414 m 265 908 l 265 1014 l 360 1014 l 360 908 l 265 908 z "},"ŋ":{"ha":629,"x_min":88,"x_max":546,"o":"m 363 719 q 480 692 440 719 q 533 608 519 664 q 546 447 546 551 l 546 -85 q 528 -208 546 -169 q 472 -257 510 -246 q 351 -268 433 -268 l 351 -190 q 416 -183 396 -190 q 442 -161 436 -176 q 447 -112 447 -146 l 447 414 q 438 558 447 514 q 404 616 429 601 q 322 631 379 631 q 229 600 258 631 q 193 518 200 569 q 186 368 186 467 l 186 0 l 88 0 l 88 708 l 174 708 l 179 610 l 188 610 q 245 691 204 663 q 363 719 286 719 z "},"ɲ":{"ha":629,"x_min":-8,"x_max":546,"o":"m -8 -190 q 56 -183 36 -190 q 82 -161 76 -176 q 88 -112 88 -146 l 88 708 l 174 708 l 179 610 l 188 610 q 245 691 204 663 q 363 719 286 719 q 480 692 440 719 q 533 608 519 664 q 546 447 546 551 l 546 0 l 447 0 l 447 414 q 438 558 447 514 q 404 616 429 601 q 322 631 379 631 q 229 601 258 631 q 193 519 200 571 q 186 369 186 468 l 186 -85 q 168 -208 186 -169 q 112 -257 150 -246 q -8 -268 74 -268 l -8 -190 z "},"ǌ":{"ha":901,"x_min":88,"x_max":818,"o":"m 447 414 q 438 558 447 514 q 404 616 429 601 q 322 631 379 631 q 229 600 258 631 q 193 518 200 569 q 186 368 186 467 l 186 0 l 88 0 l 88 708 l 174 708 l 179 610 l 188 610 q 245 691 204 663 q 363 719 286 719 q 480 692 440 719 q 533 608 519 664 q 546 447 546 551 l 546 0 l 447 0 l 447 414 m 714 917 l 714 1032 l 818 1032 l 818 917 l 714 917 m 621 -190 q 685 -183 665 -190 q 711 -161 706 -176 q 717 -112 717 -146 l 717 708 l 815 708 l 815 -85 q 797 -208 815 -169 q 741 -257 779 -246 q 621 -268 703 -268 l 621 -190 z "},"ñ":{"ha":629,"x_min":88,"x_max":546,"o":"m 447 414 q 438 558 447 514 q 404 616 429 601 q 322 631 379 631 q 229 600 258 631 q 193 518 200 569 q 186 368 186 467 l 186 0 l 88 0 l 88 708 l 174 708 l 179 610 l 188 610 q 245 691 204 663 q 363 719 286 719 q 480 692 440 719 q 533 608 519 664 q 546 447 546 551 l 546 0 l 447 0 l 447 414 m 515 1032 q 499 913 515 946 q 429 881 483 881 q 374 889 401 881 q 311 913 347 897 q 284 924 304 915 q 247 938 264 933 q 218 942 231 942 q 192 926 197 942 q 186 865 186 910 l 125 865 q 141 984 125 951 q 211 1017 157 1017 q 266 1008 238 1017 q 332 983 294 999 q 381 964 357 972 q 422 956 406 956 q 449 972 443 956 q 454 1032 454 988 l 515 1032 z "},"o":{"ha":610,"x_min":65,"x_max":544,"o":"m 306 -11 q 144 18 193 -11 q 80 119 94 47 q 65 354 65 192 q 80 589 65 517 q 144 690 94 661 q 306 719 193 719 q 467 690 418 719 q 531 589 517 661 q 544 354 544 517 q 531 119 544 192 q 467 18 517 47 q 306 -11 418 -11 m 306 74 q 403 93 375 74 q 439 165 432 113 q 446 354 446 218 q 439 543 446 490 q 403 615 432 596 q 306 635 375 635 q 207 615 235 635 q 172 542 179 596 q 164 354 164 489 q 172 166 164 219 q 207 93 179 113 q 306 74 235 74 z "},"ó":{"ha":610,"x_min":65,"x_max":544,"o":"m 306 -11 q 144 18 193 -11 q 80 119 94 47 q 65 354 65 192 q 80 589 65 517 q 144 690 94 661 q 306 719 193 719 q 467 690 418 719 q 531 589 517 661 q 544 354 544 517 q 531 119 544 192 q 467 18 517 47 q 306 -11 418 -11 m 306 74 q 403 93 375 74 q 439 165 432 113 q 446 354 446 218 q 439 543 446 490 q 403 615 432 596 q 306 635 375 635 q 207 615 235 635 q 172 542 179 596 q 164 354 164 489 q 172 166 164 219 q 207 93 179 113 q 306 74 235 74 m 256 836 l 256 843 l 331 1032 l 435 1032 l 435 1025 l 328 836 l 256 836 z "},"ŏ":{"ha":610,"x_min":65,"x_max":544,"o":"m 306 -11 q 144 18 193 -11 q 80 119 94 47 q 65 354 65 192 q 80 589 65 517 q 144 690 94 661 q 306 719 193 719 q 467 690 418 719 q 531 589 517 661 q 544 354 544 517 q 531 119 544 192 q 467 18 517 47 q 306 -11 418 -11 m 306 74 q 403 93 375 74 q 439 165 432 113 q 446 354 446 218 q 439 543 446 490 q 403 615 432 596 q 306 635 375 635 q 207 615 235 635 q 172 542 179 596 q 164 354 164 489 q 172 166 164 219 q 207 93 179 113 q 306 74 235 74 m 460 1032 q 451 922 460 963 q 408 858 442 882 q 303 835 374 835 q 200 858 233 835 q 158 922 167 882 q 149 1032 149 963 l 218 1032 q 222 953 218 979 q 244 913 226 928 q 303 899 263 899 q 363 913 344 899 q 386 953 382 928 q 390 1032 390 979 l 460 1032 z "},"ǒ":{"ha":610,"x_min":65,"x_max":544,"o":"m 306 -11 q 144 18 193 -11 q 80 119 94 47 q 65 354 65 192 q 80 589 65 517 q 144 690 94 661 q 306 719 193 719 q 467 690 418 719 q 531 589 517 661 q 544 354 544 517 q 531 119 544 192 q 467 18 517 47 q 306 -11 418 -11 m 306 74 q 403 93 375 74 q 439 165 432 113 q 446 354 446 218 q 439 543 446 490 q 403 615 432 596 q 306 635 375 635 q 207 615 235 635 q 172 542 179 596 q 164 354 164 489 q 172 166 164 219 q 207 93 179 113 q 306 74 235 74 m 251 839 l 144 1024 l 144 1032 l 214 1032 l 306 897 l 396 1032 l 465 1032 l 465 1024 l 358 839 l 251 839 z "},"ô":{"ha":610,"x_min":65,"x_max":544,"o":"m 306 -11 q 144 18 193 -11 q 80 119 94 47 q 65 354 65 192 q 80 589 65 517 q 144 690 94 661 q 306 719 193 719 q 467 690 418 719 q 531 589 517 661 q 544 354 544 517 q 531 119 544 192 q 467 18 517 47 q 306 -11 418 -11 m 306 74 q 403 93 375 74 q 439 165 432 113 q 446 354 446 218 q 439 543 446 490 q 403 615 432 596 q 306 635 375 635 q 207 615 235 635 q 172 542 179 596 q 164 354 164 489 q 172 166 164 219 q 207 93 179 113 q 306 74 235 74 m 146 840 l 146 849 l 253 1032 l 361 1032 l 467 849 l 467 840 l 397 840 l 307 975 l 215 840 l 146 840 z "},"ố":{"ha":610,"x_min":65,"x_max":544,"o":"m 306 -11 q 144 18 193 -11 q 80 119 94 47 q 65 354 65 192 q 80 589 65 517 q 144 690 94 661 q 306 719 193 719 q 467 690 418 719 q 531 589 517 661 q 544 354 544 517 q 531 119 544 192 q 467 18 517 47 q 306 -11 418 -11 m 306 74 q 403 93 375 74 q 439 165 432 113 q 446 354 446 218 q 439 543 446 490 q 403 615 432 596 q 306 635 375 635 q 207 615 235 635 q 172 542 179 596 q 164 354 164 489 q 172 166 164 219 q 207 93 179 113 q 306 74 235 74 m 143 840 l 143 849 l 250 1032 l 358 1032 l 464 849 l 464 840 l 394 840 l 304 975 l 213 840 l 143 840 m 365 1049 l 365 1056 l 440 1244 l 544 1244 l 544 1238 l 438 1049 l 365 1049 z "},"ộ":{"ha":610,"x_min":65,"x_max":544,"o":"m 306 -11 q 144 18 193 -11 q 80 119 94 47 q 65 354 65 192 q 80 589 65 517 q 144 690 94 661 q 306 719 193 719 q 467 690 418 719 q 531 589 517 661 q 544 354 544 517 q 531 119 544 192 q 467 18 517 47 q 306 -11 418 -11 m 306 74 q 403 93 375 74 q 439 165 432 113 q 446 354 446 218 q 439 543 446 490 q 403 615 432 596 q 306 635 375 635 q 207 615 235 635 q 172 542 179 596 q 164 354 164 489 q 172 166 164 219 q 207 93 179 113 q 306 74 235 74 m 249 -211 l 249 -86 l 363 -86 l 363 -211 l 249 -211 m 144 840 l 144 849 l 251 1032 l 360 1032 l 465 849 l 465 840 l 396 840 l 306 975 l 214 840 l 144 840 z "},"ồ":{"ha":610,"x_min":65,"x_max":544,"o":"m 306 -11 q 144 18 193 -11 q 80 119 94 47 q 65 354 65 192 q 80 589 65 517 q 144 690 94 661 q 306 719 193 719 q 467 690 418 719 q 531 589 517 661 q 544 354 544 517 q 531 119 544 192 q 467 18 517 47 q 306 -11 418 -11 m 306 74 q 403 93 375 74 q 439 165 432 113 q 446 354 446 218 q 439 543 446 490 q 403 615 432 596 q 306 635 375 635 q 207 615 235 635 q 172 542 179 596 q 164 354 164 489 q 172 166 164 219 q 207 93 179 113 q 306 74 235 74 m 142 840 l 142 849 l 249 1032 l 357 1032 l 463 849 l 463 840 l 393 840 l 303 975 l 211 840 l 142 840 m 389 1049 l 282 1238 l 282 1244 l 386 1244 l 461 1056 l 461 1049 l 389 1049 z "},"ổ":{"ha":610,"x_min":65,"x_max":556,"o":"m 306 -11 q 144 18 193 -11 q 80 119 94 47 q 65 354 65 192 q 80 589 65 517 q 144 690 94 661 q 306 719 193 719 q 467 690 418 719 q 531 589 517 661 q 544 354 544 517 q 531 119 544 192 q 467 18 517 47 q 306 -11 418 -11 m 306 74 q 403 93 375 74 q 439 165 432 113 q 446 354 446 218 q 439 543 446 490 q 403 615 432 596 q 306 635 375 635 q 207 615 235 635 q 172 542 179 596 q 164 354 164 489 q 172 166 164 219 q 207 93 179 113 q 306 74 235 74 m 144 840 l 144 849 l 251 1032 l 360 1032 l 465 849 l 465 840 l 396 840 l 306 975 l 214 840 l 144 840 m 354 1057 q 366 1103 354 1090 q 410 1126 378 1117 l 429 1133 q 471 1153 460 1143 q 482 1188 482 1164 q 476 1216 482 1207 q 453 1228 469 1225 q 399 1232 436 1232 q 281 1225 353 1232 l 281 1286 q 408 1297 361 1297 q 523 1275 490 1297 q 556 1196 556 1253 q 543 1133 556 1154 q 490 1097 531 1111 l 471 1089 q 427 1069 435 1076 q 419 1043 419 1063 l 354 1043 l 354 1057 z "},"ỗ":{"ha":610,"x_min":65,"x_max":544,"o":"m 306 -11 q 144 18 193 -11 q 80 119 94 47 q 65 354 65 192 q 80 589 65 517 q 144 690 94 661 q 306 719 193 719 q 467 690 418 719 q 531 589 517 661 q 544 354 544 517 q 531 119 544 192 q 467 18 517 47 q 306 -11 418 -11 m 306 74 q 403 93 375 74 q 439 165 432 113 q 446 354 446 218 q 439 543 446 490 q 403 615 432 596 q 306 635 375 635 q 207 615 235 635 q 172 542 179 596 q 164 354 164 489 q 172 166 164 219 q 207 93 179 113 q 306 74 235 74 m 142 840 l 142 849 l 249 1032 l 357 1032 l 463 849 l 463 840 l 393 840 l 303 975 l 211 840 l 142 840 m 500 1272 q 484 1153 500 1186 q 414 1121 468 1121 q 359 1129 386 1121 q 296 1153 332 1138 q 269 1165 289 1156 q 232 1178 249 1174 q 203 1182 215 1182 q 176 1166 182 1182 q 171 1106 171 1150 l 110 1106 q 126 1224 110 1192 q 196 1257 142 1257 q 251 1248 222 1257 q 317 1224 279 1239 q 366 1204 342 1213 q 407 1196 390 1196 q 433 1212 428 1196 q 439 1272 439 1228 l 500 1272 z "},"ȍ":{"ha":610,"x_min":65,"x_max":544,"o":"m 306 -11 q 144 18 193 -11 q 80 119 94 47 q 65 354 65 192 q 80 589 65 517 q 144 690 94 661 q 306 719 193 719 q 467 690 418 719 q 531 589 517 661 q 544 354 544 517 q 531 119 544 192 q 467 18 517 47 q 306 -11 418 -11 m 306 74 q 403 93 375 74 q 439 165 432 113 q 446 354 446 218 q 439 543 446 490 q 403 615 432 596 q 306 635 375 635 q 207 615 235 635 q 172 542 179 596 q 164 354 164 489 q 172 166 164 219 q 207 93 179 113 q 306 74 235 74 m 251 847 l 188 847 l 92 1011 l 92 1017 l 183 1017 l 251 853 l 251 847 m 436 847 l 372 847 l 275 1011 l 275 1017 l 368 1017 l 436 853 l 436 847 z "},"ö":{"ha":610,"x_min":65,"x_max":544,"o":"m 306 -11 q 144 18 193 -11 q 80 119 94 47 q 65 354 65 192 q 80 589 65 517 q 144 690 94 661 q 306 719 193 719 q 467 690 418 719 q 531 589 517 661 q 544 354 544 517 q 531 119 544 192 q 467 18 517 47 q 306 -11 418 -11 m 306 74 q 403 93 375 74 q 439 165 432 113 q 446 354 446 218 q 439 543 446 490 q 403 615 432 596 q 306 635 375 635 q 207 615 235 635 q 172 542 179 596 q 164 354 164 489 q 172 166 164 219 q 207 93 179 113 q 306 74 235 74 m 136 906 l 136 1011 l 231 1011 l 231 906 l 136 906 m 383 906 l 383 1011 l 478 1011 l 478 906 l 383 906 z "},"ọ":{"ha":610,"x_min":65,"x_max":544,"o":"m 306 -11 q 144 18 193 -11 q 80 119 94 47 q 65 354 65 192 q 80 589 65 517 q 144 690 94 661 q 306 719 193 719 q 467 690 418 719 q 531 589 517 661 q 544 354 544 517 q 531 119 544 192 q 467 18 517 47 q 306 -11 418 -11 m 306 74 q 403 93 375 74 q 439 165 432 113 q 446 354 446 218 q 439 543 446 490 q 403 615 432 596 q 306 635 375 635 q 207 615 235 635 q 172 542 179 596 q 164 354 164 489 q 172 166 164 219 q 207 93 179 113 q 306 74 235 74 m 249 -211 l 249 -86 l 363 -86 l 363 -211 l 249 -211 z "},"ò":{"ha":610,"x_min":65,"x_max":544,"o":"m 306 -11 q 144 18 193 -11 q 80 119 94 47 q 65 354 65 192 q 80 589 65 517 q 144 690 94 661 q 306 719 193 719 q 467 690 418 719 q 531 589 517 661 q 544 354 544 517 q 531 119 544 192 q 467 18 517 47 q 306 -11 418 -11 m 306 74 q 403 93 375 74 q 439 165 432 113 q 446 354 446 218 q 439 543 446 490 q 403 615 432 596 q 306 635 375 635 q 207 615 235 635 q 172 542 179 596 q 164 354 164 489 q 172 166 164 219 q 207 93 179 113 q 306 74 235 74 m 279 836 l 172 1025 l 172 1032 l 276 1032 l 351 843 l 351 836 l 279 836 z "},"ỏ":{"ha":610,"x_min":65,"x_max":544,"o":"m 306 -11 q 144 18 193 -11 q 80 119 94 47 q 65 354 65 192 q 80 589 65 517 q 144 690 94 661 q 306 719 193 719 q 467 690 418 719 q 531 589 517 661 q 544 354 544 517 q 531 119 544 192 q 467 18 517 47 q 306 -11 418 -11 m 306 74 q 403 93 375 74 q 439 165 432 113 q 446 354 446 218 q 439 543 446 490 q 403 615 432 596 q 306 635 375 635 q 207 615 235 635 q 172 542 179 596 q 164 354 164 489 q 172 166 164 219 q 207 93 179 113 q 306 74 235 74 m 242 861 q 253 908 242 894 q 297 931 265 921 l 317 938 q 358 958 347 947 q 369 992 369 968 q 363 1020 369 1011 q 340 1033 357 1029 q 286 1036 324 1036 q 168 1029 240 1036 l 168 1090 q 296 1101 249 1101 q 410 1079 378 1101 q 443 1000 443 1057 q 431 937 443 958 q 378 901 418 915 l 358 893 q 315 874 322 881 q 307 847 307 867 l 242 847 l 242 861 z "},"ơ":{"ha":610,"x_min":65,"x_max":622,"o":"m 622 843 l 622 797 q 613 715 622 743 q 578 672 604 686 q 503 656 553 658 q 537 552 529 619 q 544 354 544 485 q 531 119 544 192 q 467 18 517 47 q 306 -11 418 -11 q 144 18 193 -11 q 80 119 94 47 q 65 354 65 192 q 80 589 65 517 q 144 690 94 661 q 306 719 193 719 q 422 708 382 719 l 475 708 q 537 723 524 708 q 550 781 550 738 l 550 843 l 622 843 m 306 74 q 403 93 375 74 q 439 165 432 113 q 446 354 446 218 q 439 543 446 490 q 403 615 432 596 q 306 635 375 635 q 207 615 235 635 q 172 542 179 596 q 164 354 164 489 q 172 166 164 219 q 207 93 179 113 q 306 74 235 74 z "},"ớ":{"ha":610,"x_min":65,"x_max":622,"o":"m 622 843 l 622 797 q 613 715 622 743 q 578 672 604 686 q 503 656 553 658 q 537 552 529 619 q 544 354 544 485 q 531 119 544 192 q 467 18 517 47 q 306 -11 418 -11 q 144 18 193 -11 q 80 119 94 47 q 65 354 65 192 q 80 589 65 517 q 144 690 94 661 q 306 719 193 719 q 422 708 382 719 l 475 708 q 537 723 524 708 q 550 781 550 738 l 550 843 l 622 843 m 306 74 q 403 93 375 74 q 439 165 432 113 q 446 354 446 218 q 439 543 446 490 q 403 615 432 596 q 306 635 375 635 q 207 615 235 635 q 172 542 179 596 q 164 354 164 489 q 172 166 164 219 q 207 93 179 113 q 306 74 235 74 m 261 836 l 261 843 l 336 1032 l 440 1032 l 440 1025 l 333 836 l 261 836 z "},"ợ":{"ha":610,"x_min":65,"x_max":622,"o":"m 622 843 l 622 797 q 613 715 622 743 q 578 672 604 686 q 503 656 553 658 q 537 552 529 619 q 544 354 544 485 q 531 119 544 192 q 467 18 517 47 q 306 -11 418 -11 q 144 18 193 -11 q 80 119 94 47 q 65 354 65 192 q 80 589 65 517 q 144 690 94 661 q 306 719 193 719 q 422 708 382 719 l 475 708 q 537 723 524 708 q 550 781 550 738 l 550 843 l 622 843 m 306 74 q 403 93 375 74 q 439 165 432 113 q 446 354 446 218 q 439 543 446 490 q 403 615 432 596 q 306 635 375 635 q 207 615 235 635 q 172 542 179 596 q 164 354 164 489 q 172 166 164 219 q 207 93 179 113 q 306 74 235 74 m 249 -211 l 249 -86 l 363 -86 l 363 -211 l 249 -211 z "},"ờ":{"ha":610,"x_min":65,"x_max":622,"o":"m 622 843 l 622 797 q 613 715 622 743 q 578 672 604 686 q 503 656 553 658 q 537 552 529 619 q 544 354 544 485 q 531 119 544 192 q 467 18 517 47 q 306 -11 418 -11 q 144 18 193 -11 q 80 119 94 47 q 65 354 65 192 q 80 589 65 517 q 144 690 94 661 q 306 719 193 719 q 422 708 382 719 l 475 708 q 537 723 524 708 q 550 781 550 738 l 550 843 l 622 843 m 306 74 q 403 93 375 74 q 439 165 432 113 q 446 354 446 218 q 439 543 446 490 q 403 615 432 596 q 306 635 375 635 q 207 615 235 635 q 172 542 179 596 q 164 354 164 489 q 172 166 164 219 q 207 93 179 113 q 306 74 235 74 m 272 836 l 165 1025 l 165 1032 l 269 1032 l 344 843 l 344 836 l 272 836 z "},"ở":{"ha":610,"x_min":65,"x_max":622,"o":"m 622 843 l 622 797 q 613 715 622 743 q 578 672 604 686 q 503 656 553 658 q 537 552 529 619 q 544 354 544 485 q 531 119 544 192 q 467 18 517 47 q 306 -11 418 -11 q 144 18 193 -11 q 80 119 94 47 q 65 354 65 192 q 80 589 65 517 q 144 690 94 661 q 306 719 193 719 q 422 708 382 719 l 475 708 q 537 723 524 708 q 550 781 550 738 l 550 843 l 622 843 m 306 74 q 403 93 375 74 q 439 165 432 113 q 446 354 446 218 q 439 543 446 490 q 403 615 432 596 q 306 635 375 635 q 207 615 235 635 q 172 542 179 596 q 164 354 164 489 q 172 166 164 219 q 207 93 179 113 q 306 74 235 74 m 242 861 q 253 908 242 894 q 297 931 265 921 l 317 938 q 358 958 347 947 q 369 992 369 968 q 363 1020 369 1011 q 340 1033 357 1029 q 286 1036 324 1036 q 168 1029 240 1036 l 168 1090 q 296 1101 249 1101 q 410 1079 378 1101 q 443 1000 443 1057 q 431 937 443 958 q 378 901 418 915 l 358 893 q 315 874 322 881 q 307 847 307 867 l 242 847 l 242 861 z "},"ỡ":{"ha":610,"x_min":65,"x_max":622,"o":"m 622 843 l 622 797 q 613 715 622 743 q 578 672 604 686 q 503 656 553 658 q 537 552 529 619 q 544 354 544 485 q 531 119 544 192 q 467 18 517 47 q 306 -11 418 -11 q 144 18 193 -11 q 80 119 94 47 q 65 354 65 192 q 80 589 65 517 q 144 690 94 661 q 306 719 193 719 q 422 708 382 719 l 475 708 q 537 723 524 708 q 550 781 550 738 l 550 843 l 622 843 m 306 74 q 403 93 375 74 q 439 165 432 113 q 446 354 446 218 q 439 543 446 490 q 403 615 432 596 q 306 635 375 635 q 207 615 235 635 q 172 542 179 596 q 164 354 164 489 q 172 166 164 219 q 207 93 179 113 q 306 74 235 74 m 500 1032 q 484 913 500 946 q 414 881 468 881 q 359 889 386 881 q 296 913 332 897 q 269 924 289 915 q 232 938 249 933 q 203 942 215 942 q 176 926 182 942 q 171 865 171 910 l 110 865 q 126 984 110 951 q 196 1017 142 1017 q 251 1008 222 1017 q 317 983 279 999 q 366 964 342 972 q 407 956 390 956 q 433 972 428 956 q 439 1032 439 988 l 500 1032 z "},"ő":{"ha":610,"x_min":65,"x_max":544,"o":"m 306 -11 q 144 18 193 -11 q 80 119 94 47 q 65 354 65 192 q 80 589 65 517 q 144 690 94 661 q 306 719 193 719 q 467 690 418 719 q 531 589 517 661 q 544 354 544 517 q 531 119 544 192 q 467 18 517 47 q 306 -11 418 -11 m 306 74 q 403 93 375 74 q 439 165 432 113 q 446 354 446 218 q 439 543 446 490 q 403 615 432 596 q 306 635 375 635 q 207 615 235 635 q 172 542 179 596 q 164 354 164 489 q 172 166 164 219 q 207 93 179 113 q 306 74 235 74 m 192 847 l 192 853 l 260 1017 l 353 1017 l 353 1011 l 256 847 l 192 847 m 376 847 l 376 853 l 444 1017 l 536 1017 l 536 1011 l 440 847 l 376 847 z "},"ȏ":{"ha":610,"x_min":65,"x_max":544,"o":"m 306 -11 q 144 18 193 -11 q 80 119 94 47 q 65 354 65 192 q 80 589 65 517 q 144 690 94 661 q 306 719 193 719 q 467 690 418 719 q 531 589 517 661 q 544 354 544 517 q 531 119 544 192 q 467 18 517 47 q 306 -11 418 -11 m 306 74 q 403 93 375 74 q 439 165 432 113 q 446 354 446 218 q 439 543 446 490 q 403 615 432 596 q 306 635 375 635 q 207 615 235 635 q 172 542 179 596 q 164 354 164 489 q 172 166 164 219 q 207 93 179 113 q 306 74 235 74 m 150 843 q 159 953 150 913 q 202 1017 168 993 q 307 1040 236 1040 q 410 1017 376 1040 q 452 953 443 993 q 461 843 461 913 l 392 843 q 388 922 392 896 q 365 962 383 947 q 307 976 347 976 q 247 962 265 976 q 224 922 228 947 q 219 843 219 896 l 150 843 z "},"ō":{"ha":610,"x_min":65,"x_max":544,"o":"m 306 -11 q 144 18 193 -11 q 80 119 94 47 q 65 354 65 192 q 80 589 65 517 q 144 690 94 661 q 306 719 193 719 q 467 690 418 719 q 531 589 517 661 q 544 354 544 517 q 531 119 544 192 q 467 18 517 47 q 306 -11 418 -11 m 306 74 q 403 93 375 74 q 439 165 432 113 q 446 354 446 218 q 439 543 446 490 q 403 615 432 596 q 306 635 375 635 q 207 615 235 635 q 172 542 179 596 q 164 354 164 489 q 172 166 164 219 q 207 93 179 113 q 306 74 235 74 m 169 940 l 169 1032 l 442 1032 l 442 940 l 169 940 z "},"ǫ":{"ha":610,"x_min":65,"x_max":544,"o":"m 306 719 q 467 690 418 719 q 531 589 517 661 q 544 354 544 517 q 531 124 544 194 q 472 22 518 53 q 406 -53 436 -3 q 376 -147 376 -103 q 439 -206 376 -206 q 463 -204 454 -206 l 463 -269 q 415 -272 435 -272 q 321 -244 350 -272 q 292 -168 292 -215 q 310 -87 292 -129 q 361 -10 329 -46 q 304 -11 344 -11 q 143 18 192 -11 q 80 119 94 47 q 65 354 65 192 q 80 589 65 517 q 144 690 94 661 q 306 719 193 719 m 306 74 q 403 93 375 74 q 439 165 432 113 q 446 354 446 218 q 439 543 446 490 q 403 615 432 596 q 306 635 375 635 q 207 615 235 635 q 172 542 179 596 q 164 354 164 489 q 172 166 164 219 q 207 93 179 113 q 306 74 235 74 z "},"ø":{"ha":610,"x_min":65,"x_max":544,"o":"m 492 669 q 535 565 525 635 q 544 354 544 496 q 531 119 544 192 q 467 18 517 47 q 306 -11 418 -11 q 186 0 229 -11 l 151 -76 l 65 -76 l 118 39 q 75 143 85 74 q 65 354 65 213 q 80 589 65 517 q 144 690 94 661 q 306 719 193 719 q 424 708 383 719 l 458 785 l 544 785 l 492 669 m 164 354 q 165 238 164 290 q 172 157 167 185 l 386 625 q 306 635 358 635 q 207 615 235 635 q 172 542 179 596 q 164 354 164 489 m 446 354 q 444 471 446 418 q 438 551 443 524 l 224 82 q 306 74 247 74 q 403 93 375 74 q 439 165 432 113 q 446 354 446 218 z "},"ǿ":{"ha":610,"x_min":65,"x_max":544,"o":"m 492 669 q 535 565 525 635 q 544 354 544 496 q 531 119 544 192 q 467 18 517 47 q 306 -11 418 -11 q 186 0 229 -11 l 151 -76 l 65 -76 l 118 39 q 75 143 85 74 q 65 354 65 213 q 80 589 65 517 q 144 690 94 661 q 306 719 193 719 q 424 708 383 719 l 458 785 l 544 785 l 492 669 m 164 354 q 165 238 164 290 q 172 157 167 185 l 386 625 q 306 635 358 635 q 207 615 235 635 q 172 542 179 596 q 164 354 164 489 m 446 354 q 444 471 446 418 q 438 551 443 524 l 224 82 q 306 74 247 74 q 403 93 375 74 q 439 165 432 113 q 446 354 446 218 m 261 836 l 261 843 l 336 1032 l 440 1032 l 440 1025 l 333 836 l 261 836 z "},"õ":{"ha":610,"x_min":65,"x_max":544,"o":"m 306 -11 q 144 18 193 -11 q 80 119 94 47 q 65 354 65 192 q 80 589 65 517 q 144 690 94 661 q 306 719 193 719 q 467 690 418 719 q 531 589 517 661 q 544 354 544 517 q 531 119 544 192 q 467 18 517 47 q 306 -11 418 -11 m 306 74 q 403 93 375 74 q 439 165 432 113 q 446 354 446 218 q 439 543 446 490 q 403 615 432 596 q 306 635 375 635 q 207 615 235 635 q 172 542 179 596 q 164 354 164 489 q 172 166 164 219 q 207 93 179 113 q 306 74 235 74 m 501 1032 q 485 913 501 946 q 415 881 469 881 q 360 889 388 881 q 297 913 333 897 q 270 924 290 915 q 233 938 250 933 q 204 942 217 942 q 178 926 183 942 q 172 865 172 910 l 111 865 q 127 984 111 951 q 197 1017 143 1017 q 252 1008 224 1017 q 318 983 281 999 q 367 964 343 972 q 408 956 392 956 q 435 972 429 956 q 440 1032 440 988 l 501 1032 z "},"œ":{"ha":976,"x_min":65,"x_max":911,"o":"m 911 322 l 546 322 q 556 160 546 210 q 601 92 567 111 q 715 74 635 74 q 890 89 807 74 l 890 8 q 802 -6 857 0 q 697 -11 747 -11 q 571 8 618 -11 q 497 71 524 26 q 429 7 474 25 q 304 -11 385 -11 q 143 18 192 -11 q 80 119 94 47 q 65 354 65 192 q 80 589 65 517 q 143 690 94 661 q 304 719 192 719 q 428 702 383 719 q 496 640 472 685 q 568 701 522 682 q 690 719 614 719 q 840 686 794 719 q 899 581 886 653 q 911 354 911 510 l 911 322 m 688 636 q 593 619 622 636 q 555 553 564 601 q 546 396 546 506 l 815 396 l 815 413 q 804 560 815 514 q 767 622 793 607 q 688 636 742 636 m 306 74 q 404 93 376 74 q 439 165 432 113 q 446 354 446 218 q 439 543 446 490 q 403 615 432 596 q 306 635 375 635 q 207 615 235 635 q 172 542 179 596 q 164 354 164 489 q 172 165 164 218 q 207 93 179 113 q 306 74 235 74 z "},"p":{"ha":625,"x_min":88,"x_max":560,"o":"m 88 708 l 174 708 l 179 610 l 188 610 q 251 697 207 674 q 357 719 294 719 q 482 689 439 719 q 542 581 525 658 q 560 356 560 504 q 543 128 560 206 q 483 20 526 51 q 358 -11 440 -11 q 253 11 293 -11 q 193 86 213 33 l 186 86 l 186 -268 l 88 -268 l 88 708 m 322 78 q 415 96 388 78 q 451 169 442 114 q 461 354 461 225 q 451 539 461 483 q 415 613 442 594 q 322 631 388 631 q 240 610 269 631 q 199 540 211 589 q 188 464 190 507 q 186 354 186 421 q 197 181 186 225 q 239 101 210 124 q 322 78 268 78 z "},"þ":{"ha":625,"x_min":88,"x_max":560,"o":"m 88 1032 l 186 1032 l 186 618 l 193 618 q 252 697 211 674 q 357 719 293 719 q 482 689 439 719 q 542 581 525 658 q 560 354 560 504 q 543 128 560 206 q 483 20 526 51 q 358 -11 440 -11 q 253 11 293 -11 q 193 86 213 33 l 186 86 l 186 -264 l 88 -264 l 88 1032 m 322 78 q 415 96 388 78 q 451 169 442 114 q 461 354 461 225 q 451 539 461 483 q 415 613 442 594 q 322 631 388 631 q 240 608 269 631 q 197 533 210 586 q 186 354 186 482 q 196 189 186 229 q 238 103 208 128 q 322 78 267 78 z "},"q":{"ha":625,"x_min":65,"x_max":538,"o":"m 439 86 l 432 86 q 372 11 413 33 q 265 -11 332 -11 q 141 20 183 -11 q 82 128 99 51 q 65 354 65 206 q 83 581 65 504 q 142 689 100 658 q 267 719 185 719 q 374 697 331 719 q 438 610 418 674 l 444 610 l 450 708 l 538 708 l 538 -268 l 439 -268 l 439 86 m 303 78 q 385 100 356 78 q 426 172 414 122 q 437 244 435 203 q 439 354 439 286 q 436 469 439 425 q 424 549 433 513 q 383 611 413 592 q 303 631 354 631 q 210 613 238 631 q 174 539 183 594 q 164 354 164 483 q 174 169 164 225 q 210 96 183 114 q 303 78 238 78 z "},"r":{"ha":396,"x_min":88,"x_max":371,"o":"m 88 708 l 174 708 l 179 576 l 188 576 q 251 689 206 658 q 371 719 296 719 l 371 619 q 258 589 299 619 q 202 498 218 558 q 186 336 186 438 l 186 0 l 88 0 l 88 708 z "},"ŕ":{"ha":396,"x_min":88,"x_max":371,"o":"m 88 708 l 174 708 l 179 576 l 188 576 q 251 689 206 658 q 371 719 296 719 l 371 619 q 258 589 299 619 q 202 498 218 558 q 186 336 186 438 l 186 0 l 88 0 l 88 708 m 154 836 l 154 843 l 229 1032 l 333 1032 l 333 1025 l 226 836 l 154 836 z "},"ř":{"ha":396,"x_min":38,"x_max":371,"o":"m 88 708 l 174 708 l 179 576 l 188 576 q 251 689 206 658 q 371 719 296 719 l 371 619 q 258 589 299 619 q 202 498 218 558 q 186 336 186 438 l 186 0 l 88 0 l 88 708 m 144 839 l 38 1024 l 38 1032 l 107 1032 l 199 897 l 289 1032 l 358 1032 l 358 1024 l 251 839 l 144 839 z "},"ŗ":{"ha":396,"x_min":68,"x_max":371,"o":"m 88 708 l 174 708 l 179 576 l 188 576 q 251 689 206 658 q 371 719 296 719 l 371 619 q 258 589 299 619 q 202 498 218 558 q 186 336 186 438 l 186 0 l 88 0 l 88 708 m 68 -306 q 126 -290 114 -306 q 139 -228 139 -275 l 139 -206 l 93 -206 l 93 -86 l 204 -86 l 204 -194 q 194 -294 204 -261 q 156 -340 185 -326 q 68 -353 128 -353 l 68 -306 z "},"ȑ":{"ha":396,"x_min":-15,"x_max":371,"o":"m 88 708 l 174 708 l 179 576 l 188 576 q 251 689 206 658 q 371 719 296 719 l 371 619 q 258 589 299 619 q 202 498 218 558 q 186 336 186 438 l 186 0 l 88 0 l 88 708 m 144 847 l 81 847 l -15 1011 l -15 1017 l 76 1017 l 144 853 l 144 847 m 329 847 l 265 847 l 168 1011 l 168 1017 l 261 1017 l 329 853 l 329 847 z "},"ṛ":{"ha":396,"x_min":79,"x_max":371,"o":"m 88 708 l 174 708 l 179 576 l 188 576 q 251 689 206 658 q 371 719 296 719 l 371 619 q 258 589 299 619 q 202 498 218 558 q 186 336 186 438 l 186 0 l 88 0 l 88 708 m 79 -211 l 79 -86 l 193 -86 l 193 -211 l 79 -211 z "},"ȓ":{"ha":396,"x_min":43,"x_max":371,"o":"m 88 708 l 174 708 l 179 576 l 188 576 q 251 689 206 658 q 371 719 296 719 l 371 619 q 258 589 299 619 q 202 498 218 558 q 186 336 186 438 l 186 0 l 88 0 l 88 708 m 43 843 q 52 953 43 913 q 95 1017 61 993 q 200 1040 129 1040 q 303 1017 269 1040 q 345 953 336 993 q 354 843 354 913 l 285 843 q 281 922 285 896 q 258 962 276 947 q 200 976 240 976 q 140 962 158 976 q 117 922 121 947 q 113 843 113 896 l 43 843 z "},"s":{"ha":524,"x_min":53,"x_max":472,"o":"m 260 -11 q 158 -6 213 -11 q 69 6 104 -1 l 69 88 q 253 72 158 72 q 332 86 306 72 q 367 125 358 100 q 375 193 375 150 q 369 266 375 244 q 351 295 364 288 q 306 307 338 303 l 167 328 q 76 378 100 338 q 53 513 53 419 q 79 641 53 596 q 152 703 106 686 q 272 719 199 719 q 364 714 315 719 q 442 700 413 708 l 442 619 q 363 631 410 626 q 272 636 317 636 q 178 613 207 636 q 149 519 149 589 q 154 452 149 474 q 173 422 160 431 q 217 410 186 414 l 351 392 q 422 369 396 386 q 460 311 447 351 q 472 196 472 271 q 422 34 472 79 q 260 -11 372 -11 z "},"ś":{"ha":524,"x_min":53,"x_max":472,"o":"m 260 -11 q 158 -6 213 -11 q 69 6 104 -1 l 69 88 q 253 72 158 72 q 332 86 306 72 q 367 125 358 100 q 375 193 375 150 q 369 266 375 244 q 351 295 364 288 q 306 307 338 303 l 167 328 q 76 378 100 338 q 53 513 53 419 q 79 641 53 596 q 152 703 106 686 q 272 719 199 719 q 364 714 315 719 q 442 700 413 708 l 442 619 q 363 631 410 626 q 272 636 317 636 q 178 613 207 636 q 149 519 149 589 q 154 452 149 474 q 173 422 160 431 q 217 410 186 414 l 351 392 q 422 369 396 386 q 460 311 447 351 q 472 196 472 271 q 422 34 472 79 q 260 -11 372 -11 m 218 836 l 218 843 l 293 1032 l 397 1032 l 397 1025 l 290 836 l 218 836 z "},"ꞌ":{"ha":164,"x_min":33,"x_max":131,"o":"m 33 396 l 33 1032 l 131 1032 l 131 713 l 101 396 l 33 396 z "},"š":{"ha":524,"x_min":53,"x_max":472,"o":"m 260 -11 q 158 -6 213 -11 q 69 6 104 -1 l 69 88 q 253 72 158 72 q 332 86 306 72 q 367 125 358 100 q 375 193 375 150 q 369 266 375 244 q 351 295 364 288 q 306 307 338 303 l 167 328 q 76 378 100 338 q 53 513 53 419 q 79 641 53 596 q 152 703 106 686 q 272 719 199 719 q 364 714 315 719 q 442 700 413 708 l 442 619 q 363 631 410 626 q 272 636 317 636 q 178 613 207 636 q 149 519 149 589 q 154 452 149 474 q 173 422 160 431 q 217 410 186 414 l 351 392 q 422 369 396 386 q 460 311 447 351 q 472 196 472 271 q 422 34 472 79 q 260 -11 372 -11 m 213 839 l 106 1024 l 106 1032 l 175 1032 l 267 897 l 357 1032 l 426 1032 l 426 1024 l 319 839 l 213 839 z "},"ş":{"ha":524,"x_min":53,"x_max":472,"o":"m 472 196 q 430 42 472 89 q 294 -10 388 -4 l 240 -264 l 143 -264 l 143 -257 l 222 -10 q 69 6 129 -7 l 69 88 q 253 72 158 72 q 332 86 306 72 q 367 125 358 100 q 375 193 375 150 q 369 266 375 244 q 351 295 364 288 q 306 307 338 303 l 167 328 q 76 378 100 338 q 53 513 53 419 q 79 641 53 596 q 152 703 106 686 q 272 719 199 719 q 364 714 315 719 q 442 700 413 708 l 442 619 q 363 631 410 626 q 272 636 317 636 q 178 613 207 636 q 149 519 149 589 q 154 452 149 474 q 173 422 160 431 q 217 410 186 414 l 351 392 q 422 369 396 386 q 460 311 447 351 q 472 196 472 271 z "},"ŝ":{"ha":524,"x_min":53,"x_max":472,"o":"m 260 -11 q 158 -6 213 -11 q 69 6 104 -1 l 69 88 q 253 72 158 72 q 332 86 306 72 q 367 125 358 100 q 375 193 375 150 q 369 266 375 244 q 351 295 364 288 q 306 307 338 303 l 167 328 q 76 378 100 338 q 53 513 53 419 q 79 641 53 596 q 152 703 106 686 q 272 719 199 719 q 364 714 315 719 q 442 700 413 708 l 442 619 q 363 631 410 626 q 272 636 317 636 q 178 613 207 636 q 149 519 149 589 q 154 452 149 474 q 173 422 160 431 q 217 410 186 414 l 351 392 q 422 369 396 386 q 460 311 447 351 q 472 196 472 271 q 422 34 472 79 q 260 -11 372 -11 m 101 840 l 101 849 l 208 1032 l 317 1032 l 422 849 l 422 840 l 353 840 l 263 975 l 171 840 l 101 840 z "},"ș":{"ha":524,"x_min":53,"x_max":472,"o":"m 260 -11 q 158 -6 213 -11 q 69 6 104 -1 l 69 88 q 253 72 158 72 q 332 86 306 72 q 367 125 358 100 q 375 193 375 150 q 369 266 375 244 q 351 295 364 288 q 306 307 338 303 l 167 328 q 76 378 100 338 q 53 513 53 419 q 79 641 53 596 q 152 703 106 686 q 272 719 199 719 q 364 714 315 719 q 442 700 413 708 l 442 619 q 363 631 410 626 q 272 636 317 636 q 178 613 207 636 q 149 519 149 589 q 154 452 149 474 q 173 422 160 431 q 217 410 186 414 l 351 392 q 422 369 396 386 q 460 311 447 351 q 472 196 472 271 q 422 34 472 79 q 260 -11 372 -11 m 194 -306 q 253 -290 240 -306 q 265 -228 265 -275 l 265 -206 l 219 -206 l 219 -86 l 331 -86 l 331 -194 q 321 -294 331 -261 q 283 -340 311 -326 q 194 -353 254 -353 l 194 -306 z "},"ṣ":{"ha":524,"x_min":53,"x_max":472,"o":"m 260 -11 q 158 -6 213 -11 q 69 6 104 -1 l 69 88 q 253 72 158 72 q 332 86 306 72 q 367 125 358 100 q 375 193 375 150 q 369 266 375 244 q 351 295 364 288 q 306 307 338 303 l 167 328 q 76 378 100 338 q 53 513 53 419 q 79 641 53 596 q 152 703 106 686 q 272 719 199 719 q 364 714 315 719 q 442 700 413 708 l 442 619 q 363 631 410 626 q 272 636 317 636 q 178 613 207 636 q 149 519 149 589 q 154 452 149 474 q 173 422 160 431 q 217 410 186 414 l 351 392 q 422 369 396 386 q 460 311 447 351 q 472 196 472 271 q 422 34 472 79 q 260 -11 372 -11 m 206 -211 l 206 -86 l 319 -86 l 319 -211 l 206 -211 z "},"ß":{"ha":644,"x_min":88,"x_max":576,"o":"m 282 0 l 282 85 l 328 85 q 429 99 400 85 q 468 163 458 114 q 478 332 478 213 q 466 478 478 429 q 426 545 454 526 q 342 564 397 564 l 310 564 l 310 649 l 342 649 q 442 683 414 649 q 469 801 469 718 q 456 896 469 863 q 411 943 442 929 q 326 957 381 957 q 242 941 272 957 q 199 885 213 925 q 185 772 185 846 l 185 0 l 88 0 l 88 772 q 111 931 88 872 q 187 1016 135 990 q 328 1042 239 1042 q 514 989 460 1042 q 568 810 568 936 q 538 673 568 718 q 440 614 508 628 l 440 608 q 544 533 511 594 q 576 338 576 471 q 560 135 576 206 q 494 33 543 65 q 347 0 446 0 l 282 0 z "},"ſ":{"ha":372,"x_min":28,"x_max":361,"o":"m 131 624 l 28 624 l 28 708 l 131 708 l 131 828 q 152 964 131 921 q 220 1019 174 1007 q 361 1032 267 1032 l 361 954 q 277 947 304 954 q 240 916 250 939 q 229 846 229 893 l 229 0 l 131 0 l 131 624 z "},"t":{"ha":379,"x_min":28,"x_max":351,"o":"m 131 0 l 131 624 l 28 624 l 28 708 l 131 708 l 131 914 l 229 914 l 229 708 l 351 708 l 351 624 l 229 624 l 229 0 l 131 0 z "},"ŧ":{"ha":379,"x_min":28,"x_max":351,"o":"m 351 624 l 229 624 l 229 390 l 346 390 l 346 307 l 229 307 l 229 0 l 131 0 l 131 307 l 38 307 l 38 390 l 131 390 l 131 624 l 28 624 l 28 708 l 131 708 l 131 914 l 229 914 l 229 708 l 351 708 l 351 624 z "},"ť":{"ha":422,"x_min":28,"x_max":508,"o":"m 131 0 l 131 624 l 28 624 l 28 708 l 131 708 l 131 914 l 229 914 l 229 708 l 351 708 l 351 624 l 229 624 l 229 0 l 131 0 m 392 618 l 411 849 l 411 956 l 508 956 l 508 849 l 460 618 l 392 618 z "},"ţ":{"ha":379,"x_min":28,"x_max":351,"o":"m 229 708 l 351 708 l 351 624 l 229 624 l 229 0 l 214 0 l 158 -264 l 61 -264 l 61 -257 l 143 0 l 131 0 l 131 624 l 28 624 l 28 708 l 131 708 l 131 914 l 229 914 l 229 708 z "},"ț":{"ha":379,"x_min":28,"x_max":351,"o":"m 131 0 l 131 624 l 28 624 l 28 708 l 131 708 l 131 914 l 229 914 l 229 708 l 351 708 l 351 624 l 229 624 l 229 0 l 131 0 m 113 -306 q 171 -290 158 -306 q 183 -228 183 -275 l 183 -206 l 138 -206 l 138 -86 l 249 -86 l 249 -194 q 239 -294 249 -261 q 201 -340 229 -326 q 113 -353 172 -353 l 113 -306 z "},"ṭ":{"ha":379,"x_min":28,"x_max":351,"o":"m 131 0 l 131 624 l 28 624 l 28 708 l 131 708 l 131 914 l 229 914 l 229 708 l 351 708 l 351 624 l 229 624 l 229 0 l 131 0 m 124 -211 l 124 -86 l 238 -86 l 238 -211 l 124 -211 z "},"u":{"ha":629,"x_min":83,"x_max":542,"o":"m 449 99 l 442 99 q 384 17 425 46 q 267 -11 343 -11 q 149 17 189 -11 q 97 101 110 44 q 83 261 83 157 l 83 708 l 182 708 l 182 294 q 191 150 182 193 q 225 92 200 107 q 307 78 250 78 q 399 108 369 78 q 435 190 428 138 q 443 340 443 242 l 443 708 l 542 708 l 542 0 l 454 0 l 449 99 z "},"ú":{"ha":629,"x_min":83,"x_max":542,"o":"m 449 99 l 442 99 q 384 17 425 46 q 267 -11 343 -11 q 149 17 189 -11 q 97 101 110 44 q 83 261 83 157 l 83 708 l 182 708 l 182 294 q 191 150 182 193 q 225 92 200 107 q 307 78 250 78 q 399 108 369 78 q 435 190 428 138 q 443 340 443 242 l 443 708 l 542 708 l 542 0 l 454 0 l 449 99 m 275 836 l 275 843 l 350 1032 l 454 1032 l 454 1025 l 347 836 l 275 836 z "},"ŭ":{"ha":629,"x_min":83,"x_max":542,"o":"m 449 99 l 442 99 q 384 17 425 46 q 267 -11 343 -11 q 149 17 189 -11 q 97 101 110 44 q 83 261 83 157 l 83 708 l 182 708 l 182 294 q 191 150 182 193 q 225 92 200 107 q 307 78 250 78 q 399 108 369 78 q 435 190 428 138 q 443 340 443 242 l 443 708 l 542 708 l 542 0 l 454 0 l 449 99 m 468 1032 q 459 922 468 963 q 416 858 450 882 q 311 835 382 835 q 208 858 242 835 q 166 922 175 882 q 157 1032 157 963 l 226 1032 q 231 953 226 979 q 253 913 235 928 q 311 899 271 899 q 372 913 353 899 q 394 953 390 928 q 399 1032 399 979 l 468 1032 z "},"ǔ":{"ha":629,"x_min":83,"x_max":542,"o":"m 449 99 l 442 99 q 384 17 425 46 q 267 -11 343 -11 q 149 17 189 -11 q 97 101 110 44 q 83 261 83 157 l 83 708 l 182 708 l 182 294 q 191 150 182 193 q 225 92 200 107 q 307 78 250 78 q 399 108 369 78 q 435 190 428 138 q 443 340 443 242 l 443 708 l 542 708 l 542 0 l 454 0 l 449 99 m 260 839 l 153 1024 l 153 1032 l 222 1032 l 314 897 l 404 1032 l 474 1032 l 474 1024 l 367 839 l 260 839 z "},"û":{"ha":629,"x_min":83,"x_max":542,"o":"m 449 99 l 442 99 q 384 17 425 46 q 267 -11 343 -11 q 149 17 189 -11 q 97 101 110 44 q 83 261 83 157 l 83 708 l 182 708 l 182 294 q 191 150 182 193 q 225 92 200 107 q 307 78 250 78 q 399 108 369 78 q 435 190 428 138 q 443 340 443 242 l 443 708 l 542 708 l 542 0 l 454 0 l 449 99 m 153 840 l 153 849 l 260 1032 l 368 1032 l 474 849 l 474 840 l 404 840 l 314 975 l 222 840 l 153 840 z "},"ȕ":{"ha":629,"x_min":83,"x_max":542,"o":"m 449 99 l 442 99 q 384 17 425 46 q 267 -11 343 -11 q 149 17 189 -11 q 97 101 110 44 q 83 261 83 157 l 83 708 l 182 708 l 182 294 q 191 150 182 193 q 225 92 200 107 q 307 78 250 78 q 399 108 369 78 q 435 190 428 138 q 443 340 443 242 l 443 708 l 542 708 l 542 0 l 454 0 l 449 99 m 260 847 l 196 847 l 100 1011 l 100 1017 l 192 1017 l 260 853 l 260 847 m 444 847 l 381 847 l 283 1011 l 283 1017 l 376 1017 l 444 853 l 444 847 z "},"ü":{"ha":629,"x_min":83,"x_max":542,"o":"m 449 99 l 442 99 q 384 17 425 46 q 267 -11 343 -11 q 149 17 189 -11 q 97 101 110 44 q 83 261 83 157 l 83 708 l 182 708 l 182 294 q 191 150 182 193 q 225 92 200 107 q 307 78 250 78 q 399 108 369 78 q 435 190 428 138 q 443 340 443 242 l 443 708 l 542 708 l 542 0 l 454 0 l 449 99 m 142 906 l 142 1011 l 236 1011 l 236 906 l 142 906 m 389 906 l 389 1011 l 483 1011 l 483 906 l 389 906 z "},"ǘ":{"ha":629,"x_min":83,"x_max":542,"o":"m 449 99 l 442 99 q 384 17 425 46 q 267 -11 343 -11 q 149 17 189 -11 q 97 101 110 44 q 83 261 83 157 l 83 708 l 182 708 l 182 294 q 191 150 182 193 q 225 92 200 107 q 307 78 250 78 q 399 108 369 78 q 435 190 428 138 q 443 340 443 242 l 443 708 l 542 708 l 542 0 l 454 0 l 449 99 m 143 908 l 143 1014 l 238 1014 l 238 908 l 143 908 m 390 908 l 390 1014 l 485 1014 l 485 908 l 390 908 m 272 1058 l 272 1065 l 347 1254 l 451 1254 l 451 1247 l 344 1058 l 272 1058 z "},"ǚ":{"ha":629,"x_min":83,"x_max":542,"o":"m 449 99 l 442 99 q 384 17 425 46 q 267 -11 343 -11 q 149 17 189 -11 q 97 101 110 44 q 83 261 83 157 l 83 708 l 182 708 l 182 294 q 191 150 182 193 q 225 92 200 107 q 307 78 250 78 q 399 108 369 78 q 435 190 428 138 q 443 340 443 242 l 443 708 l 542 708 l 542 0 l 454 0 l 449 99 m 143 908 l 143 1014 l 238 1014 l 238 908 l 143 908 m 390 908 l 390 1014 l 485 1014 l 485 908 l 390 908 m 263 1061 l 156 1246 l 156 1254 l 225 1254 l 317 1119 l 407 1254 l 476 1254 l 476 1246 l 369 1061 l 263 1061 z "},"ǜ":{"ha":629,"x_min":83,"x_max":542,"o":"m 449 99 l 442 99 q 384 17 425 46 q 267 -11 343 -11 q 149 17 189 -11 q 97 101 110 44 q 83 261 83 157 l 83 708 l 182 708 l 182 294 q 191 150 182 193 q 225 92 200 107 q 307 78 250 78 q 399 108 369 78 q 435 190 428 138 q 443 340 443 242 l 443 708 l 542 708 l 542 0 l 454 0 l 449 99 m 143 908 l 143 1014 l 238 1014 l 238 908 l 143 908 m 390 908 l 390 1014 l 485 1014 l 485 908 l 390 908 m 283 1058 l 176 1247 l 176 1254 l 281 1254 l 356 1065 l 356 1058 l 283 1058 z "},"ǖ":{"ha":629,"x_min":83,"x_max":542,"o":"m 449 99 l 442 99 q 384 17 425 46 q 267 -11 343 -11 q 149 17 189 -11 q 97 101 110 44 q 83 261 83 157 l 83 708 l 182 708 l 182 294 q 191 150 182 193 q 225 92 200 107 q 307 78 250 78 q 399 108 369 78 q 435 190 428 138 q 443 340 443 242 l 443 708 l 542 708 l 542 0 l 454 0 l 449 99 m 143 908 l 143 1014 l 238 1014 l 238 908 l 143 908 m 390 908 l 390 1014 l 485 1014 l 485 908 l 390 908 m 181 1163 l 181 1254 l 453 1254 l 453 1163 l 181 1163 z "},"ụ":{"ha":629,"x_min":83,"x_max":542,"o":"m 449 99 l 442 99 q 384 17 425 46 q 267 -11 343 -11 q 149 17 189 -11 q 97 101 110 44 q 83 261 83 157 l 83 708 l 182 708 l 182 294 q 191 150 182 193 q 225 92 200 107 q 307 78 250 78 q 399 108 369 78 q 435 190 428 138 q 443 340 443 242 l 443 708 l 542 708 l 542 0 l 454 0 l 449 99 m 240 -211 l 240 -86 l 354 -86 l 354 -211 l 240 -211 z "},"ù":{"ha":629,"x_min":83,"x_max":542,"o":"m 449 99 l 442 99 q 384 17 425 46 q 267 -11 343 -11 q 149 17 189 -11 q 97 101 110 44 q 83 261 83 157 l 83 708 l 182 708 l 182 294 q 191 150 182 193 q 225 92 200 107 q 307 78 250 78 q 399 108 369 78 q 435 190 428 138 q 443 340 443 242 l 443 708 l 542 708 l 542 0 l 454 0 l 449 99 m 289 836 l 182 1025 l 182 1032 l 286 1032 l 361 843 l 361 836 l 289 836 z "},"ủ":{"ha":629,"x_min":83,"x_max":542,"o":"m 449 99 l 442 99 q 384 17 425 46 q 267 -11 343 -11 q 149 17 189 -11 q 97 101 110 44 q 83 261 83 157 l 83 708 l 182 708 l 182 294 q 191 150 182 193 q 225 92 200 107 q 307 78 250 78 q 399 108 369 78 q 435 190 428 138 q 443 340 443 242 l 443 708 l 542 708 l 542 0 l 454 0 l 449 99 m 250 861 q 262 908 250 894 q 306 931 274 921 l 325 938 q 367 958 356 947 q 378 992 378 968 q 372 1020 378 1011 q 349 1033 365 1029 q 294 1036 332 1036 q 176 1029 249 1036 l 176 1090 q 304 1101 257 1101 q 419 1079 386 1101 q 451 1000 451 1057 q 439 937 451 958 q 386 901 426 915 l 367 893 q 323 874 331 881 q 315 847 315 867 l 250 847 l 250 861 z "},"ư":{"ha":629,"x_min":83,"x_max":661,"o":"m 661 843 l 661 797 q 652 715 661 743 q 617 672 643 686 q 542 656 592 658 l 542 0 l 454 0 l 449 99 l 442 99 q 384 17 425 46 q 267 -11 343 -11 q 149 17 189 -11 q 97 101 110 44 q 83 261 83 157 l 83 708 l 182 708 l 182 294 q 191 150 182 193 q 225 92 200 107 q 307 78 250 78 q 399 108 369 78 q 435 190 428 138 q 443 340 443 242 l 443 708 l 514 708 q 576 723 563 708 q 589 781 589 738 l 589 843 l 661 843 z "},"ứ":{"ha":629,"x_min":83,"x_max":661,"o":"m 661 843 l 661 797 q 652 715 661 743 q 617 672 643 686 q 542 656 592 658 l 542 0 l 454 0 l 449 99 l 442 99 q 384 17 425 46 q 267 -11 343 -11 q 149 17 189 -11 q 97 101 110 44 q 83 261 83 157 l 83 708 l 182 708 l 182 294 q 191 150 182 193 q 225 92 200 107 q 307 78 250 78 q 399 108 369 78 q 435 190 428 138 q 443 340 443 242 l 443 708 l 514 708 q 576 723 563 708 q 589 781 589 738 l 589 843 l 661 843 m 269 836 l 269 843 l 344 1032 l 449 1032 l 449 1025 l 342 836 l 269 836 z "}}}
